<svg version="1.1" id="Layer_1" xmlns="http://www.w3.org/2000/svg" xmlns:xlink="http://www.w3.org/1999/xlink" x="0px" y="0px"
	 width="100%" viewBox="0 0 540 360" enable-background="new 0 0 540 360" xml:space="preserve">
<path fill="#FFFFFF" opacity="1.000000" stroke="none" 
	d="
M389.000000,361.000000 
	C259.369202,361.000000 130.238373,361.000000 1.053781,361.000000 
	C1.053781,241.069183 1.053781,121.138336 1.053781,1.103745 
	C180.880829,1.103745 360.761719,1.103745 540.821289,1.103745 
	C540.821289,120.999779 540.821289,240.999878 540.821289,361.000000 
	C490.471649,361.000000 439.985809,361.000000 389.000000,361.000000 
M403.848328,315.081787 
	C400.380768,313.675873 396.965149,310.561005 393.444122,315.302979 
	C393.035797,315.852844 390.585175,314.886261 389.671173,314.167084 
	C394.050812,311.478088 398.668365,309.104004 402.750244,306.020782 
	C407.919647,302.116150 409.608429,294.882050 407.151703,289.939117 
	C404.991241,285.592285 400.200012,283.807190 393.132935,285.653290 
	C386.890930,287.283844 380.809967,289.588867 374.749878,291.843262 
	C366.976257,294.735138 367.015900,294.841675 365.022400,286.309479 
	C364.939911,285.839752 364.857422,285.370026 364.782593,284.067139 
	C364.603149,280.573181 364.423737,277.079224 365.067413,273.432770 
	C366.188171,273.459259 367.308960,273.485779 368.437714,273.711334 
	C368.437714,273.711334 368.682404,273.530762 369.350739,273.689270 
	C369.565674,273.768188 369.780579,273.847107 370.006073,274.735474 
	C370.166290,275.704620 370.149384,276.748352 370.520142,277.628845 
	C371.607361,280.210846 371.511963,283.657379 375.645203,283.992889 
	C379.889740,284.337433 382.577667,282.052338 383.456024,278.567413 
	C384.516998,274.357819 384.572021,269.863556 384.778900,265.479126 
	C384.962311,261.593018 383.124084,258.884155 379.518311,257.129761 
	C380.195679,254.871323 380.873077,252.612885 381.608917,250.159454 
	C379.222351,249.758362 377.604919,249.486542 376.061951,248.418701 
	C376.438019,242.672852 379.951843,241.787888 384.980927,241.902924 
	C397.626770,242.192169 410.284729,241.905792 422.935486,242.052948 
	C426.800110,242.097900 427.794678,240.499130 426.533813,237.206711 
	C425.296021,233.974533 423.056396,230.969299 422.508911,227.657425 
	C420.477478,215.367935 413.097839,206.397079 405.149719,197.591019 
	C397.735504,189.376480 390.188721,181.230621 383.421112,172.496048 
	C374.429871,160.891586 370.552490,147.271118 370.001068,132.673264 
	C369.663086,123.726189 369.983459,114.691704 368.805939,105.856712 
	C367.661896,97.273216 365.405243,88.759567 362.766876,80.493004 
	C361.738220,77.269974 358.333221,74.805374 355.727142,71.361542 
	C354.248047,69.438377 353.165405,66.790955 351.217285,65.724586 
	C344.755432,62.187504 338.191864,58.618458 331.269257,56.201969 
	C324.296844,53.768089 316.855835,52.665646 309.607697,51.035229 
	C298.619781,48.563576 289.249298,42.491283 279.740356,37.014553 
	C261.975952,26.783070 243.312454,25.596043 224.248199,30.999760 
	C211.517349,34.608288 199.726044,40.662827 190.124893,50.324284 
	C181.453674,59.050003 174.596191,68.738029 171.506744,81.333954 
	C171.338684,81.889938 171.170639,82.445923 171.001617,83.751427 
	C171.001068,84.500954 171.000534,85.250473 170.411377,86.576805 
	C170.940704,93.051201 171.470047,99.525604 171.999680,106.856735 
	C172.000198,108.570709 172.000702,110.284676 171.999725,112.932648 
	C172.001236,117.956245 172.002747,122.979851 172.003479,128.802628 
	C172.003174,129.868210 172.002853,130.933807 171.439529,132.507172 
	C169.109207,146.847244 161.631622,158.961288 154.242950,170.983475 
	C148.282654,180.681580 141.157333,189.656464 134.983246,199.232285 
	C127.950279,210.140152 124.567764,222.459274 122.376862,235.751068 
	C123.968758,235.834564 125.545120,235.984894 127.121841,235.988831 
	C136.271805,236.011673 145.423615,235.904541 154.570496,236.073959 
	C156.603485,236.111618 158.681335,236.920090 160.627289,237.664444 
	C163.138351,238.624985 165.537552,239.878006 168.538483,241.459778 
	C170.051041,244.983032 171.563614,248.506287 172.131897,252.029922 
	C160.204391,252.604477 148.276886,253.179031 136.349380,253.753571 
	C136.124878,254.337952 135.900375,254.922333 135.675888,255.506714 
	C141.123627,263.515961 146.716400,271.431976 151.950714,279.578369 
	C154.174194,283.038879 156.256531,285.317474 159.999664,282.413208 
	C159.999664,284.895447 159.028809,287.988831 160.149689,289.317261 
	C171.489532,302.756470 186.081848,310.540924 203.624374,313.929199 
	C204.471970,317.948883 205.319580,321.968567 205.367706,326.293518 
	C200.413788,326.534576 195.454422,326.696808 190.507370,327.037445 
	C184.861282,327.426239 179.226151,327.973999 173.586273,328.452667 
	C174.044357,329.539337 174.550369,329.935608 175.089783,329.988037 
	C182.161880,330.675079 189.226807,331.633972 196.316833,331.897797 
	C211.250732,332.453430 226.199509,332.966248 241.140244,332.916046 
	C293.035980,332.741638 344.931213,332.355133 396.825867,331.951111 
	C404.445282,331.891815 412.066498,331.392731 419.674072,330.899414 
	C421.966370,330.750732 424.215363,329.934204 426.484222,329.423584 
	C426.449463,329.075592 426.414734,328.727600 426.379974,328.379608 
	C421.202118,327.918732 416.024231,327.457855 411.110291,326.262482 
	C411.080078,323.814392 411.049866,321.366333 410.885071,318.518433 
	C410.744202,318.260773 410.536682,318.079315 409.990601,317.667206 
	C409.990601,317.667206 409.801971,317.303192 409.899811,316.630890 
	C409.376465,312.799896 407.396088,315.626709 405.353973,315.829285 
	C404.923157,315.797577 404.492310,315.765869 403.848328,315.081787 
z"/>
<path fill="#F8F7FB" opacity="1.000000" stroke="none" 
	d="
M356.010620,71.995316 
	C358.333221,74.805374 361.738220,77.269974 362.766876,80.493004 
	C365.405243,88.759567 367.661896,97.273216 368.805939,105.856712 
	C369.983459,114.691704 369.663086,123.726189 370.001068,132.673264 
	C370.552490,147.271118 374.429871,160.891586 383.421112,172.496048 
	C390.188721,181.230621 397.735504,189.376480 405.149719,197.591019 
	C413.097839,206.397079 420.477478,215.367935 422.508911,227.657425 
	C423.056396,230.969299 425.296021,233.974533 426.533813,237.206711 
	C427.794678,240.499130 426.800110,242.097900 422.935486,242.052948 
	C410.284729,241.905792 397.626770,242.192169 384.980927,241.902924 
	C379.951843,241.787888 376.438019,242.672852 375.706848,248.910645 
	C374.929016,249.279495 374.506256,249.156387 374.080109,248.615585 
	C372.845032,245.325241 371.613403,242.452621 370.345215,239.246521 
	C370.306091,238.225662 370.303467,237.538284 370.428589,236.804260 
	C370.556335,236.757614 370.604156,236.386002 370.604156,236.386002 
	C370.604156,236.386002 370.289886,236.181747 370.237732,235.725632 
	C370.234222,232.824402 370.282867,230.379303 370.557678,227.649567 
	C371.522217,224.094650 372.260590,220.824371 373.293243,217.331818 
	C377.011505,212.731888 377.808716,204.152832 372.163879,198.958847 
	C366.568420,193.810349 360.636719,193.018784 353.729156,195.387711 
	C347.205231,197.625076 344.191925,202.111343 343.907471,208.873627 
	C343.676819,214.356552 342.933624,219.820755 342.789429,225.303055 
	C342.731567,227.502304 343.667999,229.727707 343.916199,232.236267 
	C342.440491,232.685623 341.200439,232.839920 339.884949,232.635681 
	C339.694183,230.799286 339.490570,229.322250 339.477264,227.843491 
	C339.324799,210.889908 339.201233,193.936035 339.189636,176.697601 
	C339.873566,175.333435 340.437927,174.253922 341.084717,172.696320 
	C341.178864,164.130264 341.250519,156.041519 341.147797,147.955002 
	C341.128967,146.473618 340.400970,145.001236 339.983826,143.178055 
	C339.833893,141.520508 339.193512,139.992188 339.647644,138.933273 
	C343.098938,130.885849 342.987457,123.000183 339.279510,115.016632 
	C339.326904,114.536942 339.221924,114.194740 339.123840,113.393272 
	C339.223572,105.295654 339.316406,97.657303 339.789673,90.008453 
	C345.988983,88.399315 341.801636,84.387779 342.919800,81.198151 
	C341.269348,81.557159 340.340118,81.759293 339.316833,81.539047 
	C339.121094,79.102760 339.019440,77.088852 338.941772,74.706268 
	C338.112488,69.934662 334.581329,68.433990 331.051727,66.660538 
	C335.223297,65.210762 339.477539,68.095284 342.032166,73.840996 
	C346.660492,73.229881 351.335541,72.612602 356.010620,71.995316 
M351.520752,90.233406 
	C349.896667,89.812897 348.272614,89.392380 346.648529,88.971870 
	C346.619354,89.799301 346.590179,90.626732 346.561005,91.454170 
	C348.083679,91.237305 349.606354,91.020447 351.520752,90.233406 
z"/>
<path fill="#F5F4F9" opacity="1.000000" stroke="none" 
	d="
M355.868896,71.678429 
	C351.335541,72.612602 346.660492,73.229881 342.032166,73.840996 
	C339.477539,68.095284 335.223297,65.210762 330.672302,66.675629 
	C329.482483,66.990776 328.723846,66.963692 327.706329,66.668671 
	C325.309509,66.580093 323.171570,66.759460 320.563782,66.970291 
	C303.719788,66.984329 287.345642,66.966904 270.677734,66.664215 
	C265.931641,66.570076 261.479340,66.761208 256.557495,66.982590 
	C243.056763,66.994217 230.025589,66.975594 216.944092,66.627991 
	C215.930771,66.521370 214.967773,66.743729 213.618652,66.997055 
	C207.140900,68.039993 204.531693,70.557510 203.939148,76.359451 
	C203.803574,77.513428 203.692551,78.279144 203.302063,79.108414 
	C203.195328,80.097336 203.368011,81.022720 203.650238,82.407005 
	C203.679688,99.580933 203.599625,116.295952 203.120560,133.010651 
	C192.420624,134.534821 182.155197,134.980515 172.002548,131.999390 
	C172.002853,130.933807 172.003174,129.868210 172.399399,128.311371 
	C172.989105,122.724838 173.196167,117.629898 173.318024,112.532906 
	C173.322021,112.365402 172.459702,112.177200 172.001221,111.998650 
	C172.000702,110.284676 172.000198,108.570709 172.316711,106.270950 
	C177.156113,101.350525 177.151459,100.548363 173.280136,95.634987 
	C172.531921,94.685364 172.283951,93.273766 172.014862,92.029922 
	C171.584351,90.039902 171.329254,88.011925 171.000000,86.000000 
	C171.000534,85.250473 171.001068,84.500954 171.294830,83.345551 
	C171.724655,82.293076 171.861267,81.646469 171.997894,80.999870 
	C174.596191,68.738029 181.453674,59.050003 190.124893,50.324284 
	C199.726044,40.662827 211.517349,34.608288 224.248199,30.999760 
	C243.312454,25.596043 261.975952,26.783070 279.740356,37.014553 
	C289.249298,42.491283 298.619781,48.563576 309.607697,51.035229 
	C316.855835,52.665646 324.296844,53.768089 331.269257,56.201969 
	C338.191864,58.618458 344.755432,62.187504 351.217285,65.724586 
	C353.165405,66.790955 354.248047,69.438377 355.868896,71.678429 
z"/>
<path fill="#FAFAFC" opacity="1.000000" stroke="none" 
	d="
M171.721039,132.253281 
	C182.155197,134.980515 192.420624,134.534821 203.219528,133.461639 
	C203.783508,137.598221 203.849503,141.283508 203.883636,145.439590 
	C203.879990,166.602875 203.908234,187.295364 203.892410,208.424713 
	C203.743179,210.903061 203.638016,212.944504 203.194458,214.978653 
	C202.528381,214.922150 202.108704,214.986954 201.886246,214.807388 
	C189.970367,205.188889 175.411636,200.642044 161.941742,194.012421 
	C160.914764,193.506973 159.668976,193.446075 157.171219,192.861969 
	C160.951950,209.693954 164.468430,225.349503 167.984924,241.005051 
	C165.537552,239.878006 163.138351,238.624985 160.627289,237.664444 
	C158.681335,236.920090 156.603485,236.111618 154.570496,236.073959 
	C145.423615,235.904541 136.271805,236.011673 127.121841,235.988831 
	C125.545120,235.984894 123.968758,235.834564 122.376862,235.751068 
	C124.567764,222.459274 127.950279,210.140152 134.983246,199.232285 
	C141.157333,189.656464 148.282654,180.681580 154.242950,170.983475 
	C161.631622,158.961288 169.109207,146.847244 171.721039,132.253281 
z"/>
<path fill="#5D4AD7" opacity="1.000000" stroke="none" 
	d="
M364.944366,287.023285 
	C367.015900,294.841675 366.976257,294.735138 374.749878,291.843262 
	C380.809967,289.588867 386.890930,287.283844 393.132935,285.653290 
	C400.200012,283.807190 404.991241,285.592285 407.151703,289.939117 
	C409.608429,294.882050 407.919647,302.116150 402.750244,306.020782 
	C398.668365,309.104004 394.050812,311.478088 389.144836,314.409363 
	C388.311829,314.744751 388.038818,314.897949 387.424347,315.135803 
	C384.512115,314.288849 381.975037,313.417267 379.969635,312.728302 
	C378.621582,315.867676 377.296661,318.953156 375.643921,322.202759 
	C373.808563,322.927399 371.967651,324.341034 370.849823,323.904236 
	C365.306824,321.738098 360.295471,324.875488 354.825500,324.718628 
	C353.338623,322.692566 352.054321,320.924072 350.933777,318.936523 
	C351.637177,318.522278 352.176849,318.327057 353.989746,317.671326 
	C350.674072,316.503845 348.381409,315.696594 345.909546,314.595520 
	C343.881653,313.456726 342.032959,312.611725 340.184265,311.766724 
	C340.028961,312.163849 339.873657,312.560944 339.718353,312.958038 
	C341.779449,313.673859 343.840546,314.389648 346.086945,315.345398 
	C346.290009,316.045593 346.307739,316.505859 346.325500,316.966095 
	C344.574615,316.965790 342.823700,316.965454 340.881104,316.713867 
	C339.530060,316.439758 338.370697,316.416931 336.754089,316.354309 
	C332.450684,316.667755 328.604553,317.021027 324.449402,317.149048 
	C322.802032,315.450012 321.348389,314.064453 320.143799,312.488464 
	C311.227875,300.823273 312.273010,290.876923 323.247101,284.659790 
	C324.638000,284.355835 325.769684,284.274506 326.983643,284.544312 
	C331.026001,286.286621 334.986053,287.677826 339.110779,289.369019 
	C341.167511,290.464630 343.059631,291.260223 345.034180,292.292175 
	C345.397278,292.697540 345.678009,292.866547 346.147217,293.302124 
	C347.529724,294.078339 348.723755,294.587952 350.002563,295.250397 
	C350.210480,295.439911 350.333588,295.476532 350.456665,295.513184 
	C350.334015,295.316925 350.211395,295.120667 349.915558,294.628998 
	C348.508545,293.873260 347.274750,293.412933 345.962311,292.714844 
	C345.605316,292.304077 345.326904,292.131073 344.847992,291.682129 
	C342.786194,290.581726 340.924896,289.757324 338.897949,288.687317 
	C339.385223,288.081360 340.128143,287.304504 340.677673,287.423126 
	C348.808868,289.178833 356.888336,289.175568 364.944366,287.023285 
M353.336121,296.521912 
	C353.090546,296.459381 352.844940,296.396851 352.599365,296.334351 
	C352.755188,296.482269 352.911011,296.630188 353.336121,296.521912 
z"/>
<path fill="#DEE5FC" opacity="1.000000" stroke="none" 
	d="
M203.492325,313.033569 
	C186.081848,310.540924 171.489532,302.756470 160.149689,289.317261 
	C159.028809,287.988831 159.999664,284.895447 159.999664,282.413208 
	C156.256531,285.317474 154.174194,283.038879 151.950714,279.578369 
	C146.716400,271.431976 141.123627,263.515961 135.675888,255.506714 
	C135.900375,254.922333 136.124878,254.337952 136.349380,253.753571 
	C148.276886,253.179031 160.204391,252.604477 172.899231,252.181122 
	C176.848801,256.289276 179.505905,260.866913 183.311768,264.086731 
	C194.688477,273.711548 194.571899,276.711761 203.630768,270.449036 
	C203.656937,284.949554 203.574631,298.991577 203.492325,313.033569 
z"/>
<path fill="#F9DCE8" opacity="1.000000" stroke="none" 
	d="
M203.522263,269.990509 
	C194.571899,276.711761 194.688477,273.711548 183.311768,264.086731 
	C179.505905,260.866913 176.848801,256.289276 173.371384,252.180923 
	C171.563614,248.506287 170.051041,244.983032 168.261703,241.232422 
	C164.468430,225.349503 160.951950,209.693954 157.171219,192.861969 
	C159.668976,193.446075 160.914764,193.506973 161.941742,194.012421 
	C175.411636,200.642044 189.970367,205.188889 201.886246,214.807388 
	C202.108704,214.986954 202.528381,214.922150 203.316315,215.434296 
	C203.691803,233.928345 203.607040,251.959427 203.522263,269.990509 
z"/>
<path fill="#E0DCF4" opacity="1.000000" stroke="none" 
	d="
M410.846375,326.996948 
	C416.024231,327.457855 421.202118,327.918732 426.379974,328.379608 
	C426.414734,328.727600 426.449463,329.075592 426.484222,329.423584 
	C424.215363,329.934204 421.966370,330.750732 419.674072,330.899414 
	C412.066498,331.392731 404.445282,331.891815 396.825867,331.951111 
	C344.931213,332.355133 293.035980,332.741638 241.140244,332.916046 
	C226.199509,332.966248 211.250732,332.453430 196.316833,331.897797 
	C189.226807,331.633972 182.161880,330.675079 175.089783,329.988037 
	C174.550369,329.935608 174.044357,329.539337 173.586273,328.452667 
	C179.226151,327.973999 184.861282,327.426239 190.507370,327.037445 
	C195.454422,326.696808 200.413788,326.534576 206.081390,326.312012 
	C208.454666,327.216553 210.104279,328.847351 211.775452,328.869751 
	C224.193817,329.036133 236.616455,328.883209 249.501038,328.880615 
	C270.967438,328.978058 291.970551,329.025391 313.226257,329.384399 
	C317.116241,329.419891 320.753601,329.143707 324.698700,329.120575 
	C329.653839,329.548920 334.301239,329.724213 339.095398,330.196014 
	C342.091125,333.921906 341.668152,329.196320 343.438507,328.981995 
	C344.611115,329.027161 345.393707,329.055664 346.300659,329.297424 
	C346.934845,329.299286 347.444672,329.087891 347.957458,328.668365 
	C347.960358,328.460236 347.984406,328.044678 348.365204,328.023560 
	C350.778168,327.343781 352.810333,326.685089 355.201508,326.061462 
	C356.560303,326.582764 357.565002,327.498444 358.559052,327.487000 
	C366.058441,327.400604 373.555786,327.131958 381.346558,327.042114 
	C382.426300,327.425568 383.213257,327.687195 384.008362,327.965546 
	C384.016510,327.982300 384.049927,327.998779 384.179199,328.213806 
	C384.827087,328.294464 385.345673,328.160095 386.275146,328.015442 
	C389.490173,328.289886 392.294342,328.574615 395.552338,328.922913 
	C400.952881,328.323334 405.899628,327.660126 410.846375,326.996948 
z"/>
<path fill="#857ADB" opacity="1.000000" stroke="none" 
	d="
M249.037750,328.830505 
	C236.616455,328.883209 224.193817,329.036133 211.775452,328.869751 
	C210.104279,328.847351 208.454666,327.216553 206.481125,326.159363 
	C205.319580,321.968567 204.471970,317.948883 203.558350,313.481384 
	C203.574631,298.991577 203.656937,284.949554 203.630768,270.449036 
	C203.607040,251.959427 203.691803,233.928345 203.654724,215.441620 
	C203.638016,212.944504 203.743179,210.903061 204.211212,208.435303 
	C204.998444,208.018188 205.422821,208.027405 205.924683,208.481705 
	C206.245392,217.684509 206.616394,226.440964 206.703094,235.200241 
	C206.847290,249.769104 206.809067,264.339783 206.810364,279.310852 
	C206.589294,281.817291 206.405502,283.922638 206.166870,286.263458 
	C206.112045,286.498962 206.251450,286.962067 206.174377,287.427063 
	C206.071762,288.724274 206.023331,289.556519 206.024185,290.388672 
	C206.032974,299.050385 205.911865,307.715179 206.106323,316.372864 
	C206.272079,323.753448 208.872391,326.095673 216.079407,326.119904 
	C227.068466,326.156891 238.057388,326.233582 249.037460,326.611084 
	C249.031616,327.562683 249.034683,328.196594 249.037750,328.830505 
z"/>
<path fill="#F3C2B6" opacity="1.000000" stroke="none" 
	d="
M379.218353,257.822083 
	C383.124084,258.884155 384.962311,261.593018 384.778900,265.479126 
	C384.572021,269.863556 384.516998,274.357819 383.456024,278.567413 
	C382.577667,282.052338 379.889740,284.337433 375.645203,283.992889 
	C371.511963,283.657379 371.607361,280.210846 370.520142,277.628845 
	C370.149384,276.748352 370.166290,275.704620 370.359070,274.234314 
	C371.938385,273.155457 373.164673,272.577759 373.617737,272.364319 
	C372.568756,269.034302 370.725494,266.211395 371.292297,264.008545 
	C371.733276,262.294739 375.176788,261.353516 377.337128,260.037689 
	C375.607971,259.422943 373.862122,258.802246 372.116302,258.181580 
	C372.232941,257.841705 372.349609,257.501801 372.466248,257.161926 
	C374.716949,257.381989 376.967651,257.602020 379.218353,257.822083 
z"/>
<path fill="#F3629E" opacity="1.000000" stroke="none" 
	d="
M364.244293,273.585266 
	C364.423737,277.079224 364.603149,280.573181 364.492065,284.667084 
	C363.130157,285.546814 362.058838,285.826599 360.594055,286.054199 
	C350.794342,284.623993 341.388000,283.245972 332.264832,281.640778 
	C342.688110,278.584869 352.828278,275.756134 363.298523,273.070282 
	C363.833862,273.337219 364.039062,273.461243 364.244293,273.585266 
z"/>
<path fill="#433073" opacity="1.000000" stroke="none" 
	d="
M364.655853,273.509033 
	C364.039062,273.461243 363.833862,273.337219 363.256378,272.774231 
	C363.444489,271.185913 364.377472,270.069702 364.483124,268.880035 
	C364.669434,266.782318 364.350952,264.639801 364.252716,262.171875 
	C365.114807,259.376038 366.201416,256.976929 366.767853,254.460709 
	C367.679260,250.412140 370.084656,248.739487 374.083527,249.033295 
	C374.506256,249.156387 374.929016,249.279495 375.669617,249.308655 
	C377.604919,249.486542 379.222351,249.758362 381.608917,250.159454 
	C380.873077,252.612885 380.195679,254.871323 379.368347,257.475922 
	C376.967651,257.602020 374.716949,257.381989 372.466248,257.161926 
	C372.349609,257.501801 372.232941,257.841705 372.116302,258.181580 
	C373.862122,258.802246 375.607971,259.422943 377.337128,260.037689 
	C375.176788,261.353516 371.733276,262.294739 371.292297,264.008545 
	C370.725494,266.211395 372.568756,269.034302 373.617737,272.364319 
	C373.164673,272.577759 371.938385,273.155457 370.353821,273.829590 
	C369.780579,273.847107 369.565674,273.768188 369.005188,273.518463 
	C368.659637,273.347656 368.429718,273.512299 368.429718,273.512299 
	C367.308960,273.485779 366.188171,273.459259 364.655853,273.509033 
z"/>
<path fill="#F8619E" opacity="1.000000" stroke="none" 
	d="
M410.978333,326.629700 
	C405.899628,327.660126 400.952881,328.323334 395.527283,328.535400 
	C392.895294,319.005646 394.860504,316.312805 404.061493,315.734161 
	C404.492310,315.765869 404.923157,315.797577 405.996582,315.929779 
	C407.693451,316.454590 408.747711,316.878906 409.801971,317.303192 
	C409.801971,317.303192 409.990601,317.667206 410.161987,318.037476 
	C410.478149,318.690735 410.706909,318.860901 411.019653,318.918243 
	C411.049866,321.366333 411.080078,323.814392 410.978333,326.629700 
z"/>
<path fill="#F9DCE8" opacity="1.000000" stroke="none" 
	d="
M403.954895,315.407959 
	C394.860504,316.312805 392.895294,319.005646 395.073486,328.471802 
	C392.294342,328.574615 389.490173,328.289886 385.974091,328.007019 
	C384.858124,328.005554 384.454010,328.002167 384.049927,327.998779 
	C384.049927,327.998779 384.016510,327.982300 384.003296,327.588867 
	C384.186584,326.596710 384.236084,325.592499 384.601654,325.459930 
	C390.288849,323.397675 389.725586,319.479248 387.799500,315.111206 
	C388.038818,314.897949 388.311829,314.744751 388.849976,314.637177 
	C390.585175,314.886261 393.035797,315.852844 393.444122,315.302979 
	C396.965149,310.561005 400.380768,313.675873 403.954895,315.407959 
z"/>
<path fill="#857ADB" opacity="1.000000" stroke="none" 
	d="
M360.987488,286.106384 
	C362.058838,285.826599 363.130157,285.546814 364.488220,285.083679 
	C364.857422,285.370026 364.939911,285.839752 364.983398,286.666382 
	C356.888336,289.175568 348.808868,289.178833 340.677673,287.423126 
	C340.128143,287.304504 339.385223,288.081360 338.867249,288.721069 
	C339.002197,289.000458 338.946136,289.069000 338.946136,289.069031 
	C334.986053,287.677826 331.026001,286.286621 327.319336,284.482574 
	C328.022644,284.015198 328.472534,283.960693 329.121643,284.193665 
	C332.195526,284.813690 335.062897,285.326691 337.946320,285.443848 
	C345.623016,285.755707 353.306641,285.897186 360.987488,286.106384 
z"/>
<path fill="#F9F9FC" opacity="1.000000" stroke="none" 
	d="
M170.705688,86.288406 
	C171.329254,88.011925 171.584351,90.039902 172.014862,92.029922 
	C172.283951,93.273766 172.531921,94.685364 173.280136,95.634987 
	C177.151459,100.548363 177.156113,101.350525 172.316559,105.842575 
	C171.470047,99.525604 170.940704,93.051201 170.705688,86.288406 
z"/>
<path fill="#FAFAFC" opacity="1.000000" stroke="none" 
	d="
M172.000473,112.465652 
	C172.459702,112.177200 173.322021,112.365402 173.318024,112.532906 
	C173.196167,117.629898 172.989105,122.724838 172.399780,127.911774 
	C172.002747,122.979851 172.001236,117.956245 172.000473,112.465652 
z"/>
<path fill="#F9DCE8" opacity="1.000000" stroke="none" 
	d="
M409.850891,316.967041 
	C408.747711,316.878906 407.693451,316.454590 406.320251,315.903992 
	C407.396088,315.626709 409.376465,312.799896 409.850891,316.967041 
z"/>
<path fill="#F9F9FC" opacity="1.000000" stroke="none" 
	d="
M171.752319,81.166916 
	C171.861267,81.646469 171.724655,82.293076 171.295319,82.970795 
	C171.170639,82.445923 171.338684,81.889938 171.752319,81.166916 
z"/>
<path fill="#F3629E" opacity="1.000000" stroke="none" 
	d="
M368.433716,273.611816 
	C368.429718,273.512299 368.659637,273.347656 368.671021,273.439209 
	C368.682404,273.530762 368.437714,273.711334 368.433716,273.611816 
z"/>
<path fill="#F9DCE8" opacity="1.000000" stroke="none" 
	d="
M410.952362,318.718323 
	C410.706909,318.860901 410.478149,318.690735 410.297974,318.190887 
	C410.536682,318.079315 410.744202,318.260773 410.952362,318.718323 
z"/>
<path fill="#F8619E" opacity="1.000000" stroke="none" 
	d="
M374.080109,248.615585 
	C370.084656,248.739487 367.679260,250.412140 366.767853,254.460709 
	C366.201416,256.976929 365.114807,259.376038 363.882324,262.352844 
	C361.372253,263.332825 359.241486,263.787720 356.582153,264.355438 
	C357.585449,262.607849 358.158447,261.609741 358.731476,260.611633 
	C358.395264,260.235962 358.059082,259.860321 357.722900,259.484650 
	C354.837952,261.470795 351.414398,262.986755 349.182617,265.543121 
	C344.834015,270.524139 339.034973,269.676056 334.027527,269.190674 
	C328.247009,268.630402 322.678802,265.879486 316.733612,263.969360 
	C315.678345,263.226471 314.907867,262.593964 314.277130,261.649902 
	C315.797363,258.367035 317.016968,255.307281 318.592682,252.443436 
	C321.636383,246.911545 324.880920,241.490173 328.279907,235.953491 
	C328.750244,235.489059 328.982880,235.094147 329.641052,234.699600 
	C332.052246,234.420410 334.037872,234.140839 336.287964,233.881897 
	C336.725952,233.868362 336.899475,233.834229 337.424408,233.823181 
	C338.244629,233.819290 338.713409,233.792328 339.377869,233.886810 
	C339.573517,234.008255 339.986542,234.212128 339.972656,234.589325 
	C341.364929,242.486908 345.952850,247.076889 352.955719,247.969284 
	C359.235962,248.769592 362.112579,246.807877 366.407990,239.045135 
	C367.976257,239.223709 369.179016,239.401840 370.381744,239.579987 
	C371.613403,242.452621 372.845032,245.325241 374.080109,248.615585 
z"/>
<path fill="#F3C2B6" opacity="1.000000" stroke="none" 
	d="
M366.042450,239.044693 
	C362.112579,246.807877 359.235962,248.769592 352.955719,247.969284 
	C345.952850,247.076889 341.364929,242.486908 339.982361,234.276337 
	C340.001526,233.378006 339.997162,233.169846 339.996216,232.981033 
	C339.999603,233.000366 339.960419,232.994232 339.960419,232.994232 
	C341.200439,232.839920 342.440491,232.685623 344.215515,232.370789 
	C347.257690,233.996933 349.764832,235.783585 352.766876,237.922928 
	C352.501831,233.617004 352.298187,230.164078 352.074158,226.712479 
	C351.871033,223.582596 352.931427,220.224228 349.167786,217.973572 
	C348.179291,217.382446 348.354156,214.391937 348.584198,212.578049 
	C348.633698,212.187943 351.274994,212.269455 352.641510,211.862228 
	C353.938049,211.475861 355.420135,211.011307 356.301086,210.086319 
	C357.832855,208.477966 358.964630,206.488678 360.141479,204.831757 
	C363.432281,207.076019 366.231232,209.595474 369.504089,211.044327 
	C372.746643,212.479767 373.595276,214.436020 372.998962,217.554077 
	C372.260590,220.824371 371.522217,224.094650 370.197693,227.742493 
	C366.054657,230.681976 362.497742,233.243927 358.358215,236.225510 
	C361.523254,237.386703 363.782837,238.215698 366.042450,239.044693 
z"/>
<path fill="#3D2F75" opacity="1.000000" stroke="none" 
	d="
M373.293243,217.331818 
	C373.595276,214.436020 372.746643,212.479767 369.504089,211.044327 
	C366.231232,209.595474 363.432281,207.076019 360.141479,204.831757 
	C358.964630,206.488678 357.832855,208.477966 356.301086,210.086319 
	C355.420135,211.011307 353.938049,211.475861 352.641510,211.862228 
	C351.274994,212.269455 348.633698,212.187943 348.584198,212.578049 
	C348.354156,214.391937 348.179291,217.382446 349.167786,217.973572 
	C352.931427,220.224228 351.871033,223.582596 352.074158,226.712479 
	C352.298187,230.164078 352.501831,233.617004 352.766876,237.922928 
	C349.764832,235.783585 347.257690,233.996933 344.451172,232.075745 
	C343.667999,229.727707 342.731567,227.502304 342.789429,225.303055 
	C342.933624,219.820755 343.676819,214.356552 343.907471,208.873627 
	C344.191925,202.111343 347.205231,197.625076 353.729156,195.387711 
	C360.636719,193.018784 366.568420,193.810349 372.163879,198.958847 
	C377.808716,204.152832 377.011505,212.731888 373.293243,217.331818 
z"/>
<path fill="#AEBBF9" opacity="1.000000" stroke="none" 
	d="
M270.971497,66.949478 
	C287.345642,66.966904 303.719788,66.984329 320.995544,67.000320 
	C323.919830,66.978127 325.942535,66.957367 327.965210,66.936600 
	C328.723846,66.963692 329.482483,66.990776 330.620544,67.002777 
	C334.581329,68.433990 338.112488,69.934662 338.685944,74.896057 
	C337.925812,76.651978 337.445496,77.849442 336.729645,79.029816 
	C336.494080,79.012718 336.021393,78.994041 336.030640,78.577194 
	C335.940643,72.781403 333.079224,70.091766 326.197815,70.041023 
	C309.147919,69.915291 292.095764,70.100288 274.573456,70.111725 
	C254.834839,70.051010 235.567184,70.013504 216.299805,70.069794 
	C214.532501,70.074959 212.766953,70.679665 210.686005,71.142067 
	C209.244583,72.852272 208.117737,74.426384 206.976868,76.372887 
	C206.957703,77.490028 206.952560,78.234772 206.723663,78.996155 
	C206.499908,79.012787 206.054871,79.070450 206.009613,78.741531 
	C205.297455,77.598816 204.630569,76.785011 203.963684,75.971199 
	C204.531693,70.557510 207.140900,68.039993 213.991943,67.023399 
	C215.499008,66.998169 216.246704,66.977562 216.994400,66.956963 
	C230.025589,66.975594 243.056763,66.994217 257.018188,67.011307 
	C262.289459,66.989677 266.630493,66.969574 270.971497,66.949478 
z"/>
<path fill="#9AA1E7" opacity="1.000000" stroke="none" 
	d="
M336.965210,79.046906 
	C337.445496,77.849442 337.925812,76.651978 338.661957,75.264725 
	C339.019440,77.088852 339.121094,79.102760 339.203125,81.978523 
	C339.258759,85.233238 339.333984,87.626091 339.409241,90.018951 
	C339.316406,97.657303 339.223572,105.295654 339.097229,113.719414 
	C339.084808,114.721260 339.105957,114.937691 339.127136,115.154129 
	C342.987457,123.000183 343.098938,130.885849 339.647644,138.933273 
	C339.193512,139.992188 339.833893,141.520508 339.886688,143.671997 
	C339.802185,152.612198 339.739166,160.712646 339.848969,168.810730 
	C339.868774,170.270233 340.599670,171.720093 341.002289,173.174408 
	C340.437927,174.253922 339.873566,175.333435 338.866455,176.702682 
	C337.993805,176.993713 337.563995,176.995010 336.869965,176.749634 
	C336.439636,168.643860 336.273468,160.784760 336.154266,152.538757 
	C336.424103,149.463287 336.647003,146.774734 336.915619,143.639435 
	C336.934387,141.102844 336.907440,139.012970 336.880554,136.459381 
	C336.908813,117.012749 336.937012,98.029823 336.965210,79.046906 
z"/>
<path fill="#9092EB" opacity="1.000000" stroke="none" 
	d="
M337.134155,176.996307 
	C337.563995,176.995010 337.993805,176.993713 338.746826,176.987335 
	C339.201233,193.936035 339.324799,210.889908 339.477264,227.843491 
	C339.490570,229.322250 339.694183,230.799286 339.884949,232.635681 
	C339.960419,232.994232 339.999603,233.000366 339.800232,233.038147 
	C339.396271,233.266235 339.256714,233.496048 339.182190,233.765381 
	C338.713409,233.792328 338.244629,233.819290 337.386902,233.608185 
	C336.997986,233.370148 336.857056,232.955521 336.883789,232.490570 
	C336.970184,224.349457 337.029846,216.673294 337.244476,208.904877 
	C337.292694,208.541107 337.185944,208.269638 337.040222,207.531036 
	C337.045563,197.041367 337.089844,187.018845 337.134155,176.996307 
z"/>
<path fill="#433073" opacity="1.000000" stroke="none" 
	d="
M366.407990,239.045135 
	C363.782837,238.215698 361.523254,237.386703 358.358215,236.225510 
	C362.497742,233.243927 366.054657,230.681976 369.971558,228.027100 
	C370.282867,230.379303 370.234222,232.824402 370.163635,235.892853 
	C370.141693,236.516190 370.300842,236.850906 370.300842,236.850906 
	C370.303467,237.538284 370.306091,238.225662 370.345215,239.246521 
	C369.179016,239.401840 367.976257,239.223709 366.407990,239.045135 
z"/>
<path fill="#F5F4F9" opacity="1.000000" stroke="none" 
	d="
M339.789642,90.008453 
	C339.333984,87.626091 339.258759,85.233238 339.297180,82.400902 
	C340.340118,81.759293 341.269348,81.557159 342.919800,81.198151 
	C341.801636,84.387779 345.988983,88.399315 339.789642,90.008453 
z"/>
<path fill="#3D2F75" opacity="1.000000" stroke="none" 
	d="
M341.084717,172.696320 
	C340.599670,171.720093 339.868774,170.270233 339.848969,168.810730 
	C339.739166,160.712646 339.802185,152.612198 339.903198,144.018631 
	C340.400970,145.001236 341.128967,146.473618 341.147797,147.955002 
	C341.250519,156.041519 341.178864,164.130264 341.084717,172.696320 
z"/>
<path fill="#F5F4F9" opacity="1.000000" stroke="none" 
	d="
M351.324890,90.518494 
	C349.606354,91.020447 348.083679,91.237305 346.561005,91.454170 
	C346.590179,90.626732 346.619354,89.799301 346.648529,88.971870 
	C348.272614,89.392380 349.896667,89.812897 351.324890,90.518494 
z"/>
<path fill="#AEBBF9" opacity="1.000000" stroke="none" 
	d="
M339.279510,115.016632 
	C339.105957,114.937691 339.084808,114.721260 339.090332,114.178680 
	C339.221924,114.194740 339.326904,114.536942 339.279510,115.016632 
z"/>
<path fill="#F3C2B6" opacity="1.000000" stroke="none" 
	d="
M370.428589,236.804260 
	C370.300842,236.850906 370.141693,236.516190 370.215790,236.348969 
	C370.289886,236.181747 370.604156,236.386002 370.604156,236.386002 
	C370.604156,236.386002 370.556335,236.757614 370.428589,236.804260 
z"/>
<path fill="#9DA6F6" opacity="1.000000" stroke="none" 
	d="
M203.939148,76.359451 
	C204.630569,76.785011 205.297455,77.598816 206.022430,79.065636 
	C206.131607,80.149437 206.182693,80.580231 206.166977,81.474365 
	C206.162537,91.953232 206.224899,101.968750 206.225067,112.439835 
	C206.211899,116.265991 206.260956,119.636604 206.229889,123.376396 
	C206.206039,124.494202 206.262314,125.242828 206.251236,126.438248 
	C206.427322,130.265152 206.670761,133.645264 206.905136,137.424301 
	C206.536102,140.229782 206.176147,142.636337 205.499603,145.035583 
	C204.760498,145.008438 204.337997,144.988617 203.915497,144.968781 
	C203.849503,141.283508 203.783508,137.598221 203.618530,133.461960 
	C203.599625,116.295952 203.679688,99.580933 203.764923,82.053337 
	C203.707230,80.508797 203.644363,79.776833 203.581512,79.044868 
	C203.692551,78.279144 203.803574,77.513428 203.939148,76.359451 
z"/>
<path fill="#F8F7FB" opacity="1.000000" stroke="none" 
	d="
M270.677734,66.664215 
	C266.630493,66.969574 262.289459,66.989677 257.487732,66.981056 
	C261.479340,66.761208 265.931641,66.570076 270.677734,66.664215 
z"/>
<path fill="#F8F7FB" opacity="1.000000" stroke="none" 
	d="
M327.706329,66.668671 
	C325.942535,66.957367 323.919830,66.978127 321.465393,66.968857 
	C323.171570,66.759460 325.309509,66.580093 327.706329,66.668671 
z"/>
<path fill="#FAFAFC" opacity="1.000000" stroke="none" 
	d="
M203.302063,79.108414 
	C203.644363,79.776833 203.707230,80.508797 203.655396,81.594429 
	C203.368011,81.022720 203.195328,80.097336 203.302063,79.108414 
z"/>
<path fill="#F8F7FB" opacity="1.000000" stroke="none" 
	d="
M216.944092,66.627983 
	C216.246704,66.977562 215.499008,66.998169 214.378036,66.992432 
	C214.967773,66.743729 215.930771,66.521370 216.944092,66.627983 
z"/>
<path fill="#9092EB" opacity="1.000000" stroke="none" 
	d="
M203.883636,145.439590 
	C204.337997,144.988617 204.760498,145.008438 205.551147,145.498001 
	C206.003021,165.656860 206.086731,185.345963 206.106369,205.407166 
	C205.977249,206.531693 205.912216,207.284164 205.847183,208.036621 
	C205.422821,208.027405 204.998444,208.018188 204.255280,207.998413 
	C203.908234,187.295364 203.879990,166.602875 203.883636,145.439590 
z"/>
<path fill="#DAE0FE" opacity="1.000000" stroke="none" 
	d="
M314.137390,261.961487 
	C314.907867,262.593964 315.678345,263.226471 316.700134,264.332123 
	C316.020752,267.115540 315.105499,269.432190 314.156464,271.734894 
	C310.740204,280.024261 314.168396,285.133728 322.987854,284.882416 
	C312.273010,290.876923 311.227875,300.823273 320.143799,312.488464 
	C321.348389,314.064453 322.802032,315.450012 324.267975,317.469177 
	C323.694397,320.636658 322.993195,323.258728 321.793304,325.896393 
	C299.869202,325.989258 278.443787,326.066528 256.599823,326.101440 
	C254.784531,325.975098 253.387756,325.891144 252.036865,325.476318 
	C256.712036,320.285736 261.255188,315.340454 265.986542,310.582306 
	C280.823975,295.660828 295.737671,280.815186 310.603546,265.921936 
	C311.851501,264.671661 312.962677,263.284851 314.137390,261.961487 
z"/>
<path fill="#F9C4B8" opacity="1.000000" stroke="none" 
	d="
M323.247101,284.659790 
	C314.168396,285.133728 310.740204,280.024261 314.156464,271.734894 
	C315.105499,269.432190 316.020752,267.115540 316.984924,264.442566 
	C322.678802,265.879486 328.247009,268.630402 334.027527,269.190674 
	C339.034973,269.676056 344.834015,270.524139 349.182617,265.543121 
	C351.414398,262.986755 354.837952,261.470795 357.722900,259.484650 
	C358.059082,259.860321 358.395264,260.235962 358.731476,260.611633 
	C358.158447,261.609741 357.585449,262.607849 356.582153,264.355438 
	C359.241486,263.787720 361.372253,263.332825 363.873383,262.696991 
	C364.350952,264.639801 364.669434,266.782318 364.483124,268.880035 
	C364.377472,270.069702 363.444489,271.185913 362.926270,272.631287 
	C352.828278,275.756134 342.688110,278.584869 331.925049,281.689178 
	C330.508911,282.611908 329.715698,283.259064 328.922455,283.906189 
	C328.472534,283.960693 328.022644,284.015198 327.237030,284.131409 
	C325.769684,284.274506 324.638000,284.355835 323.247101,284.659790 
z"/>
<path fill="#F3629E" opacity="1.000000" stroke="none" 
	d="
M322.291992,325.880798 
	C322.993195,323.258728 323.694397,320.636658 324.577026,317.694458 
	C328.604553,317.021027 332.450684,316.667755 336.918579,316.636658 
	C340.241333,321.029541 340.837708,325.329254 338.948639,329.899475 
	C334.301239,329.724213 329.653839,329.548920 324.594666,328.822174 
	C323.552612,327.474060 322.922302,326.677429 322.291992,325.880798 
z"/>
<path fill="#F3C2B6" opacity="1.000000" stroke="none" 
	d="
M387.424347,315.135803 
	C389.725586,319.479248 390.288849,323.397675 384.601654,325.459930 
	C384.236084,325.592499 384.186584,326.596710 383.995148,327.572113 
	C383.213257,327.687195 382.426300,327.425568 381.205261,326.743530 
	C379.171356,324.894958 377.571533,323.466797 375.971741,322.038605 
	C377.296661,318.953156 378.621582,315.867676 379.969635,312.728302 
	C381.975037,313.417267 384.512115,314.288849 387.424347,315.135803 
z"/>
<path fill="#F5F4F9" opacity="1.000000" stroke="none" 
	d="
M375.643921,322.202759 
	C377.571533,323.466797 379.171356,324.894958 380.912445,326.621704 
	C373.555786,327.131958 366.058441,327.400604 358.559052,327.487000 
	C357.565002,327.498444 356.560303,326.582764 355.239105,325.797150 
	C354.954468,325.324005 354.991272,325.150146 355.028046,324.976257 
	C360.295471,324.875488 365.306824,321.738098 370.849823,323.904236 
	C371.967651,324.341034 373.808563,322.927399 375.643921,322.202759 
z"/>
<path fill="#F3C2B6" opacity="1.000000" stroke="none" 
	d="
M354.825500,324.718628 
	C354.991272,325.150146 354.954468,325.324005 354.880096,325.762146 
	C352.810333,326.685089 350.778168,327.343781 348.468994,327.727051 
	C347.358704,324.305176 346.525421,321.158722 346.030212,317.932556 
	C347.835541,318.287109 349.302795,318.721344 350.770020,319.155579 
	C352.054321,320.924072 353.338623,322.692566 354.825500,324.718628 
z"/>
<path fill="#F9DCE8" opacity="1.000000" stroke="none" 
	d="
M339.095398,330.196014 
	C340.837708,325.329254 340.241333,321.029541 337.375854,316.676483 
	C338.370697,316.416931 339.530060,316.439758 340.965393,316.971375 
	C341.525330,317.700134 341.809265,317.920044 342.073364,318.543396 
	C342.385162,322.286377 342.716858,325.625854 343.048523,328.965363 
	C341.668152,329.196320 342.091125,333.921906 339.095398,330.196014 
z"/>
<path fill="#857ADB" opacity="1.000000" stroke="none" 
	d="
M342.093231,318.139954 
	C341.809265,317.920044 341.525330,317.700134 341.157104,317.222687 
	C342.823700,316.965454 344.574615,316.965790 346.325500,316.966095 
	C346.307739,316.505859 346.290009,316.045593 346.134705,315.292236 
	C345.997131,314.999084 346.088745,314.889313 346.088745,314.889313 
	C348.381409,315.696594 350.674072,316.503845 353.989746,317.671326 
	C352.176849,318.327057 351.637177,318.522278 350.933777,318.936523 
	C349.302795,318.721344 347.835541,318.287109 345.677917,317.902374 
	C344.022766,318.014587 343.057983,318.077271 342.093231,318.139954 
z"/>
<path fill="#857ADB" opacity="1.000000" stroke="none" 
	d="
M345.949371,315.052277 
	C343.840546,314.389648 341.779449,313.673859 339.718353,312.958038 
	C339.873657,312.560944 340.028961,312.163849 340.184265,311.766724 
	C342.032959,312.611725 343.881653,313.456726 345.909546,314.595520 
	C346.088745,314.889313 345.997131,314.999084 345.949371,315.052277 
z"/>
<path fill="#857ADB" opacity="1.000000" stroke="none" 
	d="
M344.951752,292.055847 
	C343.059631,291.260223 341.167511,290.464630 339.110779,289.369019 
	C338.946136,289.069000 339.002197,289.000458 339.032898,288.966675 
	C340.924896,289.757324 342.786194,290.581726 344.822144,291.705750 
	C344.996796,292.005371 344.951752,292.055847 344.951752,292.055847 
z"/>
<path fill="#857ADB" opacity="1.000000" stroke="none" 
	d="
M346.040924,292.952637 
	C347.274750,293.412933 348.508545,293.873260 349.870911,294.670410 
	C349.999481,295.007263 349.917755,295.097534 349.917755,295.097534 
	C348.723755,294.587952 347.529724,294.078339 346.168854,293.282471 
	C346.001984,292.996246 346.040924,292.952637 346.040924,292.952637 
z"/>
<path fill="#857ADB" opacity="1.000000" stroke="none" 
	d="
M353.201477,296.650024 
	C352.911011,296.630188 352.755188,296.482269 352.599365,296.334351 
	C352.844940,296.396851 353.090546,296.459381 353.201477,296.650024 
z"/>
<path fill="#857ADB" opacity="1.000000" stroke="none" 
	d="
M345.980347,293.015900 
	C345.678009,292.866547 345.397278,292.697540 345.034180,292.292175 
	C344.951752,292.055847 344.996796,292.005371 345.022644,291.981750 
	C345.326904,292.131073 345.605316,292.304077 345.962311,292.714844 
	C346.040924,292.952637 346.001984,292.996246 345.980347,293.015900 
z"/>
<path fill="#857ADB" opacity="1.000000" stroke="none" 
	d="
M350.044128,294.965820 
	C350.211395,295.120667 350.334015,295.316925 350.456665,295.513184 
	C350.333588,295.476532 350.210480,295.439911 350.002563,295.250397 
	C349.917755,295.097534 349.999481,295.007263 350.044128,294.965820 
z"/>
<path fill="#7463DE" opacity="1.000000" stroke="none" 
	d="
M251.990982,325.807220 
	C253.387756,325.891144 254.784531,325.975098 256.915588,326.362946 
	C273.049896,326.774872 288.449890,326.892334 303.850037,326.985748 
	C309.194702,327.018158 314.539673,326.990906 319.884521,326.990906 
	C319.879791,327.153015 319.875061,327.315125 319.870300,327.477234 
	C317.571442,328.009094 315.272552,328.540924 312.973663,329.072754 
	C291.970551,329.025391 270.967438,328.978058 249.501038,328.880615 
	C249.034683,328.196594 249.031616,327.562683 249.399750,326.519196 
	C250.510956,326.008820 251.250977,325.908020 251.990982,325.807220 
z"/>
<path fill="#857ADB" opacity="1.000000" stroke="none" 
	d="
M313.226257,329.384430 
	C315.272552,328.540924 317.571442,328.009094 319.870300,327.477234 
	C319.875061,327.315125 319.879791,327.153015 319.884521,326.990906 
	C314.539673,326.990906 309.194702,327.018158 303.850037,326.985748 
	C288.449890,326.892334 273.049896,326.774872 257.334106,326.405334 
	C278.443787,326.066528 299.869202,325.989258 321.793335,325.896393 
	C322.922302,326.677429 323.552612,327.474060 324.286926,328.569092 
	C320.753601,329.143707 317.116241,329.419891 313.226257,329.384430 
z"/>
<path fill="#F8F7FB" opacity="1.000000" stroke="none" 
	d="
M342.073364,318.543396 
	C343.057983,318.077271 344.022766,318.014587 345.339844,317.982086 
	C346.525421,321.158722 347.358704,324.305176 348.088196,327.748169 
	C347.984406,328.044678 347.960358,328.460236 347.662292,328.718140 
	C346.968231,329.012054 346.572296,329.048126 346.176331,329.084198 
	C345.393707,329.055664 344.611115,329.027161 343.438507,328.981995 
	C342.716858,325.625854 342.385162,322.286377 342.073364,318.543396 
z"/>
<path fill="#F3C2B6" opacity="1.000000" stroke="none" 
	d="
M384.179199,328.213806 
	C384.454010,328.002167 384.858124,328.005554 385.563232,328.017334 
	C385.345673,328.160095 384.827087,328.294464 384.179199,328.213806 
z"/>
<path fill="#F3C2B6" opacity="1.000000" stroke="none" 
	d="
M346.300659,329.297424 
	C346.572296,329.048126 346.968231,329.012054 347.659363,328.926270 
	C347.444672,329.087891 346.934845,329.299286 346.300659,329.297424 
z"/>
<path fill="#E4E9FE" opacity="1.000000" stroke="none" 
	d="
M252.036865,325.476318 
	C251.250977,325.908020 250.510956,326.008820 249.408661,326.201538 
	C238.057388,326.233582 227.068466,326.156891 216.079407,326.119904 
	C208.872391,326.095673 206.272079,323.753448 206.106323,316.372864 
	C205.911865,307.715179 206.032974,299.050385 206.024185,290.388672 
	C206.023331,289.556519 206.071762,288.724274 206.298401,287.334045 
	C206.659164,286.451630 206.566574,286.202271 206.221710,286.027954 
	C206.405502,283.922638 206.589294,281.817291 207.065063,279.458435 
	C207.976135,279.383636 208.931335,279.909271 209.161240,279.686462 
	C211.036987,277.868683 212.712631,275.845886 214.569321,274.006775 
	C226.417984,262.270294 238.315887,250.583450 250.143143,238.825485 
	C251.597382,237.379730 252.728027,235.608459 254.476410,233.987946 
	C275.378662,233.988647 295.814209,233.883911 316.246796,234.082062 
	C320.184509,234.120255 324.110687,235.345383 328.042206,236.022980 
	C324.880920,241.490173 321.636383,246.911545 318.592682,252.443436 
	C317.016968,255.307281 315.797363,258.367035 314.277130,261.649902 
	C312.962677,263.284851 311.851501,264.671661 310.603546,265.921936 
	C295.737671,280.815186 280.823975,295.660828 265.986542,310.582306 
	C261.255188,315.340454 256.712036,320.285736 252.036865,325.476318 
M266.896332,261.988617 
	C270.259399,261.965057 273.622498,261.941498 277.916962,261.995209 
	C281.881805,261.990723 285.863770,262.217651 289.807281,261.925262 
	C295.160522,261.528320 297.960266,258.373993 298.038574,253.253006 
	C298.123779,247.682251 296.503296,245.623428 290.716858,244.965591 
	C285.837158,244.410858 280.900818,244.354813 275.084259,244.011703 
	C272.050323,244.045013 269.016418,244.078323 265.055481,244.034485 
	C261.398468,244.018158 257.735168,243.859055 254.085983,244.020035 
	C249.013687,244.243774 245.212158,248.185684 245.184433,252.963013 
	C245.156815,257.722046 248.962738,261.752747 254.018326,261.963257 
	C257.998108,262.128967 261.993286,261.925385 266.896332,261.988617 
z"/>
<path fill="#D8DEFD" opacity="1.000000" stroke="none" 
	d="
M254.008636,233.988037 
	C252.728027,235.608459 251.597382,237.379730 250.143143,238.825485 
	C238.315887,250.583450 226.417984,262.270294 214.569321,274.006775 
	C212.712631,275.845886 211.036987,277.868683 209.161240,279.686462 
	C208.931335,279.909271 207.976135,279.383636 207.102356,279.057281 
	C206.809067,264.339783 206.847290,249.769104 206.703094,235.200241 
	C206.616394,226.440964 206.245392,217.684509 205.924683,208.481705 
	C205.912216,207.284164 205.977249,206.531693 206.317871,205.564789 
	C207.219574,205.288376 207.904648,205.368286 208.460510,205.137253 
	C209.988068,204.502350 211.461426,203.737015 212.972565,203.412567 
	C213.399734,207.539078 215.966644,208.048508 219.070511,208.036621 
	C231.829346,207.987778 244.588455,208.012802 257.347473,208.016342 
	C264.557739,208.018326 271.768005,208.031326 278.979614,208.406036 
	C278.656342,210.184830 278.331726,211.596954 277.572571,213.012299 
	C273.020813,213.335938 268.905334,213.902542 264.785950,213.932755 
	C249.653183,214.043777 234.518021,214.078415 219.386154,213.916763 
	C214.644272,213.866119 212.829330,215.720169 212.936798,220.426498 
	C213.273697,235.179153 210.994781,232.797455 225.701355,233.028961 
	C226.698929,233.044662 227.698120,232.999237 228.694595,233.035889 
	C237.132874,233.346207 245.570679,233.668991 254.008636,233.988037 
z"/>
<path fill="#D8DEFD" opacity="1.000000" stroke="none" 
	d="
M206.166870,286.263458 
	C206.566574,286.202271 206.659164,286.451630 206.375473,286.869019 
	C206.251450,286.962067 206.112045,286.498962 206.166870,286.263458 
z"/>
<path fill="#5D4AD7" opacity="1.000000" stroke="none" 
	d="
M329.121643,284.193665 
	C329.715698,283.259064 330.508911,282.611908 331.641907,281.916351 
	C341.388000,283.245972 350.794342,284.623993 360.594055,286.054199 
	C353.306641,285.897186 345.623016,285.755707 337.946320,285.443848 
	C335.062897,285.326691 332.195526,284.813690 329.121643,284.193665 
z"/>
<path fill="#FBFAFC" opacity="1.000000" stroke="none" 
	d="
M254.476395,233.987946 
	C245.570679,233.668991 237.132874,233.346207 228.694595,233.035889 
	C227.698120,232.999237 226.698929,233.044662 225.701355,233.028961 
	C210.994781,232.797455 213.273697,235.179153 212.936798,220.426498 
	C212.829330,215.720169 214.644272,213.866119 219.386154,213.916763 
	C234.518021,214.078415 249.653183,214.043777 264.785950,213.932755 
	C268.905334,213.902542 273.020813,213.335938 278.040466,213.015045 
	C293.545013,213.014297 308.147186,213.032791 322.749298,213.000076 
	C326.270386,212.992188 330.414032,213.532333 330.654449,217.318741 
	C331.018890,223.058640 329.775696,228.900604 329.215515,234.699219 
	C328.982880,235.094147 328.750244,235.489059 328.279907,235.953476 
	C324.110687,235.345383 320.184509,234.120255 316.246796,234.082062 
	C295.814209,233.883911 275.378662,233.988647 254.476395,233.987946 
M274.526825,224.827271 
	C275.240784,222.151596 273.970398,220.821075 271.490265,221.327103 
	C270.620514,221.504562 269.302094,223.679214 269.573517,224.461029 
	C270.363892,226.737488 272.104370,227.472580 274.526825,224.827271 
M280.972809,226.313675 
	C282.209930,225.246277 283.447052,224.178864 284.684174,223.111450 
	C283.506989,222.476013 282.091858,221.073105 281.197601,221.350327 
	C278.609039,222.152832 278.611115,224.023727 280.972809,226.313675 
z"/>
<path fill="#E4E9FE" opacity="1.000000" stroke="none" 
	d="
M329.641052,234.699600 
	C329.775696,228.900604 331.018890,223.058640 330.654449,217.318741 
	C330.414032,213.532333 326.270386,212.992188 322.749298,213.000076 
	C308.147186,213.032791 293.545013,213.014297 278.474976,213.011826 
	C278.331726,211.596954 278.656342,210.184830 279.450531,208.391846 
	C295.029022,208.008102 310.138306,207.947876 325.246674,208.039810 
	C329.394867,208.065033 331.474243,206.631378 331.048645,202.189285 
	C330.796417,199.556976 330.879425,196.873550 331.031677,194.225754 
	C331.286072,189.802124 329.438843,187.842789 324.901276,187.951462 
	C317.600311,188.126297 310.291779,187.983429 303.026184,187.627197 
	C305.164062,184.567123 307.006958,181.600952 309.405914,179.187546 
	C318.206360,170.334167 327.191620,161.664505 336.107300,152.925659 
	C336.273468,160.784760 336.439636,168.643860 336.869965,176.749634 
	C337.089844,187.018845 337.045563,197.041367 337.004852,207.781158 
	C337.035461,208.664642 337.062500,208.830887 337.089539,208.997147 
	C337.029846,216.673294 336.970184,224.349457 336.703064,232.598145 
	C336.272400,233.355835 336.115021,233.586029 336.023529,233.861267 
	C334.037872,234.140839 332.052246,234.420410 329.641052,234.699600 
z"/>
<path fill="#F8F7FB" opacity="1.000000" stroke="none" 
	d="
M339.377869,233.886810 
	C339.256714,233.496048 339.396271,233.266235 339.796844,233.018814 
	C339.997162,233.169846 340.001526,233.378006 339.996216,233.899139 
	C339.986542,234.212128 339.573517,234.008255 339.377869,233.886810 
z"/>
<path fill="#CACDEF" opacity="1.000000" stroke="none" 
	d="
M336.287964,233.881897 
	C336.115021,233.586029 336.272400,233.355835 336.676331,233.063110 
	C336.857056,232.955521 336.997986,233.370148 337.035461,233.585129 
	C336.899475,233.834229 336.725952,233.868362 336.287964,233.881897 
z"/>
<path fill="#D9E0FE" opacity="1.000000" stroke="none" 
	d="
M336.154266,152.538757 
	C327.191620,161.664505 318.206360,170.334167 309.405914,179.187546 
	C307.006958,181.600952 305.164062,184.567123 302.559082,187.635010 
	C277.037018,187.989807 252.021835,187.989212 227.042999,187.642334 
	C234.715790,179.543427 242.352234,171.790802 250.230194,164.040344 
	C250.471725,164.042496 250.954468,164.052231 251.176941,164.316681 
	C267.542511,173.292099 285.255554,171.944199 298.353638,160.901810 
	C300.151459,159.216385 301.651672,157.659897 303.366669,155.909348 
	C303.703156,155.156235 303.824890,154.597153 304.266968,153.902893 
	C312.778534,146.029297 314.647705,135.911179 313.422760,125.591774 
	C312.589630,118.572617 309.226898,111.853729 307.340759,104.967705 
	C315.865875,97.112267 324.024628,89.267448 332.250793,81.494019 
	C333.330780,80.473495 334.756042,79.818398 336.021393,78.994041 
	C336.021393,78.994041 336.494080,79.012718 336.729645,79.029816 
	C336.937012,98.029823 336.908813,117.012749 336.638245,136.749664 
	C336.553833,139.697830 336.711853,141.892014 336.869873,144.086182 
	C336.647003,146.774734 336.424103,149.463287 336.154266,152.538757 
z"/>
<path fill="#DAE0FF" opacity="1.000000" stroke="none" 
	d="
M206.914215,137.025375 
	C206.670761,133.645264 206.427322,130.265152 206.541336,126.372787 
	C206.702530,124.909416 206.506271,123.958313 206.310013,123.007210 
	C206.260956,119.636604 206.211899,116.265991 206.585999,112.324570 
	C207.323456,111.216034 207.907623,110.680428 207.911850,110.140297 
	C207.981079,101.270622 208.024704,92.399780 207.912994,83.531227 
	C207.902313,82.684242 206.819092,81.850761 206.233780,81.011017 
	C206.182693,80.580231 206.131607,80.149437 206.067688,79.394547 
	C206.054871,79.070450 206.499908,79.012787 207.064636,78.956589 
	C209.616943,77.449280 209.243683,76.517975 206.990891,76.000496 
	C208.117737,74.426384 209.244583,72.852272 210.845581,71.449234 
	C211.849960,71.988197 212.377075,72.672623 212.910873,72.677879 
	C228.114655,72.827682 243.320541,72.823715 258.522095,73.080414 
	C261.264801,73.126724 264.072235,73.971466 266.682281,74.912224 
	C267.694000,75.276886 268.241180,76.930321 268.852966,78.299408 
	C266.469391,80.734581 264.232849,82.866982 261.620178,85.005203 
	C260.162720,86.338852 259.081360,87.666679 257.998169,89.241669 
	C257.996338,89.488831 257.991791,89.983162 257.699707,90.111923 
	C256.612335,90.505424 255.817047,90.770164 254.850037,90.800156 
	C254.123138,91.051109 253.567947,91.536804 253.005417,92.012238 
	C252.998077,92.001976 253.018600,92.013062 252.620407,92.009331 
	C250.305695,92.456673 248.019028,92.401680 246.555481,93.472092 
	C244.081589,95.281487 241.955185,97.661804 240.001022,100.061333 
	C237.654129,102.943123 235.603989,106.072395 233.564926,109.185905 
	C233.429840,109.392204 234.476929,110.372734 234.929626,111.338638 
	C234.246902,113.118431 233.608688,114.552742 232.626251,116.026123 
	C229.519516,118.376587 226.757019,120.687988 223.623672,123.007385 
	C222.501694,124.009125 221.750534,125.002876 220.851395,126.301140 
	C218.107498,129.264740 215.697601,132.150452 212.842667,134.494019 
	C211.248260,135.802856 208.914703,136.211227 206.914215,137.025375 
z"/>
<path fill="#E4E9FE" opacity="1.000000" stroke="none" 
	d="
M261.996307,84.999382 
	C264.232849,82.866982 266.469391,80.734581 269.158508,78.151077 
	C271.422180,75.186806 273.233337,72.673637 275.044495,70.160461 
	C292.095764,70.100288 309.147919,69.915291 326.197815,70.041023 
	C333.079224,70.091766 335.940643,72.781403 336.030640,78.577194 
	C334.756042,79.818398 333.330780,80.473495 332.250793,81.494019 
	C324.024628,89.267448 315.865875,97.112267 307.000793,104.919991 
	C305.638519,104.216164 304.846619,103.607208 304.302612,102.825722 
	C299.338104,95.693878 292.316620,90.859795 284.129639,89.487015 
	C275.963989,88.117813 267.406982,89.082397 259.145081,88.732780 
	C260.177826,87.294304 261.087067,86.146843 261.996307,84.999382 
z"/>
<path fill="#D8DEFD" opacity="1.000000" stroke="none" 
	d="
M274.573486,70.111732 
	C273.233337,72.673637 271.422180,75.186806 269.305511,77.848312 
	C268.241180,76.930321 267.694000,75.276886 266.682281,74.912224 
	C264.072235,73.971466 261.264801,73.126724 258.522095,73.080414 
	C243.320541,72.823715 228.114655,72.827682 212.910873,72.677879 
	C212.377075,72.672623 211.849960,71.988197 211.160156,71.313141 
	C212.766953,70.679665 214.532501,70.074959 216.299805,70.069794 
	C235.567184,70.013504 254.834839,70.051010 274.573486,70.111732 
z"/>
<path fill="#D8DEFD" opacity="1.000000" stroke="none" 
	d="
M206.976868,76.372887 
	C209.243683,76.517975 209.616943,77.449280 207.288391,78.939957 
	C206.952560,78.234772 206.957703,77.490028 206.976868,76.372887 
z"/>
<path fill="#AEBBF9" opacity="1.000000" stroke="none" 
	d="
M336.915619,143.639435 
	C336.711853,141.892014 336.553833,139.697830 336.638184,137.213379 
	C336.907440,139.012970 336.934387,141.102844 336.915619,143.639435 
z"/>
<path fill="#9AA1E7" opacity="1.000000" stroke="none" 
	d="
M337.244476,208.904877 
	C337.062500,208.830887 337.035461,208.664642 337.043823,208.248291 
	C337.185944,208.269638 337.292694,208.541107 337.244476,208.904877 
z"/>
<path fill="#E4E9FF" opacity="1.000000" stroke="none" 
	d="
M223.994507,122.999390 
	C226.757019,120.687988 229.519516,118.376587 232.630066,116.425903 
	C229.471451,125.638329 230.353867,134.601715 233.429199,143.167389 
	C234.862137,147.158463 238.384323,150.399414 240.977264,154.347412 
	C243.992920,157.822372 246.990799,160.930283 249.988678,164.038177 
	C242.352234,171.790802 234.715790,179.543427 226.583145,187.648087 
	C223.283600,188.002869 220.455292,187.771683 217.683273,188.067734 
	C214.241821,188.435272 211.846283,189.730881 212.764694,194.148712 
	C213.356812,196.997070 212.927658,200.057739 212.956238,203.023254 
	C211.461426,203.737015 209.988068,204.502350 208.460510,205.137253 
	C207.904648,205.368286 207.219574,205.288376 206.381958,205.192703 
	C206.086731,185.345963 206.003021,165.656860 205.867767,145.505310 
	C206.176147,142.636337 206.536102,140.229782 206.905136,137.424301 
	C208.914703,136.211227 211.248260,135.802856 212.842667,134.494019 
	C215.697601,132.150452 218.107498,129.264740 221.132233,126.171524 
	C222.372208,124.824730 223.183350,123.912064 223.994507,122.999390 
z"/>
<path fill="#D8DEFD" opacity="1.000000" stroke="none" 
	d="
M206.166977,81.474358 
	C206.819092,81.850761 207.902313,82.684242 207.912994,83.531227 
	C208.024704,92.399780 207.981079,101.270622 207.911850,110.140297 
	C207.907623,110.680428 207.323456,111.216034 206.648209,111.869011 
	C206.224899,101.968750 206.162537,91.953232 206.166977,81.474358 
z"/>
<path fill="#D8DEFD" opacity="1.000000" stroke="none" 
	d="
M206.229889,123.376396 
	C206.506271,123.958313 206.702530,124.909416 206.608688,125.925980 
	C206.262314,125.242828 206.206039,124.494202 206.229889,123.376396 
z"/>
<path fill="#FAA4C8" opacity="1.000000" stroke="none" 
	d="
M275.989532,244.078018 
	C280.900818,244.354813 285.837158,244.410858 290.716858,244.965591 
	C296.503296,245.623428 298.123779,247.682251 298.038574,253.253006 
	C297.960266,258.373993 295.160522,261.528320 289.807281,261.925262 
	C285.863770,262.217651 281.881805,261.990723 277.456421,261.497955 
	C276.660431,255.359802 276.324982,249.718918 275.989532,244.078018 
z"/>
<path fill="#FA8CBA" opacity="1.000000" stroke="none" 
	d="
M265.981628,261.885803 
	C261.993286,261.925385 257.998108,262.128967 254.018326,261.963257 
	C248.962738,261.752747 245.156815,257.722046 245.184433,252.963013 
	C245.212158,248.185684 249.013687,244.243774 254.085983,244.020035 
	C257.735168,243.859055 261.398468,244.018158 265.524445,244.499207 
	C265.989502,250.604553 265.985565,256.245178 265.981628,261.885803 
z"/>
<path fill="#FB98C2" opacity="1.000000" stroke="none" 
	d="
M266.438965,261.937195 
	C265.985565,256.245178 265.989502,250.604553 265.987946,244.537781 
	C269.016418,244.078323 272.050323,244.045013 275.536896,244.044861 
	C276.324982,249.718918 276.660431,255.359802 276.990723,261.459290 
	C273.622498,261.941498 270.259399,261.965057 266.438965,261.937195 
z"/>
<path fill="#F9F9FC" opacity="1.000000" stroke="none" 
	d="
M212.972549,203.412567 
	C212.927658,200.057739 213.356812,196.997070 212.764694,194.148712 
	C211.846283,189.730881 214.241821,188.435272 217.683273,188.067734 
	C220.455292,187.771683 223.283600,188.002869 226.546783,187.994385 
	C252.021835,187.989212 277.037018,187.989807 302.519318,187.982574 
	C310.291779,187.983429 317.600311,188.126297 324.901276,187.951462 
	C329.438843,187.842789 331.286072,189.802124 331.031677,194.225754 
	C330.879425,196.873550 330.796417,199.556976 331.048645,202.189285 
	C331.474243,206.631378 329.394867,208.065033 325.246674,208.039810 
	C310.138306,207.947876 295.029022,208.008102 279.449188,208.025177 
	C271.768005,208.031326 264.557739,208.018326 257.347473,208.016342 
	C244.588455,208.012802 231.829346,207.987778 219.070511,208.036621 
	C215.966644,208.048508 213.399734,207.539078 212.972549,203.412567 
M290.927277,200.173569 
	C296.072998,200.193253 301.223694,200.339081 306.360565,200.135315 
	C307.505554,200.089890 308.601807,198.815369 309.720490,198.106750 
	C308.625183,197.388199 307.555206,196.099976 306.430176,196.049988 
	C301.628754,195.836548 296.811096,195.988953 291.074707,195.897903 
	C287.800446,195.902939 284.511536,195.739975 281.261566,196.023468 
	C280.377686,196.100586 279.611237,197.523666 278.790863,198.329010 
	C279.592712,198.983261 280.369324,200.157425 281.201019,200.197861 
	C284.125458,200.340027 287.068878,200.092560 290.927277,200.173569 
M270.966309,200.216980 
	C271.538422,199.232010 272.110535,198.247025 272.682648,197.262039 
	C271.529663,196.799057 270.382111,195.951370 269.222778,195.934906 
	C261.058167,195.818954 252.891159,195.870789 244.724899,195.875488 
	C237.558685,195.879593 230.389633,195.795303 223.229370,196.006042 
	C222.165039,196.037354 221.142151,197.476135 220.100098,198.263763 
	C221.084320,198.949768 221.999634,199.792755 223.077332,200.265823 
	C223.780167,200.574310 224.718887,200.356140 225.551941,200.355652 
	C240.384460,200.347015 255.216980,200.335571 270.966309,200.216980 
z"/>
<path fill="#9092EB" opacity="1.000000" stroke="none" 
	d="
M274.326172,225.123032 
	C272.104370,227.472580 270.363892,226.737488 269.573517,224.461029 
	C269.302094,223.679214 270.620514,221.504562 271.490265,221.327103 
	C273.970398,220.821075 275.240784,222.151596 274.326172,225.123032 
z"/>
<path fill="#9092EB" opacity="1.000000" stroke="none" 
	d="
M280.672607,226.123505 
	C278.611115,224.023727 278.609039,222.152832 281.197601,221.350327 
	C282.091858,221.073105 283.506989,222.476013 284.684174,223.111450 
	C283.447052,224.178864 282.209930,225.246277 280.672607,226.123505 
z"/>
<path fill="#FDFEFE" opacity="1.000000" stroke="none" 
	d="
M240.959488,153.980377 
	C238.384323,150.399414 234.862137,147.158463 233.429199,143.167389 
	C230.353867,134.601715 229.471451,125.638329 232.974304,116.386841 
	C233.608688,114.552742 234.246902,113.118431 235.198853,111.127350 
	C237.243805,107.969986 238.624130,105.021133 240.783432,102.845367 
	C244.612488,98.987144 248.914474,95.598289 253.018585,92.013054 
	C253.018600,92.013062 252.998077,92.001976 253.301559,91.989029 
	C254.077286,91.662361 254.549515,91.348633 255.021744,91.034904 
	C255.817047,90.770164 256.612335,90.505424 257.924255,90.017334 
	C258.722504,89.605774 258.914490,89.350197 259.012939,89.020035 
	C259.009033,89.012810 259.021576,89.023788 259.021576,89.023788 
	C267.406982,89.082397 275.963989,88.117813 284.129639,89.487015 
	C292.316620,90.859795 299.338104,95.693878 304.302612,102.825722 
	C304.846619,103.607208 305.638519,104.216164 306.655396,104.952850 
	C309.226898,111.853729 312.589630,118.572617 313.422760,125.591774 
	C314.647705,135.911179 312.778534,146.029297 304.110565,153.663666 
	C303.148132,153.312439 302.662476,153.065247 302.132263,152.838837 
	C302.087738,152.859604 302.141968,152.941605 302.191711,152.612762 
	C301.823517,151.547546 301.405609,150.811157 300.996582,150.043274 
	C301.005524,150.011780 300.940125,150.008408 300.817444,149.689117 
	C294.646362,141.633163 287.251312,136.159515 276.640930,135.206146 
	C272.417877,135.239716 268.537811,134.871872 264.900513,135.645554 
	C254.113327,137.940048 246.381195,144.524796 240.959488,153.980377 
M261.555847,118.114151 
	C261.304871,118.323082 261.195892,118.589943 261.062195,119.746384 
	C261.011108,126.619682 263.900909,130.786407 269.508026,131.924179 
	C275.198120,133.078796 279.538727,130.676361 282.496948,124.409622 
	C282.018982,121.580208 281.541046,118.750786 281.017426,115.992249 
	C281.017426,115.992249 281.096558,115.963158 281.001251,115.261490 
	C279.207336,112.970749 277.354401,111.157936 278.922485,107.435463 
	C279.795166,105.363815 278.675659,101.094566 276.933350,99.651169 
	C275.088562,98.122826 270.873138,97.680939 268.743988,98.787132 
	C266.750824,99.822670 264.720154,103.834129 265.212189,105.954315 
	C266.162048,110.047447 265.287811,112.829002 262.632019,115.615822 
	C262.127869,116.144859 262.125092,117.151749 261.946167,117.991272 
	C261.946167,117.991272 261.959869,117.915901 261.555847,118.114151 
z"/>
<path fill="#AFB2F0" opacity="1.000000" stroke="none" 
	d="
M240.977264,154.347412 
	C246.381195,144.524796 254.113327,137.940048 264.900513,135.645554 
	C268.537811,134.871872 272.417877,135.239716 276.567322,135.516846 
	C275.672028,137.429337 274.391541,138.906570 273.121948,140.393158 
	C270.393799,143.587601 267.671265,146.786865 264.604126,150.024597 
	C261.165161,153.375565 258.068481,156.686096 254.684494,160.134521 
	C253.249634,161.532364 252.102051,162.792297 250.954468,164.052231 
	C250.954468,164.052231 250.471725,164.042496 250.230194,164.040344 
	C246.990799,160.930283 243.992920,157.822372 240.977264,154.347412 
z"/>
<path fill="#959BEE" opacity="1.000000" stroke="none" 
	d="
M254.971771,159.996628 
	C258.068481,156.686096 261.165161,153.375565 265.002197,150.024445 
	C267.198059,149.837631 268.655090,149.551773 270.108795,149.567642 
	C280.386292,149.679855 290.663086,149.854019 300.940125,150.008423 
	C300.940125,150.008408 301.005524,150.011780 301.005737,150.378296 
	C301.384613,151.477066 301.763275,152.209335 302.141968,152.941605 
	C302.141968,152.941605 302.087738,152.859604 302.075562,153.210480 
	C302.426239,154.408707 302.789062,155.256058 303.151886,156.103394 
	C301.651672,157.659897 300.151459,159.216385 297.910889,160.890045 
	C291.619904,160.904297 286.068665,160.828781 280.518890,160.692108 
	C272.002655,160.482376 263.487427,160.230576 254.971771,159.996628 
z"/>
<path fill="#99A3F2" opacity="1.000000" stroke="none" 
	d="
M254.684494,160.134521 
	C263.487427,160.230576 272.002655,160.482376 280.518890,160.692108 
	C286.068665,160.828781 291.619904,160.904297 297.613281,161.018982 
	C285.255554,171.944199 267.542511,173.292099 251.176941,164.316681 
	C252.102051,162.792297 253.249634,161.532364 254.684494,160.134521 
z"/>
<path fill="#9092EB" opacity="1.000000" stroke="none" 
	d="
M303.366669,155.909363 
	C302.789062,155.256058 302.426239,154.408707 302.120117,153.189697 
	C302.662476,153.065247 303.148132,153.312439 303.790192,153.798859 
	C303.824890,154.597153 303.703156,155.156235 303.366669,155.909363 
z"/>
<path fill="#D8DEFD" opacity="1.000000" stroke="none" 
	d="
M252.620392,92.009323 
	C248.914474,95.598289 244.612488,98.987144 240.783432,102.845367 
	C238.624130,105.021133 237.243805,107.969986 235.243347,110.781868 
	C234.476929,110.372734 233.429840,109.392204 233.564926,109.185905 
	C235.603989,106.072395 237.654129,102.943123 240.001022,100.061333 
	C241.955185,97.661804 244.081589,95.281487 246.555481,93.472092 
	C248.019028,92.401680 250.305695,92.456673 252.620392,92.009323 
z"/>
<path fill="#D8DEFD" opacity="1.000000" stroke="none" 
	d="
M261.620178,85.005203 
	C261.087067,86.146843 260.177826,87.294304 259.145081,88.732780 
	C259.021576,89.023788 259.009033,89.012810 258.758728,89.009064 
	C258.338959,89.001709 258.169464,88.998108 258.000000,88.994507 
	C259.081360,87.666679 260.162720,86.338852 261.620178,85.005203 
z"/>
<path fill="#D8DEFD" opacity="1.000000" stroke="none" 
	d="
M223.623672,123.007378 
	C223.183350,123.912064 222.372208,124.824730 221.280212,125.867020 
	C221.750534,125.002876 222.501694,124.009125 223.623672,123.007378 
z"/>
<path fill="#D8DEFD" opacity="1.000000" stroke="none" 
	d="
M254.850037,90.800163 
	C254.549515,91.348633 254.077286,91.662361 253.308899,91.999290 
	C253.567947,91.536804 254.123138,91.051109 254.850037,90.800163 
z"/>
<path fill="#E4E9FE" opacity="1.000000" stroke="none" 
	d="
M257.998169,89.241669 
	C258.169464,88.998108 258.338959,89.001709 258.762634,89.016289 
	C258.914490,89.350197 258.722504,89.605774 258.216309,89.888565 
	C257.991791,89.983162 257.996338,89.488831 257.998169,89.241669 
z"/>
<path fill="#5D4AD7" opacity="1.000000" stroke="none" 
	d="
M270.507904,200.270859 
	C255.216980,200.335571 240.384460,200.347015 225.551941,200.355652 
	C224.718887,200.356140 223.780167,200.574310 223.077332,200.265823 
	C221.999634,199.792755 221.084320,198.949768 220.100098,198.263763 
	C221.142151,197.476135 222.165039,196.037354 223.229370,196.006042 
	C230.389633,195.795303 237.558685,195.879593 244.724899,195.875488 
	C252.891159,195.870789 261.058167,195.818954 269.222778,195.934906 
	C270.382111,195.951370 271.529663,196.799057 272.682648,197.262039 
	C272.110535,198.247025 271.538422,199.232010 270.507904,200.270859 
z"/>
<path fill="#857ADB" opacity="1.000000" stroke="none" 
	d="
M291.999359,196.007874 
	C296.811096,195.988953 301.628754,195.836548 306.430176,196.049988 
	C307.555206,196.099976 308.625183,197.388199 309.720490,198.106750 
	C308.601807,198.815369 307.505554,200.089890 306.360565,200.135315 
	C301.223694,200.339081 296.072998,200.193253 290.594391,199.783569 
	C290.840790,198.264999 291.420074,197.136444 291.999359,196.007874 
z"/>
<path fill="#5D4AD7" opacity="1.000000" stroke="none" 
	d="
M291.537048,195.952896 
	C291.420074,197.136444 290.840790,198.264999 290.133301,199.693253 
	C287.068878,200.092560 284.125458,200.340027 281.201019,200.197861 
	C280.369324,200.157425 279.592712,198.983261 278.790863,198.329010 
	C279.611237,197.523666 280.377686,196.100586 281.261566,196.023468 
	C284.511536,195.739975 287.800446,195.902939 291.537048,195.952896 
z"/>
<path fill="#9092EB" opacity="1.000000" stroke="none" 
	d="
M300.817444,149.689133 
	C290.663086,149.854019 280.386292,149.679855 270.108795,149.567642 
	C268.655090,149.551773 267.198059,149.837631 265.344513,149.984009 
	C267.671265,146.786865 270.393799,143.587601 273.121948,140.393158 
	C274.391541,138.906570 275.672028,137.429337 277.021210,135.637146 
	C287.251312,136.159515 294.646362,141.633163 300.817444,149.689133 
z"/>
<path fill="#A7A2E8" opacity="1.000000" stroke="none" 
	d="
M282.010040,125.004578 
	C279.538727,130.676361 275.198120,133.078796 269.508026,131.924179 
	C263.900909,130.786407 261.011108,126.619682 261.321411,119.211304 
	C261.785950,118.462196 261.912384,118.208755 261.959869,117.915901 
	C261.959869,117.915901 261.946167,117.991272 262.287903,117.933624 
	C267.293640,113.751617 275.417419,112.910149 281.096558,115.963158 
	C281.096558,115.963158 281.017426,115.992249 281.021240,116.361404 
	C281.353363,119.488564 281.681702,122.246574 282.010040,125.004578 
z"/>
<path fill="#A299E3" opacity="1.000000" stroke="none" 
	d="
M281.048889,115.612320 
	C275.417419,112.910149 267.293640,113.751617 262.260315,117.907059 
	C262.125092,117.151749 262.127869,116.144859 262.632019,115.615822 
	C265.287811,112.829002 266.162048,110.047447 265.212189,105.954315 
	C264.720154,103.834129 266.750824,99.822670 268.743988,98.787132 
	C270.873138,97.680939 275.088562,98.122826 276.933350,99.651169 
	C278.675659,101.094566 279.795166,105.363815 278.922485,107.435463 
	C277.354401,111.157936 279.207336,112.970749 281.048889,115.612320 
z"/>
<path fill="#A299E3" opacity="1.000000" stroke="none" 
	d="
M282.253479,124.707100 
	C281.681702,122.246574 281.353363,119.488564 281.044067,116.325966 
	C281.541046,118.750786 282.018982,121.580208 282.253479,124.707100 
z"/>
<path fill="#9092EB" opacity="1.000000" stroke="none" 
	d="
M302.191711,152.612762 
	C301.763275,152.209335 301.384613,151.477066 300.996826,150.409790 
	C301.405609,150.811157 301.823517,151.547546 302.191711,152.612762 
z"/>
<path fill="#A299E3" opacity="1.000000" stroke="none" 
	d="
M261.757874,118.015030 
	C261.912384,118.208755 261.785950,118.462196 261.404785,118.795479 
	C261.195892,118.589943 261.304871,118.323082 261.757874,118.015030 
z"/>
</svg>