<svg version="1.1" id="Layer_1" xmlns="http://www.w3.org/2000/svg" xmlns:xlink="http://www.w3.org/1999/xlink" x="0px" y="0px"
	 width="100%" viewBox="0 0 682 663" enable-background="new 0 0 682 663" xml:space="preserve">
<path fill="#FFFFFF" opacity="1.000000" stroke="none" 
	d="
M683.000000,249.000000 
	C683.000000,387.666656 683.000000,525.833313 683.000000,664.000000 
	C455.666718,664.000000 228.333420,664.000000 1.000098,664.000000 
	C1.000065,443.000061 1.000065,222.000137 1.000033,1.000157 
	C228.333237,1.000105 455.666473,1.000105 682.999878,1.000052 
	C683.000000,83.500000 683.000000,166.000000 683.000000,249.000000 
M565.086060,51.000118 
	C564.849304,45.940090 563.545105,41.483315 558.404846,39.201263 
	C554.369080,37.409573 550.613586,37.921841 547.288757,40.789051 
	C545.800476,42.072544 544.549805,43.631577 542.931335,44.418095 
	C538.786560,37.547913 532.739319,33.009014 525.071472,31.066256 
	C510.679657,27.419842 496.594177,31.341787 486.382385,47.235729 
	C476.688538,42.857086 467.026215,38.407070 457.295288,34.112434 
	C419.682129,17.512272 380.059845,10.113708 339.187439,9.197066 
	C326.273560,8.907450 313.315369,10.204865 300.388641,10.965913 
	C278.377716,12.261783 257.065033,17.102823 236.212418,24.089544 
	C234.646805,24.614111 233.319809,25.850950 231.156433,26.664822 
	C219.389786,24.740799 207.673279,21.641644 195.846069,21.136972 
	C171.095306,20.080851 142.290939,33.076263 132.507935,59.338959 
	C131.205170,55.909256 129.936752,52.570023 128.668350,49.230789 
	C127.320938,53.033718 126.956108,56.617611 127.034325,60.191803 
	C127.099052,63.149796 126.308723,64.789948 123.366165,66.212326 
	C120.673523,67.513908 118.729576,70.364365 116.455711,72.532288 
	C116.817589,72.850632 117.179474,73.168976 117.541351,73.487320 
	C120.265427,72.985016 122.989510,72.482712 125.203278,72.074509 
	C122.405167,78.989662 119.756447,85.535622 116.472481,92.296089 
	C104.837265,104.136238 92.669113,115.504204 81.675003,127.912392 
	C56.882652,155.893539 39.651901,188.407166 26.771103,223.318314 
	C13.954015,258.056793 7.782046,294.066193 7.127682,330.999146 
	C6.963813,340.248077 8.045741,349.553497 9.040437,358.780640 
	C10.620069,373.433960 11.845111,388.187958 14.585631,402.640411 
	C19.910091,430.719635 29.850935,457.345520 43.020607,482.675659 
	C47.423355,491.143799 53.095936,498.951752 58.405807,507.969818 
	C58.405807,550.875122 58.405807,593.780457 58.405807,636.654907 
	C65.861794,636.654907 72.746086,636.654907 79.835541,636.654907 
	C79.835541,630.334839 79.822762,624.361084 79.837753,618.387451 
	C79.902489,592.593567 79.975357,566.799683 80.634521,541.302551 
	C87.467514,547.876953 94.300507,554.451416 101.236816,561.955078 
	C101.242683,583.752014 101.249420,605.549011 101.254044,627.345947 
	C101.256287,637.901917 101.254478,637.907166 111.622688,637.929932 
	C112.066704,637.930908 112.511284,637.667725 113.667664,637.302979 
	C113.667664,616.977661 113.667664,596.539307 114.273407,576.216736 
	C116.134148,577.572876 118.082054,578.825073 119.842285,580.301086 
	C139.038162,596.397583 159.179138,611.080994 181.984055,622.928528 
	C181.984055,627.805359 181.984055,632.682129 181.984055,637.618347 
	C187.350403,637.618347 192.067841,637.618347 197.259323,637.618347 
	C197.259323,635.292786 197.259323,633.182983 197.986389,631.062561 
	C200.040421,631.705261 202.094467,632.348022 204.357178,633.774658 
	C204.633636,636.589539 205.956894,637.643860 208.950562,637.295532 
	C211.878189,636.954834 214.890884,637.345154 218.057587,638.077576 
	C247.544952,650.548218 278.551331,656.938293 310.277954,658.689941 
	C337.789642,660.208862 365.555237,660.158630 392.602386,653.791931 
	C410.939178,649.475647 428.847656,643.339661 447.865723,637.861206 
	C451.374023,637.861206 454.882324,637.861206 458.414642,637.861206 
	C458.724701,635.903320 458.949554,634.483643 459.906769,633.018250 
	C460.234467,632.963745 460.587585,632.970398 460.886200,632.846069 
	C496.434052,618.041992 527.808777,596.816589 555.765015,570.519043 
	C566.160522,560.740356 575.847900,550.208740 585.984680,540.947571 
	C585.984680,572.898254 585.984680,604.848938 585.984680,636.763794 
	C593.337830,636.763794 600.207458,636.763794 607.879883,636.763794 
	C607.879883,593.225342 607.879883,550.092041 608.467712,506.605438 
	C624.869629,479.246185 637.821472,450.424133 646.324036,419.589233 
	C651.898926,399.371704 655.606567,378.859436 656.853149,357.988403 
	C657.612976,345.266357 657.368042,332.444092 656.842896,319.696960 
	C656.331787,307.287781 655.062256,294.898315 653.737427,282.541809 
	C653.388062,279.283417 651.604309,276.178833 650.668396,272.208954 
	C658.665344,247.005249 666.662354,221.801559 675.078613,196.255035 
	C682.238281,191.208954 684.344482,184.475601 679.519287,179.179214 
	C677.199402,176.632767 673.036560,175.765305 669.730469,173.462250 
	C648.912231,149.072525 628.145264,124.638756 607.257751,100.308525 
	C593.310181,84.062195 579.191040,67.963196 565.086060,51.000118 
z"/>
<path fill="#A6DAE8" opacity="1.000000" stroke="none" 
	d="
M231.881897,26.756683 
	C233.319809,25.850950 234.646805,24.614111 236.212418,24.089544 
	C257.065033,17.102823 278.377716,12.261783 300.388641,10.965913 
	C313.315369,10.204865 326.273560,8.907450 339.187439,9.197066 
	C380.059845,10.113708 419.682129,17.512272 457.295288,34.112434 
	C467.026215,38.407070 476.688538,42.857086 486.727142,47.654316 
	C486.373657,50.259983 485.237579,52.411831 485.058197,54.640659 
	C484.490021,61.701462 484.279297,68.791023 483.533325,75.928200 
	C481.027863,76.387833 478.892761,76.682884 476.815430,77.206833 
	C463.461029,80.575218 454.169250,90.380310 452.491272,102.878647 
	C451.802856,110.864754 451.570099,118.514725 450.873718,126.122276 
	C450.447937,130.774368 452.111115,132.178619 456.684906,132.163406 
	C496.623688,132.030457 536.563232,132.037735 576.502075,132.166595 
	C579.846497,132.177383 581.387024,131.198410 581.833557,127.964584 
	C590.441345,138.679901 599.531189,148.858795 606.842346,160.185791 
	C621.726685,183.245773 633.345825,207.996155 641.679382,234.227341 
	C642.459167,236.682007 644.010315,238.891602 645.156128,241.591263 
	C637.154358,266.652527 629.249329,291.353638 621.227112,316.016602 
	C616.255798,331.300018 611.106506,346.525513 605.879211,361.423035 
	C603.643066,360.692627 601.571045,360.036560 599.485413,359.990356 
	C592.210693,359.829071 584.931274,359.878693 577.680054,359.519836 
	C572.518127,353.626129 567.482544,347.902832 562.021851,342.618835 
	C560.823914,341.459625 557.478333,340.911621 556.229492,341.744049 
	C553.529053,343.544037 554.861938,346.065765 556.796326,348.049622 
	C560.626160,351.977448 564.456970,355.904327 567.805237,359.876251 
	C565.159607,359.921448 562.991821,360.010559 560.833313,359.906860 
	C552.309082,359.497253 545.629211,362.603485 540.907349,370.282410 
	C539.495605,373.653107 538.346436,376.788330 536.904297,380.022949 
	C536.411560,380.173279 536.211731,380.224182 535.553833,380.171753 
	C529.730591,380.141846 524.365417,380.215271 518.763184,380.227539 
	C518.526184,380.166412 518.065186,380.001617 518.179565,379.680176 
	C520.721130,375.585907 523.343262,371.920837 525.508240,368.003113 
	C527.001831,365.300232 528.332153,362.341827 528.934265,359.337067 
	C534.914001,329.494354 540.800964,299.632446 546.546936,269.743805 
	C548.605835,259.034119 550.546021,248.278625 551.885559,237.462936 
	C552.591003,231.767303 549.312256,229.009033 543.476257,229.008957 
	C478.314148,229.008041 413.152069,229.026520 347.592346,229.027039 
	C338.732544,230.188217 335.010834,233.315872 333.132141,241.459122 
	C331.758118,247.414978 330.859619,253.478912 329.654266,259.475586 
	C324.149353,286.862366 318.591217,314.238525 313.096252,341.627319 
	C311.409698,350.033752 311.473785,350.046600 302.869232,350.069305 
	C302.363037,350.006348 302.161194,349.976257 301.960999,349.582764 
	C292.576141,329.427979 283.189606,309.636597 273.810272,289.483643 
	C269.933197,278.717773 265.980591,268.338287 262.188751,257.900360 
	C259.690979,251.024704 255.492355,246.134979 247.666199,244.460144 
	C235.299820,244.227295 223.274063,244.227295 211.002884,244.227295 
	C211.002884,240.159866 211.224838,237.157639 210.947403,234.202271 
	C210.590485,230.400162 212.476471,229.194641 215.833252,229.101837 
	C218.812332,229.019516 221.823944,229.060760 224.759720,228.629303 
	C249.804733,224.948547 270.694000,196.778976 273.328644,173.719604 
	C273.695862,163.914780 273.795990,154.430511 273.932312,144.528076 
	C274.186493,142.653595 274.235504,141.147369 274.648590,139.748642 
	C278.765106,125.809311 279.724640,111.568634 279.003174,96.782845 
	C280.115570,92.060959 281.729584,87.726547 281.915741,83.331650 
	C282.746124,63.728924 273.359131,49.623249 256.988831,39.916927 
	C248.872269,35.104450 240.266403,31.117249 231.881897,26.756683 
z"/>
<path fill="#102535" opacity="1.000000" stroke="none" 
	d="
M217.866226,637.414612 
	C214.890884,637.345154 211.878189,636.954834 208.950562,637.295532 
	C205.956894,637.643860 204.633636,636.589539 204.435608,633.022461 
	C204.514023,595.598572 204.514023,558.926941 204.514023,522.008850 
	C197.237991,524.386719 195.926926,526.473450 196.679840,533.219238 
	C196.900604,535.197266 196.956558,537.202087 196.959015,539.194824 
	C196.980194,556.344849 196.935486,573.494995 196.983780,590.644836 
	C197.021744,604.121094 197.163620,617.597046 197.259323,631.073120 
	C197.259323,633.182983 197.259323,635.292786 197.259323,637.618347 
	C192.067841,637.618347 187.350403,637.618347 181.984055,637.618347 
	C181.984055,632.682129 181.984055,627.805359 181.995712,622.003540 
	C182.004318,593.294250 181.996872,565.509888 182.008301,537.725586 
	C182.009048,535.901489 181.676636,533.883911 182.322510,532.289978 
	C184.176163,527.715271 181.608627,525.150330 178.274918,523.402527 
	C175.735733,522.071289 172.668945,521.153320 169.819687,521.106812 
	C155.848022,520.878906 141.870483,520.967651 127.895294,521.019226 
	C119.966507,521.048462 113.693939,525.869446 113.426819,533.774719 
	C112.950699,547.864624 113.529831,561.990234 113.667664,576.100891 
	C113.667664,596.539307 113.667664,616.977661 113.667664,637.302979 
	C112.511284,637.667725 112.066704,637.930908 111.622688,637.929932 
	C101.254478,637.907166 101.256287,637.901917 101.254044,627.345947 
	C101.249420,605.549011 101.242683,583.752014 101.460442,561.175781 
	C101.751938,559.739197 101.871620,559.082458 101.879738,558.424438 
	C101.971802,550.965881 102.064194,543.507263 102.122574,536.048401 
	C102.230560,522.251648 109.925201,514.317810 122.659241,509.995483 
	C128.074783,509.707855 133.074707,509.364258 138.381012,509.282288 
	C149.061920,509.698914 159.437592,509.805420 169.810196,510.044922 
	C172.232193,510.100830 174.643784,510.607910 177.414185,510.989990 
	C180.326035,512.206665 182.832108,513.485718 185.459869,514.423889 
	C187.219238,515.052063 189.472580,515.997375 190.945816,515.406616 
	C195.332489,513.647705 199.443054,511.200165 204.023590,508.790833 
	C204.554337,507.928314 204.868729,507.297028 204.870316,506.664978 
	C204.908813,491.362427 204.930771,476.059784 204.880371,460.757385 
	C204.877563,459.903870 204.227386,459.052490 203.423553,458.134949 
	C181.997055,458.097260 161.025528,458.124786 139.583679,458.111542 
	C131.353729,458.076691 123.594086,458.082611 115.383286,458.063599 
	C102.953224,458.032837 90.974312,458.027008 78.564804,457.994446 
	C75.528130,458.243378 72.922066,458.519043 69.848450,458.869324 
	C66.001236,458.975128 62.621578,459.006348 59.140060,458.793762 
	C58.775497,458.326538 58.512787,458.103180 58.201603,457.421204 
	C58.160133,447.325378 58.167133,437.688171 58.630947,428.030701 
	C81.518806,428.005768 103.949875,428.021118 126.380882,427.991119 
	C151.301331,427.957764 176.221710,427.883148 201.550415,427.883057 
	C203.607071,427.911255 205.255402,427.882904 207.375763,427.907227 
	C338.821014,427.971985 469.794220,427.983429 600.767456,428.000946 
	C603.099121,428.001251 605.430786,428.074615 607.850098,428.567719 
	C607.758118,435.808075 607.407593,442.595215 607.431458,449.381012 
	C607.498840,468.573883 607.719543,487.766235 607.879883,506.958771 
	C607.879883,550.092041 607.879883,593.225342 607.879883,636.763794 
	C600.207458,636.763794 593.337830,636.763794 585.984680,636.763794 
	C585.984680,604.848938 585.984680,572.898254 585.990540,540.020264 
	C585.996399,512.179871 585.996399,485.266876 585.996399,458.363434 
	C584.992920,458.183929 584.523499,458.026978 584.053772,458.026306 
	C543.428772,457.966400 502.803802,457.909515 462.178802,457.912842 
	C460.938721,457.912933 459.698730,458.548370 458.124573,458.708954 
	C451.875244,458.357056 445.960022,458.101654 440.044891,458.103455 
	C439.204651,458.103699 438.364777,459.353577 437.382172,459.595703 
	C436.101044,458.779083 434.962677,458.054199 433.823822,458.053345 
	C393.236725,458.023010 352.649597,458.060455 311.693909,457.879059 
	C309.858154,457.471497 308.391144,457.102509 306.923706,457.100555 
	C280.924316,457.065826 254.924881,457.071838 228.925476,457.089203 
	C227.807770,457.089935 226.690186,457.283661 225.474182,457.396637 
	C225.314560,458.316650 225.109634,458.949005 225.109009,459.581543 
	C225.093460,475.414398 225.084793,491.247284 225.140457,507.079956 
	C225.143585,507.964050 225.709503,508.846222 226.474640,509.818298 
	C236.667465,509.875610 246.399109,509.843933 256.478027,509.904755 
	C261.547241,512.955383 266.864410,515.278137 270.855408,519.016541 
	C277.272339,525.027466 277.530060,533.534973 277.546844,541.734802 
	C277.609863,572.523071 277.575165,603.311523 277.558655,634.099915 
	C277.558075,635.184692 277.362305,636.269348 277.192932,638.022705 
	C273.206635,637.306396 269.585388,636.655640 266.022491,635.538452 
	C265.994598,608.396484 265.908356,581.720886 265.899048,554.579468 
	C266.007202,548.457397 266.096680,542.800842 266.056732,537.145203 
	C265.990295,527.735474 259.682404,521.253662 250.251770,521.020020 
	C244.432159,520.875793 238.605881,520.992493 232.782608,521.005310 
	C225.668182,521.020996 225.554672,521.026367 225.518173,528.141418 
	C225.339767,562.914185 225.174072,597.687317 225.173828,632.460327 
	C225.173813,635.899292 224.443085,637.501648 220.808395,637.045349 
	C219.858093,636.926147 218.848557,637.278748 217.866226,637.414612 
z"/>
<path fill="#A6DAE8" opacity="1.000000" stroke="none" 
	d="
M58.174133,428.050995 
	C58.167133,437.688171 58.160133,447.325378 58.114738,457.890381 
	C58.052025,467.965820 57.948051,477.114136 58.029301,486.260803 
	C58.091076,493.215546 58.388279,500.168213 58.470261,507.186768 
	C58.359791,507.251709 58.188053,507.061462 58.188057,507.061462 
	C53.095936,498.951752 47.423355,491.143799 43.020607,482.675659 
	C29.850935,457.345520 19.910091,430.719635 14.585631,402.640411 
	C11.845111,388.187958 10.620069,373.433960 9.040437,358.780640 
	C8.045741,349.553497 6.963813,340.248077 7.127682,330.999146 
	C7.782046,294.066193 13.954015,258.056793 26.771103,223.318314 
	C39.651901,188.407166 56.882652,155.893539 81.675003,127.912392 
	C92.669113,115.504204 104.837265,104.136238 116.853256,92.622147 
	C116.751442,97.746559 115.981842,102.536186 115.835724,107.344765 
	C115.188286,128.652298 117.978920,149.256714 129.812149,167.634476 
	C134.120178,174.325150 138.879410,180.834915 147.488022,183.297791 
	C153.058044,196.233490 161.976883,206.083008 173.070419,213.786240 
	C177.030273,216.535934 178.143311,219.518097 177.959015,223.702072 
	C177.660706,230.474548 177.321869,237.245255 176.581360,244.090240 
	C162.515884,244.294296 148.866714,244.306229 135.223206,244.590149 
	C122.690659,244.850937 116.508827,251.809967 116.956818,264.382233 
	C117.306374,274.192200 121.486023,282.671783 125.285324,291.138885 
	C115.832237,291.446808 106.753021,292.559845 97.785881,291.969757 
	C80.231804,290.814514 57.992920,305.805511 60.955139,330.192047 
	C63.001434,347.038239 68.275253,363.492371 71.837776,380.175659 
	C71.388481,380.260498 71.208183,380.291321 70.573212,380.194580 
	C57.491276,380.090393 44.863873,380.091949 32.237041,380.177673 
	C31.192430,380.184784 30.151691,380.762299 29.010788,381.527832 
	C28.950342,386.975555 28.988258,391.970276 29.234673,397.341797 
	C38.457104,397.718628 47.471039,397.718628 56.548306,397.718628 
	C57.039360,403.752441 57.462334,408.949707 57.866127,414.602478 
	C57.956013,419.389038 58.065075,423.720001 58.174133,428.050995 
z"/>
<path fill="#A6D9E7" opacity="1.000000" stroke="none" 
	d="
M458.458679,458.887604 
	C459.698730,458.548370 460.938721,457.912933 462.178802,457.912842 
	C502.803802,457.909515 543.428772,457.966400 584.053772,458.026306 
	C584.523499,458.026978 584.992920,458.183929 585.996399,458.363434 
	C585.996399,485.266876 585.996399,512.179871 585.927246,539.556641 
	C575.847900,550.208740 566.160522,560.740356 555.765015,570.519043 
	C527.808777,596.816589 496.434052,618.041992 460.886200,632.846069 
	C460.587585,632.970398 460.234467,632.963745 459.441162,632.578125 
	C455.820221,617.583313 464.151031,608.238342 475.348755,598.871460 
	C469.544891,595.098450 464.564209,591.860657 458.799713,588.113281 
	C458.799713,586.957397 458.799774,584.636780 458.799774,582.316223 
	C458.799683,543.157776 458.804535,503.999359 458.785004,464.840942 
	C458.783997,462.856445 458.572296,460.872040 458.458679,458.887604 
z"/>
<path fill="#272F31" opacity="1.000000" stroke="none" 
	d="
M147.284286,183.030991 
	C138.879410,180.834915 134.120178,174.325150 129.812149,167.634476 
	C117.978920,149.256714 115.188286,128.652298 115.835724,107.344765 
	C115.981842,102.536186 116.751442,97.746559 117.170883,92.514893 
	C119.756447,85.535622 122.405167,78.989662 125.203278,72.074509 
	C122.989510,72.482712 120.265427,72.985016 117.541351,73.487320 
	C117.179474,73.168976 116.817589,72.850632 116.455711,72.532288 
	C118.729576,70.364365 120.673523,67.513908 123.366165,66.212326 
	C126.308723,64.789948 127.099052,63.149796 127.034325,60.191803 
	C126.956108,56.617611 127.320938,53.033718 128.668350,49.230789 
	C129.936752,52.570023 131.205170,55.909256 132.507935,59.338959 
	C142.290939,33.076263 171.095306,20.080851 195.846069,21.136972 
	C207.673279,21.641644 219.389786,24.740799 231.519165,26.710752 
	C240.266403,31.117249 248.872269,35.104450 256.988831,39.916927 
	C273.359131,49.623249 282.746124,63.728924 281.915741,83.331650 
	C281.729584,87.726547 280.115570,92.060959 278.717560,96.917511 
	C273.640228,101.306259 269.561127,106.501892 264.234131,108.781837 
	C256.755432,111.982712 248.427811,113.505981 240.312637,114.807617 
	C234.779526,115.695099 228.988937,114.977364 223.404053,114.977364 
	C225.109192,111.970177 226.671051,109.215683 228.232910,106.461189 
	C221.577194,107.316483 215.844727,109.371346 209.953262,110.743614 
	C204.035156,112.122086 197.924927,113.432404 191.362473,110.131859 
	C193.314819,108.889565 194.600937,108.149529 195.803406,107.292183 
	C200.416153,104.003311 200.604706,100.151291 195.710815,97.638496 
	C191.364120,95.406662 186.577423,93.776863 181.799377,92.721260 
	C178.025482,91.887505 174.955841,93.896996 173.989014,97.955704 
	C173.456619,100.190681 173.008255,102.525497 173.053406,104.804771 
	C173.277496,116.118011 173.924377,127.427483 173.936249,138.738800 
	C173.945114,147.190918 169.778000,153.487427 162.470276,157.596741 
	C158.033493,149.252090 154.010101,140.894821 149.162399,133.046722 
	C147.699738,130.678772 143.773697,128.192413 141.287170,128.477127 
	C137.453903,128.916046 135.909119,132.842743 135.972977,136.933167 
	C136.069214,143.096451 136.009949,149.262100 136.028580,155.426712 
	C136.040482,159.364059 136.497971,162.957672 140.605164,165.145950 
	C141.837646,165.802628 142.632111,167.723419 143.132523,169.229462 
	C144.646683,173.786697 145.918198,178.424545 147.284286,183.030991 
z"/>
<path fill="#A5D8E6" opacity="1.000000" stroke="none" 
	d="
M265.964142,636.004944 
	C269.585388,636.655640 273.206635,637.306396 277.192932,638.022705 
	C277.362305,636.269348 277.558075,635.184692 277.558655,634.099915 
	C277.575165,603.311523 277.609863,572.523071 277.546844,541.734802 
	C277.530060,533.534973 277.272339,525.027466 270.855408,519.016541 
	C266.864410,515.278137 261.547241,512.955383 256.489655,509.734924 
	C256.154022,509.472595 256.177917,509.132904 256.388916,509.077820 
	C256.599915,509.022766 256.894592,508.700073 257.282623,508.753845 
	C267.444275,512.896301 277.217865,516.984924 287.000122,521.537537 
	C287.046204,541.828918 286.994385,561.657043 287.156738,581.483398 
	C287.245270,592.294739 287.696899,603.103027 287.657166,614.177856 
	C286.077087,628.793762 292.347504,637.459595 305.173157,637.894897 
	C319.275574,638.373413 333.404480,638.046997 347.521423,638.140686 
	C350.672485,638.161621 351.932343,636.693909 352.158173,633.655029 
	C352.879028,623.955261 346.107239,615.370239 336.327301,613.979797 
	C332.556549,613.443787 328.736572,613.254150 324.880615,612.446777 
	C324.880951,590.828796 324.920013,569.670715 325.034210,548.513000 
	C325.043762,546.747742 325.560150,544.985168 326.027405,543.497192 
	C327.727417,545.047424 329.337463,546.224243 330.740112,547.610840 
	C352.516846,569.137695 374.267914,590.690552 396.022064,612.240234 
	C400.964691,617.136475 405.896729,622.043457 410.983398,627.257080 
	C415.541443,632.995422 420.588226,637.219360 428.109894,637.336243 
	C434.391174,637.433777 440.668610,637.780945 446.947723,638.017517 
	C428.847656,643.339661 410.939178,649.475647 392.602386,653.791931 
	C365.555237,660.158630 337.789642,660.208862 310.277954,658.689941 
	C278.551331,656.938293 247.544952,650.548218 217.961914,637.746094 
	C218.848557,637.278748 219.858093,636.926147 220.808395,637.045349 
	C224.443085,637.501648 225.173813,635.899292 225.173828,632.460327 
	C225.174072,597.687317 225.339767,562.914185 225.518173,528.141418 
	C225.554672,521.026367 225.668182,521.020996 232.782608,521.005310 
	C238.605881,520.992493 244.432159,520.875793 250.251770,521.020020 
	C259.682404,521.253662 265.990295,527.735474 266.056732,537.145203 
	C266.096680,542.800842 266.007202,548.457397 265.640594,554.897949 
	C265.209198,556.166870 265.029449,556.651367 265.029053,557.135986 
	C265.008606,582.196716 264.989716,607.257385 265.037720,632.318054 
	C265.040070,633.547607 265.641602,634.776001 265.964142,636.004944 
z"/>
<path fill="#A5D8E6" opacity="1.000000" stroke="none" 
	d="
M113.970535,576.158813 
	C113.529831,561.990234 112.950699,547.864624 113.426819,533.774719 
	C113.693939,525.869446 119.966507,521.048462 127.895294,521.019226 
	C141.870483,520.967651 155.848022,520.878906 169.819687,521.106812 
	C172.668945,521.153320 175.735733,522.071289 178.274918,523.402527 
	C181.608627,525.150330 184.176163,527.715271 182.322510,532.289978 
	C181.676636,533.883911 182.009048,535.901489 182.008301,537.725586 
	C181.996872,565.509888 182.004318,593.294250 181.930237,621.540405 
	C159.179138,611.080994 139.038162,596.397583 119.842285,580.301086 
	C118.082054,578.825073 116.134148,577.572876 113.970535,576.158813 
z"/>
<path fill="#A7D8E6" opacity="1.000000" stroke="none" 
	d="
M608.173828,506.782104 
	C607.719543,487.766235 607.498840,468.573883 607.431458,449.381012 
	C607.407593,442.595215 607.758118,435.808075 607.913086,428.093903 
	C607.881470,417.470184 607.874573,407.774078 608.212891,397.974854 
	C609.035522,397.820099 609.512878,397.768494 610.448608,397.823059 
	C623.110474,397.929291 635.314026,397.929291 647.626709,397.929291 
	C647.626709,391.707855 647.626709,386.027679 647.626709,380.273285 
	C639.172302,380.273285 631.085327,380.273285 622.734680,380.191406 
	C622.297180,380.049133 622.123352,379.988770 622.012085,379.519836 
	C621.897522,377.806213 622.075439,376.305237 621.482178,375.229736 
	C618.808411,370.383087 619.747498,365.701233 621.401062,360.815125 
	C625.069092,349.976410 628.455200,339.042694 632.055481,328.180634 
	C638.156250,309.774841 644.333862,291.394592 650.479248,273.003632 
	C651.604309,276.178833 653.388062,279.283417 653.737427,282.541809 
	C655.062256,294.898315 656.331787,307.287781 656.842896,319.696960 
	C657.368042,332.444092 657.612976,345.266357 656.853149,357.988403 
	C655.606567,378.859436 651.898926,399.371704 646.324036,419.589233 
	C637.821472,450.424133 624.869629,479.246185 608.173828,506.782104 
z"/>
<path fill="#020203" opacity="1.000000" stroke="none" 
	d="
M447.406738,637.939331 
	C440.668610,637.780945 434.391174,637.433777 428.109894,637.336243 
	C420.588226,637.219360 415.541443,632.995422 411.167358,626.978760 
	C412.729431,624.873535 414.253479,623.354309 415.785980,621.843567 
	C422.825989,614.903198 429.868347,607.965210 436.939697,600.988037 
	C436.969482,600.949768 437.055450,600.994751 437.371735,600.718628 
	C437.808594,599.460327 438.033325,598.478210 438.034576,597.495911 
	C438.068420,570.833069 438.085846,544.170166 438.071777,517.507324 
	C438.071198,516.378662 437.741577,515.250061 437.475464,513.653748 
	C437.432007,495.465729 437.478363,477.745392 437.524719,460.025085 
	C438.364777,459.353577 439.204651,458.103699 440.044891,458.103455 
	C445.960022,458.101654 451.875244,458.357056 458.124573,458.708954 
	C458.572296,460.872040 458.783997,462.856445 458.785004,464.840942 
	C458.804535,503.999359 458.799683,543.157776 458.799774,582.316223 
	C458.799774,584.636780 458.799713,586.957397 458.799713,588.113281 
	C464.564209,591.860657 469.544891,595.098450 475.348755,598.871460 
	C464.151031,608.238342 455.820221,617.583313 459.074951,632.601013 
	C458.949554,634.483643 458.724701,635.903320 458.414642,637.861206 
	C454.882324,637.861206 451.374023,637.861206 447.406738,637.939331 
z"/>
<path fill="#030303" opacity="1.000000" stroke="none" 
	d="
M59.241917,459.037598 
	C62.621578,459.006348 66.001236,458.975128 70.268539,458.880981 
	C73.740135,458.968719 76.324089,459.119385 78.906494,459.721771 
	C79.011261,485.036530 79.106384,509.899628 79.247269,534.762512 
	C79.257416,536.552856 79.601479,538.341370 79.796127,540.366333 
	C79.801987,540.601990 80.045265,541.005798 80.045265,541.005798 
	C79.975357,566.799683 79.902489,592.593567 79.837753,618.387451 
	C79.822762,624.361084 79.835541,630.334839 79.835541,636.654907 
	C72.746086,636.654907 65.861794,636.654907 58.405807,636.654907 
	C58.405807,593.780457 58.405807,550.875122 58.296928,507.515625 
	C58.188053,507.061462 58.359791,507.251709 58.639965,506.807861 
	C59.027401,490.588531 59.134659,474.813049 59.241917,459.037598 
z"/>
<path fill="#096796" opacity="1.000000" stroke="none" 
	d="
M650.573792,272.606293 
	C644.333862,291.394592 638.156250,309.774841 632.055481,328.180634 
	C628.455200,339.042694 625.069092,349.976410 621.401062,360.815125 
	C619.747498,365.701233 618.808411,370.383087 621.482178,375.229736 
	C622.075439,376.305237 621.897522,377.806213 621.812012,379.579254 
	C621.549377,380.047241 621.150635,380.169708 620.671265,380.095703 
	C592.762085,380.078156 565.332336,380.134613 537.726318,380.123962 
	C537.550110,380.056854 537.197327,379.923523 537.197327,379.923523 
	C538.346436,376.788330 539.495605,373.653107 541.284302,370.274658 
	C542.931396,370.023376 543.939026,370.015320 545.244446,370.307678 
	C564.154785,370.714203 582.767212,370.828583 601.379822,370.886993 
	C601.948425,370.888794 602.518921,370.307953 603.404175,369.826782 
	C604.492249,367.028839 605.264648,364.402924 606.037048,361.777008 
	C611.106506,346.525513 616.255798,331.300018 621.227112,316.016602 
	C629.249329,291.353638 637.154358,266.652527 645.402222,241.309814 
	C650.955933,224.632294 656.216370,208.612473 661.723999,192.826660 
	C665.574829,196.484283 669.786804,197.725769 674.659302,196.597855 
	C666.662354,221.801559 658.665344,247.005249 650.573792,272.606293 
z"/>
<path fill="#6BBBF9" opacity="1.000000" stroke="none" 
	d="
M483.930389,75.869461 
	C484.279297,68.791023 484.490021,61.701462 485.058197,54.640659 
	C485.237579,52.411831 486.373657,50.259983 487.114075,47.713898 
	C496.594177,31.341787 510.679657,27.419842 525.071472,31.066256 
	C532.739319,33.009014 538.786560,37.547913 543.005005,45.180935 
	C541.750610,51.886288 544.107788,56.366898 548.705688,60.445999 
	C548.582764,65.857437 548.401550,70.804611 547.740845,75.837402 
	C526.151062,75.905174 505.040741,75.887314 483.930389,75.869461 
z"/>
<path fill="#A4D7E6" opacity="1.000000" stroke="none" 
	d="
M80.339890,541.154175 
	C80.045265,541.005798 79.801987,540.601990 79.934616,539.906738 
	C80.067238,512.569275 80.067238,485.927002 80.067238,459.094513 
	C84.428276,459.094513 88.218498,459.094513 92.172028,459.393616 
	C99.614998,473.870911 110.159721,484.677155 124.863068,491.188049 
	C128.605576,492.845276 132.349197,494.500031 135.614868,496.157684 
	C125.068535,496.273132 114.999611,496.386810 104.730232,496.435486 
	C104.244072,496.468414 104.045982,496.657959 103.591461,496.999420 
	C99.998199,498.455322 98.869225,500.875244 99.790413,504.264771 
	C100.706703,507.636169 103.066528,508.965546 106.413445,509.101440 
	C111.692810,509.315826 116.967155,509.653870 122.243622,509.939514 
	C109.925201,514.317810 102.230560,522.251648 102.122574,536.048401 
	C102.064194,543.507263 101.971802,550.965881 101.879738,558.424438 
	C101.871620,559.082458 101.751938,559.739197 101.408783,560.711182 
	C94.300507,554.451416 87.467514,547.876953 80.339890,541.154175 
z"/>
<path fill="#0D6997" opacity="1.000000" stroke="none" 
	d="
M565.148682,51.798264 
	C579.191040,67.963196 593.310181,84.062195 607.257751,100.308525 
	C628.145264,124.638756 648.912231,149.072525 669.403442,173.892487 
	C665.964050,176.938187 662.851624,179.553665 659.456055,182.001099 
	C626.783325,144.189896 594.385315,106.553963 562.022461,68.887878 
	C559.775757,66.273010 557.790039,63.433830 555.990845,60.526588 
	C560.886963,59.196754 563.490173,55.986069 565.148682,51.798264 
z"/>
<path fill="#9AC6D3" opacity="1.000000" stroke="none" 
	d="
M197.622864,631.067871 
	C197.163620,617.597046 197.021744,604.121094 196.983780,590.644836 
	C196.935486,573.494995 196.980194,556.344849 196.959015,539.194824 
	C196.956558,537.202087 196.900604,535.197266 196.679840,533.219238 
	C195.926926,526.473450 197.237991,524.386719 204.514023,522.008850 
	C204.514023,558.926941 204.514023,595.598572 204.331268,632.630493 
	C202.094467,632.348022 200.040421,631.705261 197.622864,631.067871 
z"/>
<path fill="#E3D40D" opacity="1.000000" stroke="none" 
	d="
M565.117371,51.399193 
	C563.490173,55.986069 560.886963,59.196754 555.621704,60.471855 
	C552.845581,60.386902 550.746521,60.184315 548.647461,59.981728 
	C544.107788,56.366898 541.750610,51.886288 543.135010,45.504684 
	C544.549805,43.631577 545.800476,42.072544 547.288757,40.789051 
	C550.613586,37.921841 554.369080,37.409573 558.404846,39.201263 
	C563.545105,41.483315 564.849304,45.940090 565.117371,51.399193 
z"/>
<path fill="#E2D30E" opacity="1.000000" stroke="none" 
	d="
M659.739197,182.169128 
	C662.851624,179.553665 665.964050,176.938187 669.392395,174.230103 
	C673.036560,175.765305 677.199402,176.632767 679.519287,179.179214 
	C684.344482,184.475601 682.238281,191.208954 674.868958,196.426453 
	C669.786804,197.725769 665.574829,196.484283 661.648560,192.436981 
	C660.797058,188.598557 660.268127,185.383835 659.739197,182.169128 
z"/>
<path fill="#D6D6D6" opacity="1.000000" stroke="none" 
	d="
M347.989960,229.039749 
	C413.152069,229.026520 478.314148,229.008041 543.476257,229.008957 
	C549.312256,229.009033 552.591003,231.767303 551.885559,237.462936 
	C550.546021,248.278625 548.605835,259.034119 546.546936,269.743805 
	C540.800964,299.632446 534.914001,329.494354 528.934265,359.337067 
	C528.332153,362.341827 527.001831,365.300232 525.508240,368.003113 
	C523.343262,371.920837 520.721130,375.585907 517.709106,379.759247 
	C450.075500,380.161926 383.026764,380.167236 315.977997,380.153198 
	C313.653870,380.152710 311.329803,379.959259 309.191772,379.548553 
	C310.246826,377.215454 311.115845,375.189545 312.073975,372.955933 
	C314.894379,373.967743 317.593140,374.935883 320.291901,375.904022 
	C320.172119,374.236847 319.701416,373.075806 318.852142,372.619507 
	C315.104645,370.606293 314.497681,367.239349 315.110077,363.651550 
	C316.719879,354.220551 318.514496,344.819031 320.370880,335.432556 
	C325.557159,309.208832 330.663361,282.967682 336.115295,256.798889 
	C338.191528,246.833130 337.975586,235.689743 347.989960,229.039749 
M457.225525,309.532898 
	C462.664795,300.369446 460.477722,292.073669 454.358307,285.017975 
	C455.925842,281.965088 457.180786,279.521027 458.870575,276.230011 
	C450.736572,275.911438 443.749695,277.537415 437.150696,274.230957 
	C435.377533,273.342468 433.596466,274.998077 434.821655,277.515137 
	C435.748474,279.419159 436.781097,281.271698 437.531647,282.700012 
	C433.781067,285.851349 429.998718,288.554535 426.797760,291.826477 
	C421.563843,297.176392 420.374420,306.041779 423.581024,312.152466 
	C426.755829,318.202515 433.436035,321.828003 439.622528,320.881836 
	C446.898254,319.769073 452.626953,316.166656 457.225525,309.532898 
z"/>
<path fill="#F3BC7C" opacity="1.000000" stroke="none" 
	d="
M147.488022,183.297791 
	C145.918198,178.424545 144.646683,173.786697 143.132523,169.229462 
	C142.632111,167.723419 141.837646,165.802628 140.605164,165.145950 
	C136.497971,162.957672 136.040482,159.364059 136.028580,155.426712 
	C136.009949,149.262100 136.069214,143.096451 135.972977,136.933167 
	C135.909119,132.842743 137.453903,128.916046 141.287170,128.477127 
	C143.773697,128.192413 147.699738,130.678772 149.162399,133.046722 
	C154.010101,140.894821 158.033493,149.252090 162.470276,157.596741 
	C169.778000,153.487427 173.945114,147.190918 173.936249,138.738800 
	C173.924377,127.427483 173.277496,116.118011 173.053406,104.804771 
	C173.008255,102.525497 173.456619,100.190681 173.989014,97.955704 
	C174.955841,93.896996 178.025482,91.887505 181.799377,92.721260 
	C186.577423,93.776863 191.364120,95.406662 195.710815,97.638496 
	C200.604706,100.151291 200.416153,104.003311 195.803406,107.292183 
	C194.600937,108.149529 193.314819,108.889565 191.362473,110.131859 
	C197.924927,113.432404 204.035156,112.122086 209.953262,110.743614 
	C215.844727,109.371346 221.577194,107.316483 228.232910,106.461189 
	C226.671051,109.215683 225.109192,111.970177 223.404053,114.977364 
	C228.988937,114.977364 234.779526,115.695099 240.312637,114.807617 
	C248.427811,113.505981 256.755432,111.982712 264.234131,108.781837 
	C269.561127,106.501892 273.640228,101.306259 278.561829,97.277145 
	C279.724640,111.568634 278.765106,125.809311 274.648590,139.748642 
	C274.235504,141.147369 274.186493,142.653595 273.661774,144.847137 
	C273.257202,155.069611 273.159363,164.554871 273.061554,174.040131 
	C270.694000,196.778976 249.804733,224.948547 224.759720,228.629303 
	C221.823944,229.060760 218.812332,229.019516 215.833252,229.101837 
	C212.476471,229.194641 210.590485,230.400162 210.947403,234.202271 
	C211.224838,237.157639 211.002884,240.159866 211.002884,244.227295 
	C223.274063,244.227295 235.299820,244.227295 247.204956,244.536575 
	C236.472931,244.833359 225.858124,244.680832 215.253143,244.936020 
	C213.319870,244.982544 210.903137,246.236588 209.611237,247.718994 
	C205.432617,252.513779 201.674042,257.674652 197.702179,262.760315 
	C190.512131,256.250458 183.756134,250.133575 177.000137,244.016708 
	C177.321869,237.245255 177.660706,230.474548 177.959015,223.702072 
	C178.143311,219.518097 177.030273,216.535934 173.070419,213.786240 
	C161.976883,206.083008 153.058044,196.233490 147.488022,183.297791 
M216.368927,188.108597 
	C212.218384,186.662811 208.067841,185.217026 203.791977,183.727585 
	C202.769165,192.651245 209.585449,203.087601 217.617538,205.679276 
	C225.649643,208.270981 239.094147,204.257980 242.699234,197.924759 
	C234.130600,194.733047 225.614166,191.560776 216.368927,188.108597 
M217.684113,126.412491 
	C207.542297,125.057213 198.440948,128.757294 195.592346,135.531784 
	C200.323853,136.036407 205.017929,136.537048 210.041901,137.072876 
	C207.956619,141.883041 205.984726,146.366058 211.020523,149.984192 
	C214.180786,152.254776 217.300125,151.566254 220.190231,149.347076 
	C224.697815,145.885864 223.210007,141.839767 220.975754,137.694046 
	C223.356949,136.251007 225.592087,134.896469 229.248627,132.680542 
	C225.097916,130.383148 221.778931,128.546112 217.684113,126.412491 
M253.734055,139.136795 
	C251.550278,143.110764 251.264481,147.371323 255.454636,149.608856 
	C257.865509,150.896255 262.274139,150.946243 264.514099,149.536392 
	C269.395782,146.463806 267.552612,141.606781 265.297424,137.211166 
	C268.374512,136.360764 271.078796,135.613388 273.871490,134.841583 
	C265.957336,125.391777 253.428421,125.198158 249.210129,134.073074 
	C250.847916,135.548370 252.434799,136.977814 253.734055,139.136795 
M240.032227,151.567474 
	C239.320740,150.799911 238.609253,150.032349 237.541412,148.880341 
	C235.881012,153.510437 234.602310,157.628723 232.947861,161.590088 
	C227.056152,175.697052 229.820557,172.955292 241.498566,175.852600 
	C245.002945,176.722031 247.975937,175.372086 246.875244,171.263931 
	C245.138382,164.781494 242.635391,158.504318 240.032227,151.567474 
z"/>
<path fill="#6E0303" opacity="1.000000" stroke="none" 
	d="
M176.581360,244.090240 
	C183.756134,250.133575 190.512131,256.250458 197.702179,262.760315 
	C201.674042,257.674652 205.432617,252.513779 209.611237,247.718994 
	C210.903137,246.236588 213.319870,244.982544 215.253143,244.936020 
	C225.858124,244.680832 236.472931,244.833359 247.545578,244.769424 
	C255.492355,246.134979 259.690979,251.024704 262.188751,257.900360 
	C265.980591,268.338287 269.933197,278.717773 273.460266,289.538879 
	C264.804138,294.262573 256.505249,298.569519 247.994324,302.604767 
	C246.448776,300.359039 245.115234,298.385040 243.781693,296.411041 
	C243.395355,296.483459 243.009003,296.555878 242.622665,296.628296 
	C242.622665,314.087646 242.622665,331.547028 242.358810,349.318756 
	C232.137054,349.782043 222.168365,349.709137 212.226334,350.188873 
	C207.971573,350.394165 205.363937,348.682892 203.099960,345.509521 
	C196.827255,336.717255 190.502777,327.961731 184.169510,319.212891 
	C176.101303,308.067383 168.004395,296.942657 159.887207,285.763977 
	C151.634689,292.256439 143.816177,298.407471 135.770050,304.359680 
	C132.264893,299.831970 128.987366,295.503082 125.709839,291.174225 
	C121.486023,282.671783 117.306374,274.192200 116.956818,264.382233 
	C116.508827,251.809967 122.690659,244.850937 135.223206,244.590149 
	C148.866714,244.306229 162.515884,244.294296 176.581360,244.090240 
z"/>
<path fill="#C6920B" opacity="1.000000" stroke="none" 
	d="
M309.005707,379.855743 
	C311.329803,379.959259 313.653870,380.152710 315.977997,380.153198 
	C383.026764,380.167236 450.075500,380.161926 517.594727,380.080688 
	C518.065186,380.001617 518.526184,380.166412 519.097778,380.462036 
	C525.116882,380.596771 530.564453,380.435913 536.011963,380.275055 
	C536.211731,380.224182 536.411560,380.173279 536.904297,380.022949 
	C537.197327,379.923523 537.550110,380.056854 538.067749,380.374573 
	C539.237915,380.792908 539.890320,380.980957 540.542847,380.981537 
	C566.153809,381.004700 591.764709,381.022858 617.375610,380.982941 
	C618.634338,380.980957 619.892334,380.452820 621.150635,380.169678 
	C621.150635,380.169708 621.549377,380.047241 621.749390,379.987793 
	C622.123352,379.988770 622.297180,380.049133 623.067383,380.430237 
	C631.235229,380.750977 638.806641,380.750977 646.547607,380.750977 
	C646.547607,386.643494 646.547607,391.641022 646.547607,396.997650 
	C639.317017,396.997650 632.529541,396.906738 625.745789,397.026947 
	C620.491516,397.120026 615.241943,397.477112 609.990295,397.716858 
	C609.512878,397.768494 609.035522,397.820099 608.003784,397.942993 
	C607.449524,398.014252 607.029297,397.967316 606.730103,397.673401 
	C604.451843,397.255798 602.472778,397.024170 600.493713,397.023804 
	C474.642273,397.000977 348.790833,396.996887 222.600037,396.799500 
	C222.167343,392.351898 222.074005,388.095886 221.995056,383.433105 
	C223.179062,382.342621 224.273331,381.364624 225.535278,381.041443 
	C227.634781,380.503754 229.841858,380.386078 232.467621,380.165710 
	C258.289642,380.111847 283.647675,379.983795 309.005707,379.855743 
z"/>
<path fill="#F3BC7C" opacity="1.000000" stroke="none" 
	d="
M232.003632,380.091522 
	C229.841858,380.386078 227.634781,380.503754 225.535278,381.041443 
	C224.273331,381.364624 223.179062,382.342621 221.706146,383.309235 
	C220.962799,382.678223 220.522751,381.764282 219.738785,380.618103 
	C210.575165,380.361511 201.755478,380.337219 192.675507,380.279541 
	C192.245544,380.203766 192.075836,380.161346 191.862122,379.861053 
	C191.537018,379.426544 191.255905,379.249878 190.679672,378.911438 
	C188.010086,376.000732 185.469879,373.376709 183.288284,370.482361 
	C170.231995,353.160522 157.258270,335.776398 144.153992,318.048828 
	C141.366638,313.309113 138.682159,308.933807 135.997681,304.558472 
	C143.816177,298.407471 151.634689,292.256439 159.887207,285.763977 
	C168.004395,296.942657 176.101303,308.067383 184.169510,319.212891 
	C190.502777,327.961731 196.827255,336.717255 203.099960,345.509521 
	C205.363937,348.682892 207.971573,350.394165 212.226334,350.188873 
	C222.168365,349.709137 232.137054,349.782043 242.559662,349.673889 
	C252.070648,349.768646 261.116943,349.820679 270.620483,349.905273 
	C281.371582,349.940643 291.665466,349.943390 301.959320,349.946167 
	C302.161194,349.976257 302.363037,350.006348 303.152771,350.318207 
	C306.013275,350.810120 308.285889,351.020264 311.200287,351.289734 
	C310.704376,354.812836 310.387299,358.050079 309.773376,361.230011 
	C308.309265,368.813293 308.252686,368.813721 300.440521,368.816223 
	C279.670959,368.822845 258.901367,368.814575 238.131805,368.823242 
	C234.985641,368.824554 231.047287,368.303314 230.196228,372.148193 
	C229.665665,374.545197 231.326340,377.427185 232.003632,380.091522 
z"/>
<path fill="#FAFCFC" opacity="1.000000" stroke="none" 
	d="
M659.456055,182.001099 
	C660.268127,185.383835 660.797058,188.598557 661.401367,192.202972 
	C656.216370,208.612473 650.955933,224.632294 645.449402,240.933533 
	C644.010315,238.891602 642.459167,236.682007 641.679382,234.227341 
	C633.345825,207.996155 621.726685,183.245773 606.842346,160.185791 
	C599.531189,148.858795 590.441345,138.679901 581.796997,127.499649 
	C580.915894,119.003159 580.394226,110.988457 579.956909,102.594971 
	C578.192200,98.060974 576.889587,93.537361 574.385925,89.823402 
	C568.223755,80.682381 558.593445,77.386597 548.220337,75.751778 
	C548.401550,70.804611 548.582764,65.857437 548.705688,60.445999 
	C550.746521,60.184315 552.845581,60.386902 555.313843,60.644226 
	C557.790039,63.433830 559.775757,66.273010 562.022461,68.887878 
	C594.385315,106.553963 626.783325,144.189896 659.456055,182.001099 
z"/>
<path fill="#076696" opacity="1.000000" stroke="none" 
	d="
M579.872559,102.973755 
	C580.394226,110.988457 580.915894,119.003159 581.474121,127.482803 
	C581.387024,131.198410 579.846497,132.177383 576.502075,132.166595 
	C536.563232,132.037735 496.623688,132.030457 456.684906,132.163406 
	C452.111115,132.178619 450.447937,130.774368 450.873718,126.122276 
	C451.570099,118.514725 451.802856,110.864754 452.636292,103.179420 
	C453.378052,103.399597 453.714783,103.673027 454.514832,103.961494 
	C494.098175,103.984352 533.218140,104.003685 572.338074,103.957672 
	C573.896729,103.955841 575.454529,103.333138 577.370483,103.006783 
	C578.442993,103.000481 579.157776,102.987122 579.872559,102.973755 
z"/>
<path fill="#0779B1" opacity="1.000000" stroke="none" 
	d="
M454.051483,103.946457 
	C453.714783,103.673027 453.378052,103.399597 452.896332,102.825394 
	C454.169250,90.380310 463.461029,80.575218 476.815430,77.206833 
	C478.892761,76.682884 481.027863,76.387833 483.533325,75.928200 
	C505.040741,75.887314 526.151062,75.905174 547.740906,75.837402 
	C558.593445,77.386597 568.223755,80.682381 574.385925,89.823402 
	C576.889587,93.537361 578.192200,98.060974 579.956909,102.594971 
	C579.157776,102.987122 578.442993,103.000481 576.900391,103.011429 
	C537.129456,103.006386 498.186340,102.991631 459.243317,103.041206 
	C457.512329,103.043411 455.782074,103.631348 454.051483,103.946457 
z"/>
<path fill="#FBFCFB" opacity="1.000000" stroke="none" 
	d="
M232.467621,380.165710 
	C231.326340,377.427185 229.665665,374.545197 230.196228,372.148193 
	C231.047287,368.303314 234.985641,368.824554 238.131805,368.823242 
	C258.901367,368.814575 279.670959,368.822845 300.440521,368.816223 
	C308.252686,368.813721 308.309265,368.813293 309.773376,361.230011 
	C310.387299,358.050079 310.704376,354.812836 311.200287,351.289734 
	C308.285889,351.020264 306.013275,350.810120 303.457123,350.351074 
	C311.473785,350.046600 311.409698,350.033752 313.096252,341.627319 
	C318.591217,314.238525 324.149353,286.862366 329.654266,259.475586 
	C330.859619,253.478912 331.758118,247.414978 333.132141,241.459122 
	C335.010834,233.315872 338.732544,230.188217 347.592346,229.027039 
	C337.975586,235.689743 338.191528,246.833130 336.115295,256.798889 
	C330.663361,282.967682 325.557159,309.208832 320.370880,335.432556 
	C318.514496,344.819031 316.719879,354.220551 315.110077,363.651550 
	C314.497681,367.239349 315.104645,370.606293 318.852142,372.619507 
	C319.701416,373.075806 320.172119,374.236847 320.291901,375.904022 
	C317.593140,374.935883 314.894379,373.967743 312.073975,372.955933 
	C311.115845,375.189545 310.246826,377.215454 309.191772,379.548553 
	C283.647675,379.983795 258.289642,380.111847 232.467621,380.165710 
z"/>
<path fill="#CC9258" opacity="1.000000" stroke="none" 
	d="
M301.960999,349.582764 
	C291.665466,349.943390 281.371582,349.940643 270.495300,349.574341 
	C262.677368,333.765991 255.441864,318.321259 248.206345,302.876495 
	C256.505249,298.569519 264.804138,294.262573 273.453064,289.900421 
	C283.189606,309.636597 292.576141,329.427979 301.960999,349.582764 
z"/>
<path fill="#0C7BB0" opacity="1.000000" stroke="none" 
	d="
M605.879211,361.423035 
	C605.264648,364.402924 604.492249,367.028839 602.925171,369.831238 
	C583.069214,370.007538 564.007935,370.007385 544.946594,370.007263 
	C543.939026,370.015320 542.931396,370.023376 541.546875,370.039154 
	C545.629211,362.603485 552.309082,359.497253 560.833313,359.906860 
	C562.991821,360.010559 565.159607,359.921448 568.227661,359.914948 
	C571.972656,359.888702 574.813171,359.868439 577.653687,359.848206 
	C584.931274,359.878693 592.210693,359.829071 599.485413,359.990356 
	C601.571045,360.036560 603.643066,360.692627 605.879211,361.423035 
z"/>
<path fill="#E3D71A" opacity="1.000000" stroke="none" 
	d="
M577.680054,359.519867 
	C574.813171,359.868439 571.972656,359.888702 568.709717,359.870239 
	C564.456970,355.904327 560.626160,351.977448 556.796326,348.049622 
	C554.861938,346.065765 553.529053,343.544037 556.229492,341.744049 
	C557.478333,340.911621 560.823914,341.459625 562.021851,342.618835 
	C567.482544,347.902832 572.518127,353.626129 577.680054,359.519867 
z"/>
<path fill="#E2D4B7" opacity="1.000000" stroke="none" 
	d="
M273.328644,173.719604 
	C273.159363,164.554871 273.257202,155.069611 273.625580,145.265289 
	C273.795990,154.430511 273.695862,163.914780 273.328644,173.719604 
z"/>
<path fill="#C6A147" opacity="1.000000" stroke="none" 
	d="
M535.553833,380.171753 
	C530.564453,380.435913 525.116882,380.596771 519.334839,380.523163 
	C524.365417,380.215271 529.730591,380.141846 535.553833,380.171753 
z"/>
<path fill="#9E6703" opacity="1.000000" stroke="none" 
	d="
M191.906113,380.118927 
	C192.075836,380.161346 192.245544,380.203766 193.023621,380.496826 
	C202.448914,380.781799 211.265808,380.816101 220.082703,380.850403 
	C220.522751,381.764282 220.962799,382.678223 221.691757,383.716003 
	C222.074005,388.095886 222.167343,392.351898 222.892181,397.109222 
	C225.004196,397.733002 226.484695,397.962463 227.965225,397.962616 
	C354.319916,397.975586 480.674591,397.970825 607.029297,397.967316 
	C607.029297,397.967316 607.449524,398.014252 607.658569,398.046143 
	C607.874573,407.774078 607.881470,417.470184 607.825439,427.640076 
	C605.430786,428.074615 603.099121,428.001251 600.767456,428.000946 
	C469.794220,427.983429 338.821014,427.971985 207.146423,427.607056 
	C205.971207,425.789764 205.136230,424.337067 205.088104,422.858765 
	C204.911209,417.424591 205.100204,411.978699 204.934982,406.543793 
	C204.858078,404.013916 204.284622,401.499115 203.728470,398.886078 
	C203.261078,398.611206 203.094894,398.364746 202.736450,397.742767 
	C200.472672,397.293030 198.494675,397.037262 196.516510,397.035858 
	C140.686417,396.996521 84.856293,396.982849 29.026176,396.964966 
	C28.988258,391.970276 28.950342,386.975555 29.471241,381.534271 
	C38.458153,381.067261 46.887444,381.125427 55.313908,380.997528 
	C60.554111,380.917999 65.790047,380.556885 71.027893,380.322144 
	C71.208183,380.291321 71.388481,380.260498 72.012543,380.235168 
	C72.456314,380.240723 72.817345,380.322479 73.185135,380.543396 
	C74.044167,380.841003 74.535400,380.984711 75.026649,380.984772 
	C112.476448,380.989624 149.926254,380.992706 187.375977,380.934662 
	C188.591232,380.932800 189.805511,380.297882 191.008484,379.984802 
	C190.996704,380.011505 190.947144,379.980682 191.183578,380.038208 
	C191.420013,380.095703 191.906113,380.118927 191.906113,380.118927 
z"/>
<path fill="#A6DAE8" opacity="1.000000" stroke="none" 
	d="
M437.382172,459.595703 
	C437.478363,477.745392 437.432007,495.465729 437.326599,514.088135 
	C437.196838,543.658386 437.126129,572.326599 437.055420,600.994751 
	C437.055450,600.994751 436.969482,600.949768 436.649963,600.833313 
	C407.190002,571.696655 378.055206,542.670837 348.904877,513.660522 
	C342.087036,506.875458 334.287994,501.619110 325.037598,498.204102 
	C325.010406,491.976776 325.049408,486.195282 324.987061,480.414856 
	C324.897980,472.156372 322.208496,465.259674 314.703247,460.842529 
	C313.648132,460.221588 312.934265,459.020844 312.062469,458.088440 
	C352.649597,458.060455 393.236725,458.023010 433.823822,458.053345 
	C434.962677,458.054199 436.101044,458.779083 437.382172,459.595703 
z"/>
<path fill="#2C6896" opacity="1.000000" stroke="none" 
	d="
M311.693909,457.879059 
	C312.934265,459.020844 313.648132,460.221588 314.703247,460.842529 
	C322.208496,465.259674 324.897980,472.156372 324.987061,480.414856 
	C325.049408,486.195282 325.010406,491.976776 325.020081,498.700500 
	C325.295990,514.169250 325.568542,528.695312 325.841064,543.221375 
	C325.560150,544.985168 325.043762,546.747742 325.034210,548.513000 
	C324.920013,569.670715 324.880951,590.828796 324.428131,612.526184 
	C312.017609,613.347961 300.001221,613.630371 287.984802,613.912720 
	C287.696899,603.103027 287.245270,592.294739 287.156738,581.483398 
	C286.994385,561.657043 287.046204,541.828918 287.003479,521.063354 
	C286.999237,513.875977 287.229645,507.613190 286.861298,501.385773 
	C286.751160,499.523315 284.967377,497.759827 283.661377,495.657959 
	C272.994110,495.246216 262.615967,495.091095 252.237427,495.052368 
	C250.849915,495.047180 249.460190,495.630920 247.640015,495.964294 
	C244.472412,496.354645 241.736267,496.722626 238.582581,497.048340 
	C237.526001,496.880737 236.878479,496.788025 236.249176,496.625031 
	C227.573257,494.378082 225.972748,495.548279 225.979568,504.160522 
	C225.980865,505.796509 226.005707,507.432526 226.019470,509.233704 
	C226.019272,509.398926 226.013458,509.729279 226.013458,509.729279 
	C225.709503,508.846222 225.143585,507.964050 225.140457,507.079956 
	C225.084793,491.247284 225.093460,475.414398 225.109009,459.581543 
	C225.109634,458.949005 225.314560,458.316650 225.474182,457.396637 
	C226.690186,457.283661 227.807770,457.089935 228.925476,457.089203 
	C254.924881,457.071838 280.924316,457.065826 306.923706,457.100555 
	C308.391144,457.102509 309.858154,457.471497 311.693909,457.879059 
z"/>
<path fill="#885503" opacity="1.000000" stroke="none" 
	d="
M203.022141,398.055298 
	C203.094894,398.364746 203.261078,398.611206 203.763885,399.356506 
	C203.996033,407.564240 204.150696,415.216797 203.845444,422.850983 
	C203.777786,424.542816 202.086044,426.169678 201.142120,427.826477 
	C176.221710,427.883148 151.301331,427.957764 126.380882,427.991119 
	C103.949875,428.021118 81.518806,428.005768 58.630951,428.030701 
	C58.065075,423.720001 57.956013,419.389038 57.959694,414.130005 
	C58.072441,408.279327 58.072441,403.356689 58.072441,398.055298 
	C106.842293,398.055298 154.932220,398.055298 203.022141,398.055298 
z"/>
<path fill="#2B6694" opacity="1.000000" stroke="none" 
	d="
M203.878525,458.200134 
	C204.227386,459.052490 204.877563,459.903870 204.880371,460.757385 
	C204.930771,476.059784 204.908813,491.362427 204.870316,506.664978 
	C204.868729,507.297028 204.554337,507.928314 203.837082,508.831665 
	C203.288483,509.103333 202.973663,508.886749 202.988739,508.474762 
	C203.317230,504.052429 203.630676,500.042053 203.692749,495.695923 
	C192.212601,495.232910 180.983063,495.147858 169.755859,494.938049 
	C167.828873,494.902069 165.911835,494.334290 163.636108,493.983185 
	C148.639618,486.939270 139.088928,476.666077 141.436829,459.056213 
	C160.814606,459.016602 179.720978,459.021576 198.627090,458.951569 
	C200.378479,458.945099 202.128082,458.461945 203.878525,458.200134 
z"/>
<path fill="#0A6D9E" opacity="1.000000" stroke="none" 
	d="
M140.965378,459.080353 
	C139.088928,476.666077 148.639618,486.939270 163.634705,494.301575 
	C164.024872,495.071106 164.062347,495.493225 163.637451,495.946625 
	C159.776306,495.704285 156.381302,495.312531 152.977249,495.203430 
	C151.080460,495.142639 149.172836,495.632782 147.262665,495.732452 
	C143.541977,495.926483 139.816055,496.020477 136.092300,496.155914 
	C132.349197,494.500031 128.605576,492.845276 124.863068,491.188049 
	C110.159721,484.677155 99.614998,473.870911 92.630234,459.360046 
	C100.561554,458.714386 108.198006,458.401459 115.834450,458.088531 
	C123.594086,458.082611 131.353729,458.076691 139.675018,458.317078 
	C140.430939,458.804260 140.673843,458.976593 140.965378,459.080353 
z"/>
<path fill="#07557C" opacity="1.000000" stroke="none" 
	d="
M135.614868,496.157684 
	C139.816055,496.020477 143.541977,495.926483 147.262665,495.732452 
	C149.172836,495.632782 151.080460,495.142639 152.977249,495.203430 
	C156.381302,495.312531 159.776306,495.704285 164.096237,495.952209 
	C177.992966,495.961609 190.968536,495.996674 203.944122,496.031708 
	C203.630676,500.042053 203.317230,504.052429 202.522736,508.502808 
	C193.762634,509.022736 185.483597,509.102661 176.725235,509.103333 
	C163.522156,509.022980 150.798401,509.021820 138.074631,509.020691 
	C133.074707,509.364258 128.074783,509.707855 122.659241,509.995483 
	C116.967155,509.653870 111.692810,509.315826 106.413445,509.101440 
	C103.066528,508.965546 100.706703,507.636169 99.790413,504.264771 
	C98.869225,500.875244 99.998199,498.455322 103.781052,496.990417 
	C104.573250,496.858856 104.778587,496.718628 104.930695,496.500488 
	C114.999611,496.386810 125.068535,496.273132 135.614868,496.157684 
z"/>
<path fill="#5C7581" opacity="1.000000" stroke="none" 
	d="
M115.383286,458.063599 
	C108.198006,458.401459 100.561554,458.714386 92.466911,459.060913 
	C88.218498,459.094513 84.428276,459.094513 80.067238,459.094513 
	C80.067238,485.927002 80.067238,512.569275 79.928757,539.671143 
	C79.601479,538.341370 79.257416,536.552856 79.247269,534.762512 
	C79.106384,509.899628 79.011261,485.036530 78.936714,459.410034 
	C78.977455,458.438171 78.986435,458.229675 78.995407,458.021210 
	C90.974312,458.027008 102.953224,458.032837 115.383286,458.063599 
z"/>
<path fill="#9FCCD9" opacity="1.000000" stroke="none" 
	d="
M177.204529,509.182556 
	C185.483597,509.102661 193.762634,509.022736 202.507675,508.914795 
	C202.973663,508.886749 203.288483,509.103333 203.474991,509.062500 
	C199.443054,511.200165 195.332489,513.647705 190.945816,515.406616 
	C189.472580,515.997375 187.219238,515.052063 185.459869,514.423889 
	C182.832108,513.485718 180.326035,512.206665 177.376190,510.700104 
	C177.057648,509.945923 177.131088,509.564270 177.204529,509.182556 
z"/>
<path fill="#B6DDE8" opacity="1.000000" stroke="none" 
	d="
M266.022491,635.538452 
	C265.641602,634.776001 265.040070,633.547607 265.037720,632.318054 
	C264.989716,607.257385 265.008606,582.196716 265.029053,557.135986 
	C265.029449,556.651367 265.209198,556.166870 265.563721,555.363831 
	C265.908356,581.720886 265.994598,608.396484 266.022491,635.538452 
z"/>
<path fill="#5785AA" opacity="1.000000" stroke="none" 
	d="
M141.436829,459.056213 
	C140.673843,458.976593 140.430939,458.804260 140.145325,458.357849 
	C161.025528,458.124786 181.997055,458.097260 203.423553,458.134949 
	C202.128082,458.461945 200.378479,458.945099 198.627090,458.951569 
	C179.720978,459.021576 160.814606,459.016602 141.436829,459.056213 
z"/>
<path fill="#737778" opacity="1.000000" stroke="none" 
	d="
M59.140060,458.793762 
	C59.134659,474.813049 59.027401,490.588531 58.750435,506.742889 
	C58.388279,500.168213 58.091076,493.215546 58.029301,486.260803 
	C57.948051,477.114136 58.052025,467.965820 58.163216,458.348999 
	C58.512787,458.103180 58.775497,458.326538 59.140060,458.793762 
z"/>
<path fill="#447088" opacity="1.000000" stroke="none" 
	d="
M176.725220,509.103363 
	C177.131088,509.564270 177.057648,509.945923 177.022186,510.617493 
	C174.643784,510.607910 172.232193,510.100830 169.810196,510.044922 
	C159.437592,509.805420 149.061920,509.698914 138.381012,509.282288 
	C150.798401,509.021820 163.522156,509.022980 176.725220,509.103363 
z"/>
<path fill="#AE8949" opacity="1.000000" stroke="none" 
	d="
M201.550415,427.883057 
	C202.086044,426.169678 203.777786,424.542816 203.845444,422.850983 
	C204.150696,415.216797 203.996033,407.564240 203.971680,399.447876 
	C204.284622,401.499115 204.858078,404.013916 204.934982,406.543793 
	C205.100204,411.978699 204.911209,417.424591 205.088104,422.858765 
	C205.136230,424.337067 205.971207,425.789764 206.674408,427.554382 
	C205.255402,427.882904 203.607071,427.911255 201.550415,427.883057 
z"/>
<path fill="#3E7996" opacity="1.000000" stroke="none" 
	d="
M226.474640,509.818298 
	C226.013458,509.729279 226.019272,509.398926 226.485733,509.215881 
	C236.694107,509.066162 246.436005,509.099548 256.177917,509.132904 
	C256.177917,509.132904 256.154022,509.472595 256.142395,509.642426 
	C246.399109,509.843933 236.667465,509.875610 226.474640,509.818298 
z"/>
<path fill="#737778" opacity="1.000000" stroke="none" 
	d="
M78.564804,457.994446 
	C78.986435,458.229675 78.977455,458.438171 78.938248,458.958374 
	C76.324089,459.119385 73.740135,458.968719 70.736099,458.806396 
	C72.922066,458.519043 75.528130,458.243378 78.564804,457.994446 
z"/>
<path fill="#06699A" opacity="1.000000" stroke="none" 
	d="
M72.817345,380.322479 
	C72.817345,380.322479 72.456314,380.240723 72.281548,380.181213 
	C68.275253,363.492371 63.001434,347.038239 60.955139,330.192047 
	C57.992920,305.805511 80.231804,290.814514 97.785881,291.969757 
	C106.753021,292.559845 115.832237,291.446808 125.285324,291.138885 
	C128.987366,295.503082 132.264893,299.831970 135.770050,304.359680 
	C138.682159,308.933807 141.366638,313.309113 144.057800,318.477570 
	C144.083618,339.231079 144.102753,359.191467 143.833603,379.471741 
	C141.396408,379.888214 139.247833,380.059875 137.098511,380.069855 
	C115.671532,380.169312 94.244423,380.242126 72.817345,380.322479 
z"/>
<path fill="#B28C49" opacity="1.000000" stroke="none" 
	d="
M202.736450,397.742767 
	C154.932220,398.055298 106.842293,398.055298 58.072441,398.055298 
	C58.072441,403.356689 58.072441,408.279327 57.978874,413.674438 
	C57.462334,408.949707 57.039360,403.752441 56.548306,397.718628 
	C47.471039,397.718628 38.457104,397.718628 29.234673,397.341797 
	C84.856293,396.982849 140.686417,396.996521 196.516510,397.035858 
	C198.494675,397.037262 200.472672,397.293030 202.736450,397.742767 
z"/>
<path fill="#A88A4E" opacity="1.000000" stroke="none" 
	d="
M70.573212,380.194550 
	C65.790047,380.556885 60.554111,380.917999 55.313908,380.997528 
	C46.887444,381.125427 38.458153,381.067261 29.569605,381.081238 
	C30.151691,380.762299 31.192430,380.184784 32.237041,380.177673 
	C44.863873,380.091949 57.491276,380.090393 70.573212,380.194550 
z"/>
<path fill="#1E4C6C" opacity="1.000000" stroke="none" 
	d="
M326.027466,543.497192 
	C325.568542,528.695312 325.295990,514.169250 325.041016,499.146790 
	C334.287994,501.619110 342.087036,506.875458 348.904877,513.660522 
	C378.055206,542.670837 407.190002,571.696655 436.620178,600.871582 
	C429.868347,607.965210 422.825989,614.903198 415.785980,621.843567 
	C414.253479,623.354309 412.729431,624.873535 411.017578,626.667236 
	C405.896729,622.043457 400.964691,617.136475 396.022064,612.240234 
	C374.267914,590.690552 352.516846,569.137695 330.740112,547.610840 
	C329.337463,546.224243 327.727417,545.047424 326.027466,543.497192 
z"/>
<path fill="#040405" opacity="1.000000" stroke="none" 
	d="
M287.657166,614.177856 
	C300.001221,613.630371 312.017609,613.347961 324.486511,612.986084 
	C328.736572,613.254150 332.556549,613.443787 336.327301,613.979797 
	C346.107239,615.370239 352.879028,623.955261 352.158173,633.655029 
	C351.932343,636.693909 350.672485,638.161621 347.521423,638.140686 
	C333.404480,638.046997 319.275574,638.373413 305.173157,637.894897 
	C292.347504,637.459595 286.077087,628.793762 287.657166,614.177856 
z"/>
<path fill="#1F4E6E" opacity="1.000000" stroke="none" 
	d="
M239.000122,497.090637 
	C241.736267,496.722626 244.472412,496.354645 248.100342,495.976166 
	C260.644897,495.960785 272.297638,495.955902 283.950378,495.950989 
	C284.967377,497.759827 286.751160,499.523315 286.861298,501.385773 
	C287.229645,507.613190 286.999237,513.875977 286.994812,520.599365 
	C277.217865,516.984924 267.444275,512.896301 257.053375,508.529663 
	C255.269669,507.655945 254.035187,507.163422 252.948608,506.446655 
	C248.275452,503.363861 243.645691,500.215271 239.000122,497.090637 
z"/>
<path fill="#07557C" opacity="1.000000" stroke="none" 
	d="
M238.582581,497.048370 
	C243.645691,500.215271 248.275452,503.363861 252.948608,506.446655 
	C254.035187,507.163422 255.269669,507.655945 256.665344,508.475861 
	C256.894592,508.700073 256.599915,509.022766 256.388916,509.077820 
	C246.436005,509.099548 236.694107,509.066162 226.485931,509.050659 
	C226.005707,507.432526 225.980865,505.796509 225.979568,504.160522 
	C225.972748,495.548279 227.573257,494.378082 236.249176,496.625031 
	C236.878479,496.788025 237.526001,496.880737 238.582581,497.048370 
z"/>
<path fill="#C6A147" opacity="1.000000" stroke="none" 
	d="
M610.448608,397.823059 
	C615.241943,397.477112 620.491516,397.120026 625.745789,397.026947 
	C632.529541,396.906738 639.317017,396.997650 646.547607,396.997650 
	C646.547607,391.641022 646.547607,386.643494 646.547607,380.750977 
	C638.806641,380.750977 631.235229,380.750977 623.331055,380.512146 
	C631.085327,380.273285 639.172302,380.273285 647.626709,380.273285 
	C647.626709,386.027679 647.626709,391.707855 647.626709,397.929291 
	C635.314026,397.929291 623.110474,397.929291 610.448608,397.823059 
z"/>
<path fill="#102535" opacity="1.000000" stroke="none" 
	d="
M437.371704,600.718628 
	C437.126129,572.326599 437.196838,543.658386 437.416382,514.555847 
	C437.741577,515.250061 438.071198,516.378662 438.071777,517.507324 
	C438.085846,544.170166 438.068420,570.833069 438.034576,597.495911 
	C438.033325,598.478210 437.808594,599.460327 437.371704,600.718628 
z"/>
<path fill="#C6A147" opacity="1.000000" stroke="none" 
	d="
M620.671265,380.095703 
	C619.892334,380.452820 618.634338,380.980957 617.375610,380.982941 
	C591.764709,381.022858 566.153809,381.004700 540.542847,380.981537 
	C539.890320,380.980957 539.237915,380.792908 538.244019,380.441681 
	C565.332336,380.134613 592.762085,380.078156 620.671265,380.095703 
z"/>
<path fill="#3787B0" opacity="1.000000" stroke="none" 
	d="
M545.244446,370.307678 
	C564.007935,370.007385 583.069214,370.007538 602.609558,370.003235 
	C602.518921,370.307953 601.948425,370.888794 601.379822,370.886993 
	C582.767212,370.828583 564.154785,370.714203 545.244446,370.307678 
z"/>
<path fill="#0A6D9E" opacity="1.000000" stroke="none" 
	d="
M104.730232,496.435486 
	C104.778587,496.718628 104.573250,496.858856 104.125107,496.930115 
	C104.045982,496.657959 104.244072,496.468414 104.730232,496.435486 
z"/>
<path fill="#FEFEFE" opacity="1.000000" stroke="none" 
	d="
M457.063110,309.868103 
	C452.626953,316.166656 446.898254,319.769073 439.622528,320.881836 
	C433.436035,321.828003 426.755829,318.202515 423.581024,312.152466 
	C420.374420,306.041779 421.563843,297.176392 426.797760,291.826477 
	C429.998718,288.554535 433.781067,285.851349 437.531647,282.700012 
	C436.781097,281.271698 435.748474,279.419159 434.821655,277.515137 
	C433.596466,274.998077 435.377533,273.342468 437.150696,274.230957 
	C443.749695,277.537415 450.736572,275.911438 458.870575,276.230011 
	C457.180786,279.521027 455.925842,281.965088 454.358307,285.017975 
	C460.477722,292.073669 462.664795,300.369446 457.063110,309.868103 
z"/>
<path fill="#683522" opacity="1.000000" stroke="none" 
	d="
M216.733322,188.248550 
	C225.614166,191.560776 234.130600,194.733047 242.699234,197.924759 
	C239.094147,204.257980 225.649643,208.270981 217.617538,205.679276 
	C209.585449,203.087601 202.769165,192.651245 203.791977,183.727585 
	C208.067841,185.217026 212.218384,186.662811 216.733322,188.248550 
z"/>
<path fill="#2E3333" opacity="1.000000" stroke="none" 
	d="
M218.072021,126.560776 
	C221.778931,128.546112 225.097916,130.383148 229.248627,132.680542 
	C225.592087,134.896469 223.356949,136.251007 220.975754,137.694046 
	C223.210007,141.839767 224.697815,145.885864 220.190231,149.347076 
	C217.300125,151.566254 214.180786,152.254776 211.020523,149.984192 
	C205.984726,146.366058 207.956619,141.883041 210.041901,137.072876 
	C205.017929,136.537048 200.323853,136.036407 195.592346,135.531784 
	C198.440948,128.757294 207.542297,125.057213 218.072021,126.560776 
z"/>
<path fill="#2E3233" opacity="1.000000" stroke="none" 
	d="
M253.877869,138.772034 
	C252.434799,136.977814 250.847916,135.548370 249.210129,134.073074 
	C253.428421,125.198158 265.957336,125.391777 273.871490,134.841583 
	C271.078796,135.613388 268.374512,136.360764 265.297424,137.211166 
	C267.552612,141.606781 269.395782,146.463806 264.514099,149.536392 
	C262.274139,150.946243 257.865509,150.896255 255.454636,149.608856 
	C251.264481,147.371323 251.550278,143.110764 253.877869,138.772034 
z"/>
<path fill="#CC9257" opacity="1.000000" stroke="none" 
	d="
M240.244446,151.853882 
	C242.635391,158.504318 245.138382,164.781494 246.875244,171.263931 
	C247.975937,175.372086 245.002945,176.722031 241.498566,175.852600 
	C229.820557,172.955292 227.056152,175.697052 232.947861,161.590088 
	C234.602310,157.628723 235.881012,153.510437 237.541412,148.880341 
	C238.609253,150.032349 239.320740,150.799911 240.244446,151.853882 
z"/>
<path fill="#AAD9E5" opacity="1.000000" stroke="none" 
	d="
M247.994324,302.604767 
	C255.441864,318.321259 262.677368,333.765991 270.038055,349.541718 
	C261.116943,349.820679 252.070648,349.768646 242.823517,349.361511 
	C242.622665,331.547028 242.622665,314.087646 242.622665,296.628296 
	C243.009003,296.555878 243.395355,296.483459 243.781693,296.411041 
	C245.115234,298.385040 246.448776,300.359039 247.994324,302.604767 
z"/>
<path fill="#C6A147" opacity="1.000000" stroke="none" 
	d="
M606.730103,397.673401 
	C480.674591,397.970825 354.319916,397.975586 227.965225,397.962616 
	C226.484695,397.962463 225.004196,397.733002 223.231537,397.300842 
	C348.790833,396.996887 474.642273,397.000977 600.493713,397.023804 
	C602.472778,397.024170 604.451843,397.255798 606.730103,397.673401 
z"/>
<path fill="#6E0303" opacity="1.000000" stroke="none" 
	d="
M144.121887,379.151855 
	C144.102753,359.191467 144.083618,339.231079 144.160675,318.841919 
	C157.258270,335.776398 170.231995,353.160522 183.288284,370.482361 
	C185.469879,373.376709 188.010086,376.000732 190.691879,379.138702 
	C190.999191,379.527740 190.947144,379.980682 190.947144,379.980682 
	C190.947144,379.980682 190.996704,380.011505 190.537750,380.003174 
	C176.510269,380.029694 162.941605,380.099213 149.373306,380.056946 
	C147.621902,380.051483 145.872314,379.467712 144.121887,379.151855 
z"/>
<path fill="#A88A4E" opacity="1.000000" stroke="none" 
	d="
M219.738800,380.618103 
	C211.265808,380.816101 202.448914,380.781799 193.283890,380.530212 
	C201.755478,380.337219 210.575165,380.361511 219.738800,380.618103 
z"/>
<path fill="#A88A4E" opacity="1.000000" stroke="none" 
	d="
M191.183578,380.038208 
	C190.947144,379.980682 190.999191,379.527740 190.986984,379.300476 
	C191.255905,379.249878 191.537018,379.426544 191.862122,379.861053 
	C191.906113,380.118927 191.420013,380.095703 191.183578,380.038208 
z"/>
<path fill="#4495BD" opacity="1.000000" stroke="none" 
	d="
M454.514832,103.961494 
	C455.782074,103.631348 457.512329,103.043411 459.243317,103.041206 
	C498.186340,102.991631 537.129456,103.006386 576.542664,103.004364 
	C575.454529,103.333138 573.896729,103.955841 572.338074,103.957672 
	C533.218140,104.003685 494.098175,103.984352 454.514832,103.961494 
z"/>
<path fill="#A88A4E" opacity="1.000000" stroke="none" 
	d="
M143.833603,379.471741 
	C145.872314,379.467712 147.621902,380.051483 149.373306,380.056946 
	C162.941605,380.099213 176.510269,380.029694 190.549530,379.976440 
	C189.805511,380.297882 188.591232,380.932800 187.375977,380.934662 
	C149.926254,380.992706 112.476448,380.989624 75.026649,380.984772 
	C74.535400,380.984711 74.044167,380.841003 73.185135,380.543396 
	C94.244423,380.242126 115.671532,380.169312 137.098511,380.069855 
	C139.247833,380.059875 141.396408,379.888214 143.833603,379.471741 
z"/>
<path fill="#467AA0" opacity="1.000000" stroke="none" 
	d="
M283.661377,495.657959 
	C272.297638,495.955902 260.644897,495.960785 248.531815,495.953827 
	C249.460190,495.630920 250.849915,495.047180 252.237427,495.052368 
	C262.615967,495.091095 272.994110,495.246216 283.661377,495.657959 
z"/>
<path fill="#5C8CAC" opacity="1.000000" stroke="none" 
	d="
M203.692749,495.695923 
	C190.968536,495.996674 177.992966,495.961609 164.558594,495.920959 
	C164.062347,495.493225 164.024872,495.071106 163.988800,494.330566 
	C165.911835,494.334290 167.828873,494.902069 169.755859,494.938049 
	C180.983063,495.147858 192.212601,495.232910 203.692749,495.695923 
z"/>
</svg>