<svg version="1.1" id="Layer_1" xmlns="http://www.w3.org/2000/svg" xmlns:xlink="http://www.w3.org/1999/xlink" x="0px" y="0px"
	 width="100%" viewBox="0 0 507 492" enable-background="new 0 0 507 492" xml:space="preserve">
<path fill="#000000" opacity="1.000000" stroke="none" 
	d="
M508.000000,142.000000 
	C508.000000,258.974701 508.000000,375.949432 508.000000,492.962067 
	C339.061829,492.962067 170.123627,492.962067 1.092718,492.962067 
	C1.092718,329.097290 1.092718,165.194534 1.092718,1.145885 
	C169.999908,1.145885 338.999939,1.145885 508.000000,1.145885 
	C508.000000,45.422356 508.000000,89.746162 507.725952,134.851532 
	C505.189484,132.254242 502.465363,129.607697 498.026062,129.349991 
	C492.555756,122.693863 487.062378,116.391960 481.611633,110.053436 
	C471.668427,98.490776 461.729370,86.924408 451.830750,75.323608 
	C446.834869,69.468590 442.016235,63.460842 436.963104,57.656555 
	C431.470123,51.347095 425.797943,45.193626 420.231262,38.618366 
	C421.302429,34.067513 419.000000,31.622248 415.660767,29.930046 
	C411.320099,27.730350 407.492859,28.960066 403.763672,32.004883 
	C397.535400,24.494497 389.628357,22.236620 380.565155,23.006487 
	C372.495911,23.691921 366.034637,26.806360 362.551453,34.922211 
	C360.820801,34.481747 359.390747,34.161945 358.136993,33.505417 
	C342.530914,25.333244 326.286713,18.776011 309.159363,14.611186 
	C302.614136,13.019591 295.776062,12.596865 289.270203,10.885676 
	C271.655823,6.252688 253.584824,8.951494 235.785339,7.232093 
	C228.591064,6.537135 221.137741,8.170955 213.835007,9.024770 
	C198.779739,10.784989 184.079071,14.060257 169.667297,19.899170 
	C163.147736,18.809128 157.012604,17.765112 150.869919,16.767437 
	C131.336426,13.594874 115.868965,20.590105 103.743843,35.759125 
	C102.040466,37.890118 100.693878,40.306297 98.895798,43.023117 
	C97.706306,40.911366 96.771233,39.251282 95.836159,37.591202 
	C95.372231,37.578239 94.908302,37.565277 94.444382,37.552315 
	C97.915375,45.379368 91.648033,49.079506 86.733543,54.336334 
	C90.013069,54.336334 91.557419,54.336334 93.179001,54.336334 
	C91.052803,59.381310 89.026352,64.189621 86.657356,69.068939 
	C84.900871,70.208778 83.283554,71.091042 82.104958,72.375778 
	C72.104462,83.276901 61.652775,93.822044 52.368610,105.308273 
	C39.673729,121.014198 30.563354,138.951355 22.960699,157.627716 
	C16.893555,172.532013 12.071006,187.820572 9.689594,203.765854 
	C7.909683,215.683655 5.511933,227.643784 5.279992,239.621658 
	C5.030255,252.518600 6.365228,265.544250 8.145107,278.355896 
	C10.071385,292.221313 12.511950,306.124146 16.222124,319.599335 
	C19.341434,330.928528 24.093115,341.906555 29.085516,352.589874 
	C32.909637,360.773163 38.236660,368.254089 42.940250,376.511383 
	C42.981453,407.158417 42.963310,437.341522 43.016945,467.524475 
	C43.019577,469.004761 43.649799,470.483917 44.309113,472.226440 
	C49.445839,472.647247 54.261246,472.805237 59.425636,472.720642 
	C59.858475,448.974091 59.942329,425.470123 60.002686,401.984863 
	C59.979191,402.003601 59.956413,402.059204 60.299206,402.128906 
	C65.372025,407.153107 70.102051,412.107605 74.904678,417.522644 
	C74.985100,434.424988 74.962868,450.866943 75.045586,467.308380 
	C75.054199,469.019043 75.685410,470.726593 76.217857,472.719147 
	C78.604614,473.002197 80.801254,473.001648 83.134338,473.401123 
	C83.866135,472.492493 84.967880,471.188019 84.978790,469.874481 
	C85.092300,456.212982 85.030357,442.550018 85.050980,428.750671 
	C85.084831,428.613892 84.950638,428.366058 85.283760,428.284393 
	C94.149605,434.823975 102.454361,441.770752 111.290733,447.958344 
	C117.785309,452.506104 124.975891,456.059937 131.944168,460.317841 
	C132.348709,460.677338 132.665405,460.775665 133.191193,460.943665 
	C133.400269,461.013275 133.838623,461.059143 133.931702,461.326294 
	C134.346069,461.762573 134.667374,461.931702 135.050995,462.338318 
	C135.113327,462.575806 135.481949,462.899597 135.481949,462.899597 
	C135.481949,462.899597 135.971893,462.873596 135.996109,463.334900 
	C136.051193,466.859528 136.082077,469.922913 136.203293,473.192688 
	C136.472046,473.656128 136.710327,473.832001 137.435150,473.943237 
	C140.858109,473.819580 143.854385,473.679474 146.961807,473.534149 
	C146.961807,471.697815 146.961807,470.422882 147.349182,469.105133 
	C149.170593,469.439941 150.604630,469.817535 152.014984,470.532501 
	C154.082474,475.635864 158.189590,471.826813 161.225082,473.369568 
	C181.010223,482.246674 201.784286,486.643250 222.946487,488.805939 
	C233.829117,489.918121 244.930038,488.687683 255.912720,489.073853 
	C273.871277,489.705200 291.258636,486.479858 308.464844,481.964691 
	C315.963043,479.997101 323.285980,477.361694 330.688507,475.029602 
	C330.602722,474.724640 330.516907,474.419678 330.431091,474.114716 
	C329.288422,474.018463 328.145721,473.922241 327.030792,473.456055 
	C328.714813,472.076813 330.260559,470.742706 332.052734,470.132660 
	C334.887634,469.167755 337.887665,468.688049 340.891418,468.391510 
	C342.256775,468.867828 343.737854,469.415833 344.811646,468.973969 
	C359.258575,463.029419 372.749054,455.491150 385.518005,446.354736 
	C401.530029,434.897858 416.520966,422.497223 429.235718,407.403992 
	C431.069794,405.226807 433.725067,403.741394 436.003632,402.408539 
	C436.008392,424.589417 436.094879,446.298248 435.933319,468.005219 
	C435.904022,471.937225 437.114746,473.403687 441.040680,473.073853 
	C444.332153,472.797302 447.664398,473.006775 451.355957,472.788025 
	C451.765778,462.385284 451.798279,452.195557 451.887299,441.539948 
	C451.939148,420.084259 451.934448,399.094513 451.968018,377.851257 
	C451.995117,377.427277 451.983948,377.256744 452.319153,376.965820 
	C459.797028,362.145752 467.577911,347.718994 473.898621,332.678619 
	C482.134521,313.080780 486.704681,292.427216 488.430389,270.922180 
	C488.889801,258.429169 488.973633,246.149902 488.983673,233.870575 
	C488.984192,233.202362 488.368134,232.533661 488.023193,231.415985 
	C486.944611,220.663879 485.881958,210.360947 484.911011,199.680450 
	C490.611298,181.846451 496.219818,164.390015 502.012939,146.623962 
	C504.131683,144.876236 506.065826,143.438110 508.000000,142.000000 
M340.602356,473.243774 
	C340.721985,472.963959 340.841614,472.684174 340.961212,472.404358 
	C340.769623,472.597656 340.578003,472.790955 340.602356,473.243774 
z"/>
<path fill="#E3D40E" opacity="1.000000" stroke="none" 
	d="
M498.022156,129.687714 
	C502.465363,129.607697 505.189484,132.254242 507.725952,135.316559 
	C508.000000,137.041672 508.000000,139.083328 508.000000,141.562500 
	C506.065826,143.438110 504.131683,144.876236 501.656799,146.515320 
	C497.758820,145.808746 494.401642,144.901245 491.021301,143.568451 
	C490.663422,140.478546 490.328705,137.813934 490.311127,135.010483 
	C493.092896,133.143646 495.557526,131.415665 498.022156,129.687714 
z"/>
<path fill="#A6DAE8" opacity="1.000000" stroke="none" 
	d="
M170.048248,19.966408 
	C184.079071,14.060257 198.779739,10.784989 213.835007,9.024770 
	C221.137741,8.170955 228.591064,6.537135 235.785339,7.232093 
	C253.584824,8.951494 271.655823,6.252688 289.270203,10.885676 
	C295.776062,12.596865 302.614136,13.019591 309.159363,14.611186 
	C326.286713,18.776011 342.530914,25.333244 358.136993,33.505417 
	C359.390747,34.161945 360.820801,34.481747 362.438293,35.277641 
	C361.778442,42.585266 360.849304,49.573280 359.521912,56.654388 
	C346.205292,58.920380 338.263092,65.817451 336.751160,76.192688 
	C336.462616,76.947601 336.385437,77.502129 336.248047,78.515747 
	C335.975647,83.297279 336.053192,87.659012 335.473694,91.931625 
	C334.833160,96.653763 336.146484,98.363953 341.210602,98.326111 
	C369.838837,98.112183 398.469666,98.173363 427.098969,98.295059 
	C430.047546,98.307587 432.093903,97.789680 433.308044,94.945869 
	C437.071198,99.191879 440.838226,103.075623 443.903381,107.451065 
	C455.232422,123.623024 465.221375,140.549454 472.093567,159.177826 
	C474.545837,165.825226 477.333008,172.349060 479.948303,179.309692 
	C470.312622,209.220871 460.695953,238.751617 450.679626,268.130310 
	C443.405396,267.690277 436.530823,267.402344 429.617188,266.785767 
	C425.920074,262.592590 422.410065,258.567535 418.506897,254.968903 
	C417.443512,253.988480 415.196594,254.291733 413.492859,254.005844 
	C413.819916,255.607498 413.661896,257.594269 414.568298,258.735870 
	C416.934723,261.716187 419.767059,264.326538 421.938660,267.135620 
	C414.065552,266.912903 406.884460,267.170441 402.465759,275.067627 
	C401.408264,277.548981 400.614197,279.800140 399.374634,282.142517 
	C394.329803,282.193481 389.730530,282.153229 385.264526,281.804535 
	C388.236694,276.305603 392.367188,271.418640 393.671509,265.867615 
	C397.537323,249.415466 400.246613,232.693268 403.489563,216.092560 
	C405.874023,203.886337 408.489594,191.724564 410.798676,179.504532 
	C411.956909,173.374893 409.237366,170.046906 403.197754,170.045364 
	C355.096436,170.033112 306.995148,170.089096 258.526276,170.114944 
	C251.319382,170.778503 248.645447,175.462097 247.447021,181.416000 
	C244.929413,193.923676 242.579773,206.465408 240.018539,218.963943 
	C237.162506,232.901047 234.148163,246.805710 230.867004,260.677917 
	C230.308060,260.596283 230.084854,260.561188 229.721252,260.452972 
	C229.386566,260.292542 229.183594,260.236969 228.550491,260.229370 
	C227.011307,260.138550 225.893555,260.031372 224.725403,259.583435 
	C221.277756,251.822327 218.027710,244.329865 214.441345,237.001999 
	C210.939819,229.847488 207.094833,222.861084 203.504456,215.405869 
	C200.806732,207.270935 197.956284,199.548233 195.220795,191.785049 
	C193.389343,186.587494 190.166885,182.977646 184.284393,181.597046 
	C176.982361,181.348373 170.006866,181.191635 163.034027,181.270340 
	C159.836029,181.306427 157.619354,181.082306 157.765503,176.858994 
	C157.898026,173.029449 157.949112,170.450455 163.021408,169.938919 
	C168.337326,169.402802 174.162460,168.396606 178.605850,165.691666 
	C197.023972,154.479675 205.051117,137.585770 203.810913,116.098259 
	C203.594437,112.347824 203.818100,108.444954 204.626022,104.786392 
	C206.999710,94.037575 209.022873,83.305344 207.787170,71.844925 
	C212.088165,59.112896 210.064240,47.814796 201.390015,38.155582 
	C192.977295,28.787594 181.672516,24.008240 170.048248,19.966408 
z"/>
<path fill="#102536" opacity="1.000000" stroke="none" 
	d="
M136.112946,472.986267 
	C136.082077,469.922913 136.051193,466.859528 135.995056,462.920959 
	C135.836563,460.957916 135.703339,459.870056 135.578278,458.432922 
	C135.489777,457.399750 135.393112,456.715851 135.435486,455.580933 
	C135.584412,435.850647 135.481796,416.570282 135.659500,397.292542 
	C135.730759,389.561768 133.609390,386.989655 125.760117,386.948364 
	C116.120468,386.897644 106.480316,386.919434 96.840454,386.942017 
	C88.292656,386.962067 84.417931,390.791382 84.345444,399.448273 
	C84.285622,406.593658 84.398857,413.740509 84.301270,421.262573 
	C84.274124,423.201447 84.381104,424.764465 84.487122,426.683289 
	C84.640976,427.481415 84.795807,427.923737 84.950638,428.366058 
	C84.950638,428.366058 85.084831,428.613892 84.727631,429.035461 
	C84.236221,442.277710 84.135788,455.098907 83.927162,467.918335 
	C83.899513,469.617188 83.321190,471.307068 82.997894,473.001099 
	C80.801254,473.001648 78.604614,473.002197 76.331192,472.231323 
	C76.254128,459.533600 76.310501,447.606903 76.230438,435.681091 
	C76.188332,429.409698 75.907616,423.139923 75.809265,416.414276 
	C75.990303,410.848114 76.170219,405.737366 76.188469,400.626007 
	C76.231873,388.472015 79.468895,383.618347 91.289246,378.903931 
	C95.476021,378.649902 99.235825,378.346313 103.338455,378.267395 
	C112.860619,378.612122 122.039948,378.732147 131.532410,379.012390 
	C138.478104,383.577240 144.869553,383.867645 151.223145,377.795990 
	C151.715134,374.487976 151.887268,371.439514 152.094513,368.020447 
	C152.103119,367.405609 152.076630,367.161407 152.099213,366.468689 
	C152.171036,362.997040 152.193771,359.973907 152.405167,356.602600 
	C152.465958,351.205658 152.338104,346.156799 152.183258,341.052795 
	C152.156265,340.997589 152.033432,340.997040 151.748016,340.684143 
	C135.660553,340.305634 119.858528,340.240021 103.609940,340.137360 
	C95.404648,340.492889 87.645905,340.885437 79.441406,341.201935 
	C75.633560,341.133972 72.271492,341.142029 68.683319,341.089355 
	C68.457222,341.028595 68.010033,340.889862 67.915634,340.719421 
	C67.488708,340.567352 67.156189,340.585754 66.494293,340.580627 
	C65.506653,340.503693 64.848373,340.450317 63.832649,340.244507 
	C61.368080,340.076385 59.260963,340.060669 56.755508,340.178253 
	C52.307281,340.528229 48.257397,340.744934 44.067337,340.802124 
	C43.927162,340.642578 43.594185,340.378937 43.556675,339.953003 
	C43.399773,332.330811 43.280376,325.134521 43.619080,317.930481 
	C77.573814,317.928680 111.070488,317.954010 144.567047,317.905090 
	C147.355179,317.901001 150.142609,317.395844 153.228867,317.425629 
	C155.688095,317.795044 157.848801,317.920624 160.009537,317.921173 
	C257.304749,317.945923 354.599945,317.959717 451.990479,318.436584 
	C452.048126,338.294342 452.010437,357.690277 451.972778,377.086212 
	C451.983948,377.256744 451.995117,377.427277 451.735107,378.175751 
	C451.357819,399.839996 451.251740,420.926270 451.108704,442.479004 
	C451.040710,452.963989 451.009674,462.982513 450.978607,473.001099 
	C447.664398,473.006775 444.332153,472.797302 441.040680,473.073853 
	C437.114746,473.403687 435.904022,471.937225 435.933319,468.005219 
	C436.094879,446.298248 436.008392,424.589417 436.005249,401.944397 
	C436.003540,380.779999 436.003540,360.552429 436.003540,340.070984 
	C403.901855,340.070984 372.622253,340.070984 340.853149,340.065857 
	C335.260895,340.040375 330.158112,340.020020 324.583527,340.033936 
	C293.481506,340.115112 262.851257,340.162048 231.750717,340.090027 
	C211.526978,339.920166 191.773087,339.923767 172.020508,339.765747 
	C168.641449,339.738739 167.768372,341.145325 167.833176,344.236725 
	C168.007080,352.532928 167.965012,360.833710 167.975693,369.564301 
	C167.963882,372.637939 167.985077,375.279938 168.295563,378.227722 
	C176.417648,378.706024 184.250427,378.878540 192.373291,379.089752 
	C193.386841,379.403748 194.110306,379.679047 194.955017,380.289307 
	C204.555832,384.669861 206.589767,392.759796 206.596481,401.916199 
	C206.613113,424.549744 206.607056,447.183258 206.592743,469.816803 
	C206.592133,470.790039 206.418442,471.763153 206.310867,472.888000 
	C203.586670,472.888000 201.042709,472.888000 198.022324,472.888000 
	C198.022324,470.592255 198.022003,468.621979 198.022354,466.651703 
	C198.026352,444.351257 198.036560,422.050781 198.030945,399.750336 
	C198.029160,392.616821 194.783676,388.594635 187.515564,387.095215 
	C180.982224,387.218811 174.904297,387.451691 168.582687,387.901184 
	C168.269897,388.750183 168.200775,389.382568 168.031586,390.473755 
	C167.932632,417.951752 167.933762,444.970947 167.627777,472.229248 
	C165.254303,472.651001 163.187927,472.833649 161.121567,473.016296 
	C158.189590,471.826813 154.082474,475.635864 152.100586,470.057678 
	C152.209854,442.234406 152.209854,415.223328 152.209854,387.833252 
	C147.649673,388.795746 146.192368,391.121613 146.328415,394.787811 
	C146.531784,400.267700 146.745346,405.750488 146.774811,411.233002 
	C146.878555,430.537781 146.905624,449.842926 146.961807,469.147949 
	C146.961807,470.422882 146.961807,471.697815 146.961807,473.534149 
	C143.854385,473.679474 140.858109,473.819580 137.315674,473.759918 
	C136.586945,473.327332 136.368088,473.136047 136.112946,472.986267 
z"/>
<path fill="#A6DAE8" opacity="1.000000" stroke="none" 
	d="
M43.160984,317.938263 
	C43.280376,325.134521 43.399773,332.330811 43.390602,340.307312 
	C43.407948,342.068085 43.553856,343.048645 43.760674,344.492340 
	C43.781246,353.627197 43.740917,362.298889 43.506844,371.182068 
	C43.442722,372.273010 43.572350,373.152496 43.762268,374.342590 
	C43.786655,375.071930 43.750755,375.490631 43.500565,375.888184 
	C43.286282,375.867035 42.895229,376.047424 42.895233,376.047424 
	C38.236660,368.254089 32.909637,360.773163 29.085516,352.589874 
	C24.093115,341.906555 19.341434,330.928528 16.222124,319.599335 
	C12.511950,306.124146 10.071385,292.221313 8.145107,278.355896 
	C6.365228,265.544250 5.030255,252.518600 5.279992,239.621658 
	C5.511933,227.643784 7.909683,215.683655 9.689594,203.765854 
	C12.071006,187.820572 16.893555,172.532013 22.960699,157.627716 
	C30.563354,138.951355 39.673729,121.014198 52.368610,105.308273 
	C61.652775,93.822044 72.104462,83.276901 82.104958,72.375778 
	C83.283554,71.091042 84.900871,70.208778 86.781372,69.497208 
	C85.230347,83.204254 85.829170,96.442329 89.822441,109.339745 
	C93.317459,120.627907 98.204765,131.131271 110.027885,136.724884 
	C114.964523,145.818192 120.978111,153.541031 129.439575,159.351868 
	C131.232910,160.583405 132.464905,163.735275 132.585739,166.073166 
	C132.849442,171.175446 132.232437,176.323257 131.582169,181.470673 
	C130.664734,181.482620 130.140396,181.476334 129.209717,181.367065 
	C119.103394,181.400665 109.403442,181.537231 99.278610,181.753540 
	C90.559113,183.189651 85.937988,188.344421 87.366058,196.662018 
	C88.517715,203.369690 91.497826,209.763443 93.196342,216.291107 
	C86.193054,216.694000 79.660164,217.102234 72.799690,217.284058 
	C56.086109,216.462036 42.853065,230.530899 45.529507,246.786819 
	C47.496014,258.730865 50.961872,270.428040 53.275112,282.306702 
	C52.141083,282.440094 51.491501,282.502014 50.669315,282.478149 
	C50.496716,282.392395 50.154694,282.570190 49.757725,282.521973 
	C48.830082,282.512756 48.299404,282.551758 47.347660,282.444153 
	C38.712841,282.512329 30.499090,282.727142 22.075157,283.369171 
	C21.864975,287.520264 21.864975,291.244110 21.864975,295.203796 
	C27.212626,295.203796 31.962061,295.203796 37.073883,295.355713 
	C39.273045,295.688324 41.109821,295.868988 42.934093,296.515015 
	C43.001389,303.966339 43.081188,310.952301 43.160984,317.938263 
z"/>
<path fill="#A6D8E6" opacity="1.000000" stroke="none" 
	d="
M341.342621,340.070984 
	C372.622253,340.070984 403.901855,340.070984 436.003540,340.070984 
	C436.003540,360.552429 436.003540,380.779999 436.001953,401.471710 
	C433.725067,403.741394 431.069794,405.226807 429.235718,407.403992 
	C416.520966,422.497223 401.530029,434.897858 385.518005,446.354736 
	C372.749054,455.491150 359.258575,463.029419 344.811646,468.973969 
	C343.737854,469.415833 342.256775,468.867828 340.963837,467.948029 
	C338.748505,456.772491 347.012970,451.744629 353.125946,444.416565 
	C349.146057,441.791321 345.540222,439.412842 341.342621,436.644012 
	C341.342621,405.025299 341.342621,372.548126 341.342621,340.070984 
z"/>
<path fill="#272F31" opacity="1.000000" stroke="none" 
	d="
M109.863686,136.510681 
	C98.204765,131.131271 93.317459,120.627907 89.822441,109.339745 
	C85.829170,96.442329 85.230347,83.204254 87.123909,69.426193 
	C89.026352,64.189621 91.052803,59.381310 93.179001,54.336334 
	C91.557419,54.336334 90.013069,54.336334 86.733543,54.336334 
	C91.648033,49.079506 97.915375,45.379368 94.444382,37.552315 
	C94.908302,37.565277 95.372231,37.578239 95.836159,37.591202 
	C96.771233,39.251282 97.706306,40.911366 98.895798,43.023117 
	C100.693878,40.306297 102.040466,37.890118 103.743843,35.759125 
	C115.868965,20.590105 131.336426,13.594874 150.869919,16.767437 
	C157.012604,17.765112 163.147736,18.809128 169.667297,19.899170 
	C181.672516,24.008240 192.977295,28.787594 201.390015,38.155582 
	C210.064240,47.814796 212.088165,59.112896 207.548325,72.013000 
	C196.572983,86.254044 181.386642,85.240784 166.192688,86.074463 
	C167.587387,83.405418 168.590408,81.485931 170.206726,78.392738 
	C164.650665,80.017899 160.466232,81.635315 156.131424,82.396645 
	C151.981750,83.125473 147.675827,82.964806 144.037598,83.162529 
	C145.562347,79.631401 147.734467,76.958138 147.509384,74.504814 
	C147.248581,71.662376 136.656738,68.060204 133.310455,69.175636 
	C128.849625,70.662582 128.875610,74.583611 128.950424,78.268326 
	C129.115982,86.422073 129.662079,94.572411 129.657684,102.723915 
	C129.654251,109.140701 126.726280,114.067787 121.017113,117.177986 
	C117.706841,110.937309 114.869690,104.911621 111.343254,99.320679 
	C110.165642,97.453651 107.225372,96.698402 105.090851,95.434937 
	C103.819855,97.603539 101.730530,99.671997 101.450294,101.961845 
	C100.888092,106.555908 101.225258,111.273880 101.380577,115.934395 
	C101.434669,117.557564 101.497086,119.939079 102.495964,120.646378 
	C108.080582,124.600792 107.665672,131.128860 109.863686,136.510681 
z"/>
<path fill="#A5D8E6" opacity="1.000000" stroke="none" 
	d="
M187.970978,387.204498 
	C194.783676,388.594635 198.029160,392.616821 198.030945,399.750336 
	C198.036560,422.050781 198.026352,444.351257 198.022354,466.651703 
	C198.022003,468.621979 198.022324,470.592255 198.022324,472.888000 
	C201.042709,472.888000 203.586670,472.888000 206.310867,472.888000 
	C206.418442,471.763153 206.592133,470.790039 206.592743,469.816803 
	C206.607056,447.183258 206.613113,424.549744 206.596481,401.916199 
	C206.589767,392.759796 204.555832,384.669861 195.358902,380.292511 
	C201.083252,382.015472 206.524979,384.070221 212.228424,386.404724 
	C212.911316,388.521698 213.681946,390.355408 213.700241,392.196625 
	C213.911331,413.453888 214.008484,434.712311 213.989990,456.400604 
	C213.474442,467.739746 217.980804,473.420471 228.019043,473.774475 
	C237.982803,474.125916 247.967850,473.844208 257.942902,473.923035 
	C260.936279,473.946655 262.034393,472.578278 262.101593,469.681061 
	C262.250061,463.277527 257.684143,457.291382 251.219223,456.054199 
	C248.130981,455.463165 244.956177,455.324432 241.769394,454.515442 
	C241.787659,439.069092 241.828384,424.087891 241.961761,409.107513 
	C241.979019,407.170441 242.475372,405.237640 242.938538,403.574768 
	C256.706482,417.289551 270.214020,430.805939 283.894653,444.144745 
	C290.878113,450.953735 298.172058,457.444275 305.386963,464.402100 
	C309.516876,471.549683 314.648376,473.928253 322.260559,472.878021 
	C323.769073,472.669922 325.418579,473.483521 327.003052,473.825989 
	C328.145721,473.922241 329.288422,474.018463 330.431091,474.114716 
	C330.516907,474.419678 330.602722,474.724640 330.688507,475.029602 
	C323.285980,477.361694 315.963043,479.997101 308.464844,481.964691 
	C291.258636,486.479858 273.871277,489.705200 255.912720,489.073853 
	C244.930038,488.687683 233.829117,489.918121 222.946487,488.805939 
	C201.784286,486.643250 181.010223,482.246674 161.225082,473.369568 
	C163.187927,472.833649 165.254303,472.651001 167.898041,471.912964 
	C168.651596,470.391846 168.980637,469.426239 168.981598,468.460297 
	C169.006363,443.575317 169.009491,418.690277 168.956757,393.805389 
	C168.954071,392.541321 168.418900,391.278412 168.131653,390.014954 
	C168.200775,389.382568 168.269897,388.750183 168.867157,388.117493 
	C175.587173,387.812958 181.779083,387.508728 187.970978,387.204498 
z"/>
<path fill="#A6D9E7" opacity="1.000000" stroke="none" 
	d="
M84.435402,420.886688 
	C84.398857,413.740509 84.285622,406.593658 84.345444,399.448273 
	C84.417931,390.791382 88.292656,386.962067 96.840454,386.942017 
	C106.480316,386.919434 116.120468,386.897644 125.760117,386.948364 
	C133.609390,386.989655 135.730759,389.561768 135.659500,397.292542 
	C135.481796,416.570282 135.584412,435.850647 135.202087,455.703766 
	C134.852020,457.165497 134.874359,458.053406 134.950409,459.281921 
	C134.998947,460.081848 134.993759,460.541168 134.700562,461.004822 
	C134.221252,461.025787 134.029938,461.042450 133.838623,461.059143 
	C133.838623,461.059143 133.400269,461.013275 133.043427,460.758667 
	C132.435699,460.306915 132.158936,460.157776 131.856293,460.056702 
	C124.975891,456.059937 117.785309,452.506104 111.290733,447.958344 
	C102.454361,441.770752 94.149605,434.823975 85.283760,428.284393 
	C84.795807,427.923737 84.640976,427.481415 84.660126,426.311340 
	C84.701202,424.017944 84.568306,422.452301 84.435402,420.886688 
z"/>
<path fill="#A7D8E5" opacity="1.000000" stroke="none" 
	d="
M452.319153,376.965820 
	C452.010437,357.690277 452.048126,338.294342 452.077637,317.977356 
	C452.035400,310.062286 452.001343,303.068298 452.409882,295.894043 
	C462.423553,295.713776 471.994659,295.713776 481.441223,295.713776 
	C481.441223,290.729370 481.441223,286.687531 481.441223,282.061096 
	C474.902039,282.061096 468.781281,282.061096 462.723145,281.671631 
	C459.587738,274.846863 461.837433,268.798401 463.941650,262.653839 
	C466.894196,254.032028 469.562286,245.313278 472.447723,236.667923 
	C476.525787,224.449341 480.691193,212.259918 484.819275,200.058029 
	C485.881958,210.360947 486.944611,220.663879 488.000061,231.892883 
	C488.008301,245.591293 488.023743,258.363586 488.039185,271.135895 
	C486.704681,292.427216 482.134521,313.080780 473.898621,332.678619 
	C467.577911,347.718994 459.797028,362.145752 452.319153,376.965820 
z"/>
<path fill="#020203" opacity="1.000000" stroke="none" 
	d="
M327.030792,473.456055 
	C325.418579,473.483521 323.769073,472.669922 322.260559,472.878021 
	C314.648376,473.928253 309.516876,471.549683 305.720337,464.504944 
	C312.027039,458.320831 318.061646,452.357208 324.369995,446.333130 
	C324.812012,446.191589 324.980347,446.110474 325.324310,445.986816 
	C325.575165,445.851624 325.728302,445.739685 325.711029,445.670044 
	C325.659790,445.463470 325.541412,445.273529 325.377808,444.608704 
	C325.357208,411.571014 325.415863,379.001740 325.441193,346.432434 
	C325.442871,344.288269 325.189850,342.143921 325.055298,339.999664 
	C330.158112,340.020020 335.260895,340.040375 340.853149,340.065857 
	C341.342621,372.548126 341.342621,405.025299 341.342621,436.644012 
	C345.540222,439.412842 349.146057,441.791321 353.125946,444.416565 
	C347.012970,451.744629 338.748505,456.772491 340.890228,467.559540 
	C337.887665,468.688049 334.887634,469.167755 332.052734,470.132660 
	C330.260559,470.742706 328.714813,472.076813 327.030792,473.456055 
z"/>
<path fill="#020202" opacity="1.000000" stroke="none" 
	d="
M43.700584,370.970612 
	C43.740917,362.298889 43.781246,353.627197 43.880974,344.120239 
	C44.029419,342.510559 44.118465,341.736115 44.207512,340.961639 
	C48.257397,340.744934 52.307281,340.528229 56.939575,340.521240 
	C57.975159,342.330566 58.788342,343.922119 58.824383,345.531067 
	C59.105175,358.065216 59.236416,370.602753 59.397278,383.593018 
	C59.572594,390.050934 59.764503,396.055084 59.956413,402.059204 
	C59.956413,402.059204 59.979191,402.003601 59.633286,402.206421 
	C59.217136,425.927246 59.146896,449.445221 59.076653,472.963226 
	C54.261246,472.805237 49.445839,472.647247 44.335983,471.760803 
	C44.045753,444.128143 44.066547,417.223969 44.038826,390.319855 
	C44.033875,385.516235 43.827969,380.712860 43.714851,375.909363 
	C43.750755,375.490631 43.786655,375.071930 43.880711,373.968811 
	C43.859440,372.513123 43.780014,371.741882 43.700584,370.970612 
z"/>
<path fill="#0A6896" opacity="1.000000" stroke="none" 
	d="
M484.911011,199.680450 
	C480.691193,212.259918 476.525787,224.449341 472.447723,236.667923 
	C469.562286,245.313278 466.894196,254.032028 463.941650,262.653839 
	C461.837433,268.798401 459.587738,274.846863 462.282898,281.728333 
	C441.126740,282.133453 420.473419,282.092377 399.820129,282.051300 
	C400.614197,279.800140 401.408264,277.548981 402.845703,275.111694 
	C403.998383,274.953156 404.507660,274.980713 405.339508,275.266235 
	C419.204529,275.642731 432.746887,275.772125 446.289581,275.842743 
	C446.872803,275.845795 447.458801,275.307220 448.342651,274.844452 
	C449.454285,272.539398 450.266754,270.410889 451.079224,268.282379 
	C460.695953,238.751617 470.312622,209.220871 480.081238,178.962082 
	C480.693268,177.040237 481.224518,175.868454 481.602173,174.649109 
	C484.765594,164.435608 487.900757,154.213364 491.044434,143.993744 
	C494.401642,144.901245 497.758820,145.808746 501.472168,146.824921 
	C496.219818,164.390015 490.611298,181.846451 484.911011,199.680450 
z"/>
<path fill="#6ABBF8" opacity="1.000000" stroke="none" 
	d="
M359.920135,56.561291 
	C360.849304,49.573280 361.778442,42.585266 362.820801,35.241825 
	C366.034637,26.806360 372.495911,23.691921 380.565155,23.006487 
	C389.628357,22.236620 397.535400,24.494497 403.743652,32.439728 
	C403.156586,38.110985 404.116333,42.463898 409.071533,45.567940 
	C408.669983,49.629448 408.311920,53.257595 407.489319,56.872757 
	C391.323242,56.760277 375.621704,56.660782 359.920135,56.561291 
z"/>
<path fill="#A4D8E6" opacity="1.000000" stroke="none" 
	d="
M60.299206,402.128906 
	C59.764503,396.055084 59.572594,390.050934 59.595108,383.222351 
	C59.800220,370.357178 59.898945,358.314819 59.713280,346.276886 
	C59.660179,342.834076 60.249104,340.503235 64.190102,340.396973 
	C64.848373,340.450317 65.506653,340.503693 66.774994,340.718170 
	C67.593399,340.882812 67.801720,340.886353 68.010033,340.889862 
	C68.010033,340.889862 68.457222,341.028595 68.790527,341.414490 
	C75.145607,353.758392 84.480202,361.935913 97.075867,366.473236 
	C98.145081,366.858398 98.951546,367.972931 99.420357,368.709869 
	C92.656311,368.662689 86.351974,368.645844 80.047653,368.649353 
	C76.881523,368.651154 74.216690,369.669556 74.281387,373.298492 
	C74.342804,376.742950 76.760292,377.997925 80.029831,378.111389 
	C83.644875,378.236908 87.251801,378.596649 90.862259,378.854370 
	C79.468895,383.618347 76.231873,388.472015 76.188469,400.626007 
	C76.170219,405.737366 75.990303,410.848114 75.574043,416.417603 
	C75.264206,416.876068 74.832062,417.062103 74.832062,417.062103 
	C70.102051,412.107605 65.372025,407.153107 60.299206,402.128906 
z"/>
<path fill="#0C6896" opacity="1.000000" stroke="none" 
	d="
M498.026031,129.349976 
	C495.557526,131.415665 493.092896,133.143646 490.003540,134.850830 
	C478.799072,122.599670 468.190247,110.394310 457.649750,98.130203 
	C450.565338,89.887337 443.674225,81.476913 436.520935,73.295029 
	C428.481476,64.099457 420.244415,55.076633 412.306396,45.709961 
	C415.080902,43.284893 417.642395,41.128517 420.203888,38.972137 
	C425.797943,45.193626 431.470123,51.347095 436.963104,57.656555 
	C442.016235,63.460842 446.834869,69.468590 451.830750,75.323608 
	C461.729370,86.924408 471.668427,98.490776 481.611633,110.053436 
	C487.062378,116.391960 492.555756,122.693863 498.026031,129.349976 
z"/>
<path fill="#A2D2DF" opacity="1.000000" stroke="none" 
	d="
M147.349182,469.105133 
	C146.905624,449.842926 146.878555,430.537781 146.774811,411.233002 
	C146.745346,405.750488 146.531784,400.267700 146.328415,394.787811 
	C146.192368,391.121613 147.649673,388.795746 152.209854,387.833252 
	C152.209854,415.223328 152.209854,442.234406 152.124268,469.720337 
	C150.604630,469.817535 149.170593,469.439941 147.349182,469.105133 
z"/>
<path fill="#E3D30D" opacity="1.000000" stroke="none" 
	d="
M420.231262,38.618370 
	C417.642395,41.128517 415.080902,43.284893 411.981964,45.723358 
	C410.668030,45.715157 409.891541,45.424866 409.115051,45.134575 
	C404.116333,42.463898 403.156586,38.110985 404.074493,32.549526 
	C407.492859,28.960066 411.320099,27.730350 415.660767,29.930046 
	C419.000000,31.622248 421.302429,34.067513 420.231262,38.618370 
z"/>
<path fill="#A0A9AB" opacity="1.000000" stroke="none" 
	d="
M43.500565,375.888184 
	C43.827969,380.712860 44.033875,385.516235 44.038826,390.319855 
	C44.066547,417.223969 44.045753,444.128143 44.014660,471.497955 
	C43.649799,470.483917 43.019577,469.004761 43.016945,467.524475 
	C42.963310,437.341522 42.981453,407.158417 42.940247,376.511383 
	C42.895229,376.047424 43.286282,375.867035 43.500565,375.888184 
z"/>
<path fill="#727B7E" opacity="1.000000" stroke="none" 
	d="
M59.425640,472.720642 
	C59.146896,449.445221 59.217136,425.927246 59.656776,402.187683 
	C59.942329,425.470123 59.858475,448.974091 59.425640,472.720642 
z"/>
<path fill="#384C5B" opacity="1.000000" stroke="none" 
	d="
M451.145691,442.012543 
	C451.251740,420.926270 451.357819,399.839996 451.696808,378.429230 
	C451.934448,399.094513 451.939148,420.084259 451.716125,441.540741 
	C451.488434,442.007446 451.145691,442.012543 451.145691,442.012543 
z"/>
<path fill="#98A0A6" opacity="1.000000" stroke="none" 
	d="
M74.904678,417.522644 
	C74.832062,417.062103 75.264206,416.876068 75.499420,416.872742 
	C75.907616,423.139923 76.188332,429.409698 76.230438,435.681091 
	C76.310501,447.606903 76.254128,459.533600 76.141068,471.947754 
	C75.685410,470.726593 75.054199,469.019043 75.045586,467.308380 
	C74.962868,450.866943 74.985100,434.424988 74.904678,417.522644 
z"/>
<path fill="#7D8F99" opacity="1.000000" stroke="none" 
	d="
M83.134331,473.401123 
	C83.321190,471.307068 83.899513,469.617188 83.927162,467.918335 
	C84.135788,455.098907 84.236221,442.277710 84.693779,429.172272 
	C85.030357,442.550018 85.092300,456.212982 84.978790,469.874481 
	C84.967880,471.188019 83.866135,472.492493 83.134331,473.401123 
z"/>
<path fill="#C3E5EF" opacity="1.000000" stroke="none" 
	d="
M488.430389,270.922180 
	C488.023743,258.363586 488.008301,245.591293 488.015961,232.342087 
	C488.368134,232.533661 488.984192,233.202362 488.983673,233.870575 
	C488.973633,246.149902 488.889801,258.429169 488.430389,270.922180 
z"/>
<path fill="#3E4F5C" opacity="1.000000" stroke="none" 
	d="
M451.108734,442.479004 
	C451.145691,442.012543 451.488434,442.007446 451.659607,442.006653 
	C451.798279,452.195557 451.765778,462.385284 451.355957,472.788025 
	C451.009674,462.982513 451.040710,452.963989 451.108734,442.479004 
z"/>
<path fill="#698C9A" opacity="1.000000" stroke="none" 
	d="
M134.988571,461.000488 
	C134.993759,460.541168 134.998947,460.081848 135.107620,459.194855 
	C135.211105,458.767181 135.570129,458.782196 135.570129,458.782196 
	C135.703339,459.870056 135.836563,460.957916 135.970840,462.459686 
	C135.971893,462.873596 135.481949,462.899597 135.481949,462.899597 
	C135.481949,462.899597 135.113327,462.575806 135.069778,462.063110 
	C135.013672,461.367096 135.001129,461.183807 134.988571,461.000488 
z"/>
<path fill="#020203" opacity="1.000000" stroke="none" 
	d="
M340.494385,473.114014 
	C340.578003,472.790955 340.769623,472.597656 340.961212,472.404358 
	C340.841614,472.684174 340.721985,472.963959 340.494385,473.114014 
z"/>
<path fill="#B1E4F1" opacity="1.000000" stroke="none" 
	d="
M134.700562,461.004822 
	C135.001129,461.183807 135.013672,461.367096 135.007446,461.825623 
	C134.667374,461.931702 134.346069,461.762573 133.931702,461.326294 
	C134.029938,461.042450 134.221252,461.025787 134.700562,461.004822 
z"/>
<path fill="#04192A" opacity="1.000000" stroke="none" 
	d="
M136.203293,473.192688 
	C136.368088,473.136047 136.586945,473.327332 136.889008,473.743469 
	C136.710327,473.832001 136.472046,473.656128 136.203293,473.192688 
z"/>
<path fill="#B1E4F1" opacity="1.000000" stroke="none" 
	d="
M131.944153,460.317871 
	C132.158936,460.157776 132.435699,460.306915 132.834335,460.689026 
	C132.665405,460.775665 132.348709,460.677338 131.944153,460.317871 
z"/>
<path fill="#000000" opacity="1.000000" stroke="none" 
	d="
M409.071533,45.567940 
	C409.891541,45.424866 410.668030,45.715157 411.768921,45.992050 
	C420.244415,55.076633 428.481476,64.099457 436.520935,73.295029 
	C443.674225,81.476913 450.565338,89.887337 457.649750,98.130203 
	C468.190247,110.394310 478.799072,122.599670 489.686401,134.989685 
	C490.328705,137.813934 490.663422,140.478546 491.021301,143.568451 
	C487.900757,154.213364 484.765594,164.435608 481.602173,174.649109 
	C481.224518,175.868454 480.693268,177.040237 480.100250,178.581665 
	C477.333008,172.349060 474.545837,165.825226 472.093567,159.177826 
	C465.221375,140.549454 455.232422,123.623024 443.903381,107.451065 
	C440.838226,103.075623 437.071198,99.191879 433.312256,94.509735 
	C432.610443,88.288567 432.222717,82.640121 431.889801,76.735382 
	C431.910522,76.307945 431.876404,76.136803 431.777649,75.623161 
	C429.734406,71.940643 428.104614,68.321327 425.701904,65.320976 
	C421.234375,59.742222 414.748535,57.860897 407.953857,56.885742 
	C408.311920,53.257595 408.669983,49.629448 409.071533,45.567940 
z"/>
<path fill="#D6D6D6" opacity="1.000000" stroke="none" 
	d="
M258.893829,170.124146 
	C306.995148,170.089096 355.096436,170.033112 403.197754,170.045364 
	C409.237366,170.046906 411.956909,173.374893 410.798676,179.504532 
	C408.489594,191.724564 405.874023,203.886337 403.489563,216.092560 
	C400.246613,232.693268 397.537323,249.415466 393.671509,265.867615 
	C392.367188,271.418640 388.236694,276.305603 384.787354,281.892273 
	C334.584656,282.299805 284.992493,282.314545 235.400330,282.306152 
	C233.913803,282.305908 232.427322,282.063690 231.004044,281.585632 
	C231.600479,279.924042 232.133682,278.611084 232.644562,277.353058 
	C234.732956,277.926453 236.385361,278.380127 237.604019,278.714722 
	C236.520798,275.772400 234.263443,272.777100 234.664032,270.193970 
	C236.544907,258.066040 239.159714,246.052017 241.505905,233.996033 
	C244.040863,220.970123 246.143661,207.840454 249.248566,194.952042 
	C251.323502,186.338989 250.531952,176.374466 258.893829,170.124146 
M339.226440,205.099731 
	C334.023773,205.099731 328.821106,205.099731 323.339203,205.099731 
	C324.058136,206.762894 324.812653,208.508469 325.416199,209.904755 
	C322.517151,212.516785 319.531342,214.681519 317.203918,217.408249 
	C311.536499,224.048050 313.441223,234.107498 320.712494,237.291733 
	C325.788849,239.514755 332.468109,237.926880 337.168762,233.379486 
	C342.065765,228.642136 344.172302,222.329163 341.364349,217.282791 
	C339.241699,213.468063 337.354767,210.331284 340.679474,206.445023 
	C340.761749,206.348831 340.189972,205.693100 339.226440,205.099731 
z"/>
<path fill="#F2BC7C" opacity="1.000000" stroke="none" 
	d="
M110.027885,136.724884 
	C107.665672,131.128860 108.080582,124.600792 102.495964,120.646378 
	C101.497086,119.939079 101.434669,117.557564 101.380577,115.934395 
	C101.225258,111.273880 100.888092,106.555908 101.450294,101.961845 
	C101.730530,99.671997 103.819855,97.603539 105.090851,95.434937 
	C107.225372,96.698402 110.165642,97.453651 111.343254,99.320679 
	C114.869690,104.911621 117.706841,110.937309 121.017113,117.177986 
	C126.726280,114.067787 129.654251,109.140701 129.657684,102.723915 
	C129.662079,94.572411 129.115982,86.422073 128.950424,78.268326 
	C128.875610,74.583611 128.849625,70.662582 133.310455,69.175636 
	C136.656738,68.060204 147.248581,71.662376 147.509384,74.504814 
	C147.734467,76.958138 145.562347,79.631401 144.037598,83.162529 
	C147.675827,82.964806 151.981750,83.125473 156.131424,82.396645 
	C160.466232,81.635315 164.650665,80.017899 170.206726,78.392738 
	C168.590408,81.485931 167.587387,83.405418 166.192688,86.074463 
	C181.386642,85.240784 196.572983,86.254044 207.391937,72.397240 
	C209.022873,83.305344 206.999710,94.037575 204.626022,104.786392 
	C203.818100,108.444954 203.594437,112.347824 203.810913,116.098259 
	C205.051117,137.585770 197.023972,154.479675 178.605850,165.691666 
	C174.162460,168.396606 168.337326,169.402802 163.021408,169.938919 
	C157.949112,170.450455 157.898026,173.029449 157.765503,176.858994 
	C157.619354,181.082306 159.836029,181.306427 163.034027,181.270340 
	C170.006866,181.191635 176.982361,181.348373 183.864304,181.674820 
	C176.457565,181.933304 169.135727,182.118225 161.832474,181.830704 
	C158.577515,181.702591 156.615250,182.877899 154.843506,185.401535 
	C152.508759,188.727081 149.861389,191.833145 147.213684,195.205185 
	C141.824280,190.341217 136.899765,185.896835 131.975281,181.452454 
	C132.232437,176.323257 132.849442,171.175446 132.585739,166.073166 
	C132.464905,163.735275 131.232910,160.583405 129.439575,159.351868 
	C120.978111,153.541031 114.964523,145.818192 110.027885,136.724884 
M170.987808,143.511581 
	C164.668060,141.224335 158.348312,138.937088 151.796112,136.565704 
	C151.620438,143.971024 155.903076,150.637863 161.574677,152.696915 
	C167.716415,154.926651 176.634323,152.429718 180.617493,147.147614 
	C177.589981,146.007050 174.649658,144.899338 170.987808,143.511581 
M165.123444,103.594254 
	C166.487778,101.987854 167.852097,100.381454 169.228271,98.761101 
	C163.195862,91.377243 150.459808,92.313385 145.873260,100.709572 
	C149.289261,101.146904 152.647736,101.576874 154.390060,101.799934 
	C155.371674,105.689507 155.499939,108.856873 157.017334,111.073135 
	C157.760696,112.158844 161.372131,112.178230 163.176407,111.438492 
	C166.191940,110.202148 166.817856,107.370293 165.123444,103.594254 
M191.292068,112.157219 
	C193.426559,111.695740 196.779221,111.878395 197.436325,110.635704 
	C198.716522,108.214638 198.486969,104.995239 198.922699,101.814270 
	C200.117142,101.378395 201.848724,100.746521 204.061890,99.938896 
	C199.243973,95.941559 194.723801,93.384926 189.066376,95.954208 
	C187.589874,96.624756 186.513977,98.177399 184.995087,99.560829 
	C186.723785,100.757660 187.906479,101.576469 189.152298,102.438988 
	C187.657883,105.995544 186.830551,109.324753 191.292068,112.157219 
M171.299316,127.260109 
	C173.970871,128.375656 176.584885,129.668182 179.328979,130.560684 
	C182.550415,131.608414 184.621414,129.959229 183.818130,126.832970 
	C182.464096,121.563248 180.331680,116.493515 178.526642,111.339668 
	C177.901184,111.449684 177.275726,111.559700 176.650269,111.669716 
	C174.835251,116.614227 173.020248,121.558731 171.299316,127.260109 
z"/>
<path fill="#6E0404" opacity="1.000000" stroke="none" 
	d="
M131.582153,181.470673 
	C136.899765,185.896835 141.824280,190.341217 147.213684,195.205185 
	C149.861389,191.833145 152.508759,188.727081 154.843506,185.401535 
	C156.615250,182.877899 158.577515,181.702591 161.832474,181.830704 
	C169.135727,182.118225 176.457565,181.933304 184.191925,181.862961 
	C190.166885,182.977646 193.389343,186.587494 195.220795,191.785049 
	C197.956284,199.548233 200.806732,207.270935 203.105118,215.442535 
	C196.723526,218.899826 190.845123,221.925446 184.686539,224.776642 
	C183.484314,223.224167 182.562271,221.846100 181.640228,220.468048 
	C181.288513,220.620163 180.936813,220.772293 180.585098,220.924408 
	C180.585098,233.872375 180.585098,246.820343 180.150909,259.861481 
	C173.580063,259.990326 167.403687,259.606659 161.318268,260.183075 
	C155.573227,260.727234 152.277557,258.381927 149.131851,253.848923 
	C140.247330,241.046204 130.910690,228.556992 121.730995,215.959717 
	C120.883949,214.797318 119.885460,213.745300 118.852219,212.517136 
	C112.855309,217.247070 107.147125,221.749268 101.209305,226.031647 
	C98.542030,222.640015 96.104385,219.468246 93.666748,216.296463 
	C91.497826,209.763443 88.517715,203.369690 87.366058,196.662018 
	C85.937988,188.344421 90.559113,183.189651 99.654785,181.845154 
	C110.175911,181.728043 119.895988,181.599045 129.616074,181.470047 
	C130.140396,181.476334 130.664734,181.482620 131.582153,181.470673 
z"/>
<path fill="#C69411" opacity="1.000000" stroke="none" 
	d="
M230.940811,281.934265 
	C232.427322,282.063690 233.913803,282.305908 235.400330,282.306152 
	C284.992493,282.314545 334.584656,282.299805 384.654022,282.200745 
	C389.730530,282.153229 394.329803,282.193481 399.374634,282.142517 
	C420.473419,282.092377 441.126740,282.133453 462.220276,282.117798 
	C468.781281,282.061096 474.902039,282.061096 481.441223,282.061096 
	C481.441223,286.687531 481.441223,290.729370 481.441223,295.713776 
	C471.994659,295.713776 462.423553,295.713776 452.176605,295.844543 
	C451.500763,295.975342 451.026917,295.923767 450.688782,295.684143 
	C448.538544,295.295532 446.726532,295.016571 444.914429,295.016174 
	C351.930817,294.997223 258.947205,295.001953 165.713226,294.696350 
	C165.000946,290.670166 164.539017,286.951782 164.542877,283.203186 
	C167.479919,282.845154 169.951187,282.517334 172.850830,282.298096 
	C192.499741,282.249237 211.720276,282.091766 230.940811,281.934265 
z"/>
<path fill="#F3BC7B" opacity="1.000000" stroke="none" 
	d="
M172.422455,282.189484 
	C169.951187,282.517334 167.479919,282.845154 164.098251,283.065369 
	C161.051483,282.923279 158.915131,282.888763 156.460938,282.704041 
	C153.482330,282.632263 150.821579,282.710724 147.743134,282.769897 
	C145.934479,282.711548 144.543503,282.672455 143.057419,282.410950 
	C142.603622,281.883331 142.244965,281.578094 141.608276,281.075317 
	C139.342621,278.453278 137.272369,276.091431 135.381332,273.593842 
	C126.097137,261.331573 116.860580,249.033264 107.469391,236.415604 
	C105.367363,232.806183 103.403152,229.528824 101.438942,226.251480 
	C107.147125,221.749268 112.855309,217.247070 118.852219,212.517136 
	C119.885460,213.745300 120.883949,214.797318 121.730995,215.959717 
	C130.910690,228.556992 140.247330,241.046204 149.131851,253.848923 
	C152.277557,258.381927 155.573227,260.727234 161.318268,260.183075 
	C167.403687,259.606659 173.580063,259.990326 180.516602,260.105469 
	C187.911621,260.138977 194.506760,260.021698 201.563766,259.922943 
	C209.609039,259.935699 217.192429,259.929932 224.775818,259.924164 
	C225.893555,260.031372 227.011307,260.138550 228.672577,260.340485 
	C229.216110,260.435242 229.529404,260.547791 229.529404,260.547791 
	C229.529404,260.547791 229.861649,260.526123 229.861649,260.526123 
	C230.084854,260.561188 230.308060,260.596283 230.908173,261.147400 
	C231.163651,263.153595 231.097961,264.650818 230.911469,266.132782 
	C229.940567,273.847656 229.929886,273.851837 222.040283,273.854370 
	C207.245895,273.859131 192.451370,273.817291 177.657211,273.875427 
	C171.037796,273.901459 169.654205,276.192627 172.422455,282.189484 
z"/>
<path fill="#076696" opacity="1.000000" stroke="none" 
	d="
M431.834991,76.991669 
	C432.222717,82.640121 432.610443,88.288567 432.993958,94.373154 
	C432.093903,97.789680 430.047546,98.307587 427.098969,98.295059 
	C398.469666,98.173363 369.838837,98.112183 341.210602,98.326111 
	C336.146484,98.363953 334.833160,96.653763 335.473694,91.931625 
	C336.053192,87.659012 335.975647,83.297279 336.695099,78.495667 
	C364.463074,78.007866 391.723969,78.042221 418.984375,77.946144 
	C423.268982,77.931053 427.551514,77.324654 431.834991,76.991669 
z"/>
<path fill="#0779B1" opacity="1.000000" stroke="none" 
	d="
M407.489319,56.872757 
	C414.748535,57.860897 421.234375,59.742222 425.701904,65.320976 
	C428.104614,68.321327 429.734406,71.940643 431.319519,75.629524 
	C399.604889,75.983032 368.283722,75.987671 336.962585,75.992310 
	C338.263092,65.817451 346.205292,58.920380 359.521912,56.654388 
	C375.621704,56.660782 391.323242,56.760277 407.489319,56.872757 
z"/>
<path fill="#FBFCFB" opacity="1.000000" stroke="none" 
	d="
M172.850830,282.298096 
	C169.654205,276.192627 171.037796,273.901459 177.657211,273.875427 
	C192.451370,273.817291 207.245895,273.859131 222.040283,273.854370 
	C229.929886,273.851837 229.940567,273.847656 230.911469,266.132782 
	C231.097961,264.650818 231.163651,263.153595 231.243896,261.193970 
	C234.148163,246.805710 237.162506,232.901047 240.018539,218.963943 
	C242.579773,206.465408 244.929413,193.923676 247.447021,181.416000 
	C248.645447,175.462097 251.319382,170.778503 258.526276,170.114944 
	C250.531952,176.374466 251.323502,186.338989 249.248566,194.952042 
	C246.143661,207.840454 244.040863,220.970123 241.505905,233.996033 
	C239.159714,246.052017 236.544907,258.066040 234.664032,270.193970 
	C234.263443,272.777100 236.520798,275.772400 237.604019,278.714722 
	C236.385361,278.380127 234.732956,277.926453 232.644562,277.353058 
	C232.133682,278.611084 231.600479,279.924042 231.004044,281.585632 
	C211.720276,282.091766 192.499741,282.249237 172.850830,282.298096 
z"/>
<path fill="#CC9258" opacity="1.000000" stroke="none" 
	d="
M224.725403,259.583435 
	C217.192429,259.929932 209.609039,259.935699 201.414001,259.608368 
	C195.523788,247.833862 190.245239,236.392471 184.966705,224.951065 
	C190.845123,221.925446 196.723526,218.899826 203.001282,215.837555 
	C207.094833,222.861084 210.939819,229.847488 214.441345,237.001999 
	C218.027710,244.329865 221.277756,251.822327 224.725403,259.583435 
z"/>
<path fill="#147EB1" opacity="1.000000" stroke="none" 
	d="
M405.016937,275.008301 
	C404.507660,274.980713 403.998383,274.953156 403.109131,274.881531 
	C406.884460,267.170441 414.065552,266.912903 422.332703,267.186249 
	C425.353241,267.161896 427.504730,267.138153 429.656250,267.114441 
	C436.530823,267.402344 443.405396,267.690277 450.679596,268.130310 
	C450.266754,270.410889 449.454285,272.539398 447.869324,274.837891 
	C433.070190,275.007996 419.043579,275.008148 405.016937,275.008301 
z"/>
<path fill="#2080AF" opacity="1.000000" stroke="none" 
	d="
M336.751160,76.192688 
	C368.283722,75.987671 399.604889,75.983032 431.384155,75.972023 
	C431.876404,76.136803 431.910522,76.307945 431.889801,76.735382 
	C427.551514,77.324654 423.268982,77.931053 418.984375,77.946144 
	C391.723969,78.042221 364.463074,78.007866 336.755310,78.036575 
	C336.385437,77.502129 336.462616,76.947601 336.751160,76.192688 
z"/>
<path fill="#E3D718" opacity="1.000000" stroke="none" 
	d="
M429.617188,266.785797 
	C427.504730,267.138153 425.353241,267.161896 422.807678,267.135010 
	C419.767059,264.326538 416.934723,261.716187 414.568298,258.735870 
	C413.661896,257.594269 413.819916,255.607498 413.492859,254.005844 
	C415.196594,254.291733 417.443512,253.988480 418.506897,254.968903 
	C422.410065,258.567535 425.920074,262.592590 429.617188,266.785797 
z"/>
<path fill="#FBFCFB" opacity="1.000000" stroke="none" 
	d="
M229.721252,260.452972 
	C229.861649,260.526123 229.529404,260.547791 229.529404,260.547791 
	C229.529404,260.547791 229.216110,260.435242 229.094025,260.324158 
	C229.183594,260.236969 229.386566,260.292542 229.721252,260.452972 
z"/>
<path fill="#9D6703" opacity="1.000000" stroke="none" 
	d="
M156.778763,282.854309 
	C158.915131,282.888763 161.051483,282.923279 163.632477,283.095581 
	C164.539017,286.951782 165.000946,290.670166 166.037964,294.961548 
	C168.423737,295.688690 170.234222,295.973938 172.045151,295.976776 
	C192.377213,296.008545 212.709351,296.002106 233.041458,295.995972 
	C305.703278,295.973969 378.365112,295.948151 451.026917,295.923767 
	C451.026917,295.923767 451.500763,295.975342 451.734039,296.024811 
	C452.001343,303.068298 452.035400,310.062286 451.982300,317.515564 
	C354.599945,317.959717 257.304749,317.945923 160.009537,317.921173 
	C157.848801,317.920624 155.688095,317.795044 153.244263,316.948486 
	C152.952271,310.058899 152.943375,303.948547 152.886536,297.578735 
	C152.555008,296.883270 152.271454,296.447266 151.993942,296.005615 
	C152.000000,296.000000 151.990112,296.011841 151.659607,295.762695 
	C149.359283,295.347443 147.389572,295.038605 145.419586,295.036591 
	C112.996788,295.003723 80.573952,295.002960 48.151131,295.015350 
	C44.337894,295.016815 40.524704,295.138062 36.711494,295.203796 
	C31.962061,295.203796 27.212626,295.203796 21.864975,295.203796 
	C21.864975,291.244110 21.864975,287.520264 22.512474,283.434357 
	C31.362894,282.911774 39.565811,282.751282 47.768730,282.590759 
	C48.299404,282.551758 48.830082,282.512756 49.812737,282.627625 
	C50.264721,282.781525 50.614483,282.809204 50.614483,282.809204 
	C50.614483,282.809204 50.841915,282.563934 50.841915,282.563934 
	C51.491501,282.502014 52.141083,282.440094 53.458954,282.378662 
	C54.390385,282.424316 54.654308,282.464355 55.294926,282.674561 
	C84.831406,282.777679 113.991974,282.705536 143.152542,282.633362 
	C144.543503,282.672455 145.934479,282.711548 148.163498,282.831665 
	C151.593964,282.893219 154.186356,282.873749 156.778763,282.854309 
z"/>
<path fill="#A6D9E7" opacity="1.000000" stroke="none" 
	d="
M324.583527,340.033936 
	C325.189850,342.143921 325.442871,344.288269 325.441193,346.432434 
	C325.415863,379.001740 325.357208,411.571014 325.228088,444.822754 
	C325.149445,445.679871 325.149078,445.854614 325.148682,446.029358 
	C324.980347,446.110474 324.812012,446.191589 324.329102,445.964630 
	C301.720337,423.478058 279.556793,401.165131 257.004395,379.252411 
	C253.213501,375.569000 247.741028,373.616241 242.782059,370.537048 
	C242.321045,368.436493 241.845230,366.642639 241.972000,364.892365 
	C242.683502,355.069244 241.602142,346.018799 232.221008,340.208954 
	C262.851257,340.162048 293.481506,340.115112 324.583527,340.033936 
z"/>
<path fill="#2C6896" opacity="1.000000" stroke="none" 
	d="
M231.750717,340.090027 
	C241.602142,346.018799 242.683502,355.069244 241.972000,364.892365 
	C241.845230,366.642639 242.321045,368.436493 242.508759,370.863770 
	C242.582535,382.112488 242.666153,392.707672 242.749786,403.302856 
	C242.475372,405.237640 241.979019,407.170441 241.961761,409.107513 
	C241.828384,424.087891 241.787659,439.069092 241.338898,454.602356 
	C232.018372,455.426575 223.077148,455.698486 214.135925,455.970398 
	C214.008484,434.712311 213.911331,413.453888 213.700241,392.196625 
	C213.681946,390.355408 212.911316,388.521698 212.595230,386.245422 
	C213.120895,381.643066 213.643600,377.486786 213.931442,373.314301 
	C214.185150,369.636139 212.520355,367.919769 208.593994,368.006836 
	C200.300873,368.190826 191.998276,367.947968 183.705200,368.132843 
	C182.116394,368.168274 180.553467,369.363495 178.606079,369.977600 
	C174.825256,369.665253 171.416977,369.398956 168.008698,369.132660 
	C167.965012,360.833710 168.007080,352.532928 167.833176,344.236725 
	C167.768372,341.145325 168.641449,339.738739 172.020508,339.765747 
	C191.773087,339.923767 211.526978,339.920166 231.750717,340.090027 
z"/>
<path fill="#875503" opacity="1.000000" stroke="none" 
	d="
M152.934479,297.838226 
	C152.943375,303.948547 152.952271,310.058899 152.945755,316.646362 
	C150.142609,317.395844 147.355179,317.901001 144.567047,317.905090 
	C111.070488,317.954010 77.573814,317.928680 43.619080,317.930481 
	C43.081188,310.952301 43.001389,303.966339 43.405582,296.491455 
	C79.923088,296.005676 115.956596,296.008759 151.990112,296.011841 
	C151.990112,296.011841 152.000000,296.000000 152.037842,296.272705 
	C152.361954,296.976318 152.648224,297.407288 152.934479,297.838226 
z"/>
<path fill="#2A6695" opacity="1.000000" stroke="none" 
	d="
M152.216507,356.950745 
	C152.193771,359.973907 152.171036,362.997040 151.626678,366.492462 
	C141.060379,366.978821 131.015686,366.992920 120.986053,366.998505 
	C121.001099,366.990021 121.004837,367.024353 120.865219,366.807312 
	C120.447220,366.390442 120.168839,366.190613 119.544937,365.944702 
	C111.471153,361.914093 105.419609,356.659149 105.002800,346.698975 
	C104.454140,342.136292 106.234360,340.858337 110.338509,340.922089 
	C124.233856,341.137970 138.134689,340.999878 152.033432,340.997040 
	C152.033432,340.997040 152.156265,340.997589 152.119019,341.500732 
	C152.126678,346.986176 152.171600,351.968445 152.216507,356.950745 
z"/>
<path fill="#0A557B" opacity="1.000000" stroke="none" 
	d="
M91.289246,378.903931 
	C87.251801,378.596649 83.644875,378.236908 80.029831,378.111389 
	C76.760292,377.997925 74.342804,376.742950 74.281387,373.298492 
	C74.216690,369.669556 76.881523,368.651154 80.047653,368.649353 
	C86.351974,368.645844 92.656311,368.662689 99.849121,368.803223 
	C102.816841,368.933411 104.896095,368.931549 107.241570,368.939667 
	C107.684967,368.937164 107.862137,368.924713 108.441635,368.910461 
	C110.904900,368.603058 112.965820,368.297424 115.451309,368.002594 
	C117.575172,368.019196 119.274475,368.025024 121.444672,368.047852 
	C131.963531,368.173584 142.011475,368.282318 152.059418,368.391052 
	C151.887268,371.439514 151.715134,374.487976 150.761841,377.758240 
	C143.773483,378.057434 137.566299,378.134796 130.867188,378.159790 
	C121.248711,378.085846 112.122169,378.064270 102.995621,378.042725 
	C99.235825,378.346313 95.476021,378.649902 91.289246,378.903931 
z"/>
<path fill="#066494" opacity="1.000000" stroke="none" 
	d="
M120.973770,368.030853 
	C119.274475,368.025024 117.575172,368.019196 115.145752,367.764282 
	C110.348961,366.319153 106.055031,365.608948 102.259544,363.833313 
	C92.120689,359.089966 84.343346,351.772064 79.887169,341.277985 
	C87.645905,340.885437 95.404648,340.492889 103.589645,340.541565 
	C104.340805,343.036713 104.665695,345.090546 104.990578,347.144409 
	C105.419609,356.659149 111.471153,361.914093 119.695587,366.154236 
	C120.462791,366.614655 120.733810,366.819519 121.004837,367.024353 
	C121.004837,367.024353 121.001099,366.990021 120.989853,367.254456 
	C120.976982,367.689545 120.975372,367.860199 120.973770,368.030853 
z"/>
<path fill="#1F4E70" opacity="1.000000" stroke="none" 
	d="
M178.978607,370.023682 
	C180.553467,369.363495 182.116394,368.168274 183.705200,368.132843 
	C191.998276,367.947968 200.300873,368.190826 208.593994,368.006836 
	C212.520355,367.919769 214.185150,369.636139 213.931442,373.314301 
	C213.643600,377.486786 213.120895,381.643066 212.333511,385.965698 
	C206.524979,384.070221 201.083252,382.015472 195.237656,379.957520 
	C194.110306,379.679047 193.386841,379.403748 192.306061,378.770721 
	C191.302719,377.939545 190.656693,377.466064 190.005920,376.995697 
	C190.001190,376.998779 190.007584,376.999115 189.871582,376.787933 
	C189.465851,376.380463 189.196152,376.184174 188.585724,375.931274 
	C185.492233,374.277008 182.739441,372.679382 179.869446,370.860413 
	C179.549728,370.364655 179.294250,370.154694 178.991699,370.007294 
	C178.997604,370.005371 178.978607,370.023682 178.978607,370.023682 
z"/>
<path fill="#187EB1" opacity="1.000000" stroke="none" 
	d="
M79.441406,341.201935 
	C84.343346,351.772064 92.120689,359.089966 102.259544,363.833313 
	C106.055031,365.608948 110.348961,366.319153 114.721184,367.753479 
	C112.965820,368.297424 110.904900,368.603058 108.325577,368.796814 
	C107.474724,368.538788 107.197441,368.620361 106.975342,368.929688 
	C104.896095,368.931549 102.816841,368.933411 100.308838,368.841919 
	C98.951546,367.972931 98.145081,366.858398 97.075867,366.473236 
	C84.480202,361.935913 75.145607,353.758392 69.016632,341.475220 
	C72.271492,341.142029 75.633560,341.133972 79.441406,341.201935 
z"/>
<path fill="#08567D" opacity="1.000000" stroke="none" 
	d="
M179.986633,371.081757 
	C182.739441,372.679382 185.492233,374.277008 188.731445,376.135620 
	C189.437210,376.654999 189.700455,376.855835 190.007584,376.999115 
	C190.007584,376.999115 190.001190,376.998779 189.682663,377.258301 
	C182.244843,377.652557 175.125565,377.787231 168.006287,377.921936 
	C167.985077,375.279938 167.963882,372.637939 167.975693,369.564301 
	C171.416977,369.398956 174.825256,369.665253 178.606079,369.977600 
	C178.978607,370.023682 178.997604,370.005371 179.114838,370.222778 
	C179.445557,370.698792 179.697067,370.912628 179.986633,371.081757 
z"/>
<path fill="#B7DBE7" opacity="1.000000" stroke="none" 
	d="
M168.031586,390.473755 
	C168.418900,391.278412 168.954071,392.541321 168.956757,393.805389 
	C169.009491,418.690277 169.006363,443.575317 168.981598,468.460297 
	C168.980637,469.426239 168.651596,470.391846 168.205154,471.673889 
	C167.933762,444.970947 167.932632,417.951752 168.031586,390.473755 
z"/>
<path fill="#9CCAD8" opacity="1.000000" stroke="none" 
	d="
M131.359100,378.212158 
	C137.566299,378.134796 143.773483,378.057434 150.442001,378.017822 
	C144.869553,383.867645 138.478104,383.577240 131.592606,378.857849 
	C131.339691,378.543182 131.359100,378.212158 131.359100,378.212158 
z"/>
<path fill="#48779B" opacity="1.000000" stroke="none" 
	d="
M105.002800,346.698975 
	C104.665695,345.090546 104.340805,343.036713 104.036209,340.578613 
	C119.858528,340.240021 135.660553,340.305634 151.748016,340.684143 
	C138.134689,340.999878 124.233856,341.137970 110.338509,340.922089 
	C106.234360,340.858337 104.454140,342.136292 105.002800,346.698975 
z"/>
<path fill="#727B7E" opacity="1.000000" stroke="none" 
	d="
M63.832649,340.244507 
	C60.249104,340.503235 59.660179,342.834076 59.713280,346.276886 
	C59.898945,358.314819 59.800220,370.357178 59.611710,382.768555 
	C59.236416,370.602753 59.105175,358.065216 58.824383,345.531067 
	C58.788342,343.922119 57.975159,342.330566 57.337917,340.387970 
	C59.260963,340.060669 61.368080,340.076385 63.832649,340.244507 
z"/>
<path fill="#4179A1" opacity="1.000000" stroke="none" 
	d="
M121.444672,368.047852 
	C120.975372,367.860199 120.976982,367.689545 120.974808,367.262939 
	C131.015686,366.992920 141.060379,366.978821 151.577591,366.940979 
	C152.076630,367.161407 152.103119,367.405609 152.094513,368.020447 
	C142.011475,368.282318 131.963531,368.173584 121.444672,368.047852 
z"/>
<path fill="#345A6F" opacity="1.000000" stroke="none" 
	d="
M130.867188,378.159790 
	C131.359100,378.212158 131.339691,378.543182 131.279480,378.697693 
	C122.039948,378.732147 112.860619,378.612122 103.338455,378.267395 
	C112.122169,378.064270 121.248711,378.085846 130.867188,378.159790 
z"/>
<path fill="#31627D" opacity="1.000000" stroke="none" 
	d="
M168.295563,378.227722 
	C175.125565,377.787231 182.244843,377.652557 189.687408,377.255249 
	C190.656693,377.466064 191.302719,377.939545 192.015991,378.732025 
	C184.250427,378.878540 176.417648,378.706024 168.295563,378.227722 
z"/>
<path fill="#B7DBE7" opacity="1.000000" stroke="none" 
	d="
M187.515564,387.095215 
	C181.779083,387.508728 175.587173,387.812958 169.110809,387.900879 
	C174.904297,387.451691 180.982224,387.218811 187.515564,387.095215 
z"/>
<path fill="#0A557B" opacity="1.000000" stroke="none" 
	d="
M152.405167,356.602600 
	C152.171600,351.968445 152.126678,346.986176 152.145996,341.555908 
	C152.338104,346.156799 152.465958,351.205658 152.405167,356.602600 
z"/>
<path fill="#B1E4F1" opacity="1.000000" stroke="none" 
	d="
M135.578278,458.432922 
	C135.570129,458.782196 135.211105,458.767181 135.053894,458.854248 
	C134.874359,458.053406 134.852020,457.165497 135.063065,456.154755 
	C135.393112,456.715851 135.489777,457.399750 135.578278,458.432922 
z"/>
<path fill="#7D8F99" opacity="1.000000" stroke="none" 
	d="
M84.301270,421.262573 
	C84.568306,422.452301 84.701202,424.017944 84.661087,425.955505 
	C84.381104,424.764465 84.274124,423.201447 84.301270,421.262573 
z"/>
<path fill="#A0A9AB" opacity="1.000000" stroke="none" 
	d="
M44.067337,340.802124 
	C44.118465,341.736115 44.029419,342.510559 43.820072,343.657104 
	C43.553856,343.048645 43.407948,342.068085 43.428112,340.733215 
	C43.594185,340.378937 43.927162,340.642578 44.067337,340.802124 
z"/>
<path fill="#727B7E" opacity="1.000000" stroke="none" 
	d="
M67.915634,340.719421 
	C67.801720,340.886353 67.593399,340.882812 67.104370,340.741699 
	C67.156189,340.585754 67.488708,340.567352 67.915634,340.719421 
z"/>
<path fill="#066595" opacity="1.000000" stroke="none" 
	d="
M101.209305,226.031647 
	C103.403152,229.528824 105.367363,232.806183 107.314308,236.875656 
	C107.311806,245.984833 107.326569,254.301880 107.269653,263.015015 
	C107.164474,268.394379 107.023872,273.380127 107.139671,278.359894 
	C107.204041,281.128174 106.215126,282.181152 103.396721,282.144440 
	C89.944473,281.969116 76.490402,281.934296 63.029404,281.442780 
	C60.865757,271.093353 58.723045,261.147705 56.550381,251.208603 
	C53.520245,237.346909 57.602478,227.729019 69.685524,220.195114 
	C70.913406,219.429535 71.983810,218.411423 73.127289,217.510498 
	C79.660164,217.102234 86.193054,216.694000 93.196342,216.291107 
	C96.104385,219.468246 98.542030,222.640015 101.209305,226.031647 
z"/>
<path fill="#0C7CB3" opacity="1.000000" stroke="none" 
	d="
M72.799698,217.284073 
	C71.983810,218.411423 70.913406,219.429535 69.685524,220.195114 
	C57.602478,227.729019 53.520245,237.346909 56.550381,251.208603 
	C58.723045,261.147705 60.865757,271.093353 62.579876,281.511169 
	C59.731617,282.157288 57.325317,282.328278 54.919014,282.499268 
	C54.654308,282.464355 54.390385,282.424316 53.943398,282.307190 
	C50.961872,270.428040 47.496014,258.730865 45.529507,246.786819 
	C42.853065,230.530899 56.086109,216.462036 72.799698,217.284073 
z"/>
<path fill="#A47F3B" opacity="1.000000" stroke="none" 
	d="
M151.659607,295.762695 
	C115.956596,296.008759 79.923088,296.005676 43.418087,296.026123 
	C41.109821,295.868988 39.273045,295.688324 37.073883,295.355713 
	C40.524704,295.138062 44.337894,295.016815 48.151131,295.015350 
	C80.573952,295.002960 112.996788,295.003723 145.419586,295.036591 
	C147.389572,295.038605 149.359283,295.347443 151.659607,295.762695 
z"/>
<path fill="#F2BC7C" opacity="1.000000" stroke="none" 
	d="
M129.209717,181.367065 
	C119.895988,181.599045 110.175911,181.728043 100.079659,181.765411 
	C109.403442,181.537231 119.103394,181.400665 129.209717,181.367065 
z"/>
<path fill="#887554" opacity="1.000000" stroke="none" 
	d="
M47.347660,282.444153 
	C39.565811,282.751282 31.362894,282.911774 22.722658,283.007111 
	C30.499090,282.727142 38.712841,282.512329 47.347660,282.444153 
z"/>
<path fill="#A0A9AB" opacity="1.000000" stroke="none" 
	d="
M43.506840,371.182068 
	C43.780014,371.741882 43.859440,372.513123 43.820419,373.658203 
	C43.572350,373.152496 43.442722,372.273010 43.506840,371.182068 
z"/>
<path fill="#887554" opacity="1.000000" stroke="none" 
	d="
M50.669315,282.478149 
	C50.841915,282.563934 50.614483,282.809204 50.614483,282.809204 
	C50.614483,282.809204 50.264721,282.781525 50.209709,282.675842 
	C50.154694,282.570190 50.496716,282.392395 50.669315,282.478149 
z"/>
<path fill="#1F4C6D" opacity="1.000000" stroke="none" 
	d="
M242.938538,403.574768 
	C242.666153,392.707672 242.582535,382.112488 242.772217,371.190552 
	C247.741028,373.616241 253.213501,375.569000 257.004395,379.252411 
	C279.556793,401.165131 301.720337,423.478058 324.055389,446.025085 
	C318.061646,452.357208 312.027039,458.320831 305.659058,464.181580 
	C298.172058,457.444275 290.878113,450.953735 283.894653,444.144745 
	C270.214020,430.805939 256.706482,417.289551 242.938538,403.574768 
z"/>
<path fill="#060708" opacity="1.000000" stroke="none" 
	d="
M213.989990,456.400604 
	C223.077148,455.698486 232.018372,455.426575 241.390076,455.067749 
	C244.956177,455.324432 248.130981,455.463165 251.219223,456.054199 
	C257.684143,457.291382 262.250061,463.277527 262.101593,469.681061 
	C262.034393,472.578278 260.936279,473.946655 257.942902,473.923035 
	C247.967850,473.844208 237.982803,474.125916 228.019043,473.774475 
	C217.980804,473.420471 213.474442,467.739746 213.989990,456.400604 
z"/>
<path fill="#102536" opacity="1.000000" stroke="none" 
	d="
M325.324310,445.986816 
	C325.149078,445.854614 325.149445,445.679871 325.299561,445.291138 
	C325.541412,445.273529 325.659790,445.463470 325.711029,445.670044 
	C325.728302,445.739685 325.575165,445.851624 325.324310,445.986816 
z"/>
<path fill="#2479A4" opacity="1.000000" stroke="none" 
	d="
M405.339508,275.266235 
	C419.043579,275.008148 433.070190,275.007996 447.570190,275.014404 
	C447.458801,275.307220 446.872803,275.845795 446.289581,275.842743 
	C432.746887,275.772125 419.204529,275.642731 405.339508,275.266235 
z"/>
<path fill="#FDFDFD" opacity="1.000000" stroke="none" 
	d="
M339.574860,205.199036 
	C340.189972,205.693100 340.761749,206.348831 340.679474,206.445023 
	C337.354767,210.331284 339.241699,213.468063 341.364349,217.282791 
	C344.172302,222.329163 342.065765,228.642136 337.168762,233.379486 
	C332.468109,237.926880 325.788849,239.514755 320.712494,237.291733 
	C313.441223,234.107498 311.536499,224.048050 317.203918,217.408249 
	C319.531342,214.681519 322.517151,212.516785 325.416199,209.904755 
	C324.812653,208.508469 324.058136,206.762894 323.339203,205.099731 
	C328.821106,205.099731 334.023773,205.099731 339.574860,205.199036 
z"/>
<path fill="#6A3723" opacity="1.000000" stroke="none" 
	d="
M171.348572,143.651596 
	C174.649658,144.899338 177.589981,146.007050 180.617493,147.147614 
	C176.634323,152.429718 167.716415,154.926651 161.574677,152.696915 
	C155.903076,150.637863 151.620438,143.971024 151.796112,136.565704 
	C158.348312,138.937088 164.668060,141.224335 171.348572,143.651596 
z"/>
<path fill="#313535" opacity="1.000000" stroke="none" 
	d="
M165.285843,103.948029 
	C166.817856,107.370293 166.191940,110.202148 163.176407,111.438492 
	C161.372131,112.178230 157.760696,112.158844 157.017334,111.073135 
	C155.499939,108.856873 155.371674,105.689507 154.390060,101.799934 
	C152.647736,101.576874 149.289261,101.146904 145.873260,100.709572 
	C150.459808,92.313385 163.195862,91.377243 169.228271,98.761101 
	C167.852097,100.381454 166.487778,101.987854 165.285843,103.948029 
z"/>
<path fill="#323635" opacity="1.000000" stroke="none" 
	d="
M190.947876,111.997162 
	C186.830551,109.324753 187.657883,105.995544 189.152298,102.438988 
	C187.906479,101.576469 186.723785,100.757660 184.995087,99.560829 
	C186.513977,98.177399 187.589874,96.624756 189.066376,95.954208 
	C194.723801,93.384926 199.243973,95.941559 204.061890,99.938896 
	C201.848724,100.746521 200.117142,101.378395 198.922699,101.814270 
	C198.486969,104.995239 198.716522,108.214638 197.436325,110.635704 
	C196.779221,111.878395 193.426559,111.695740 190.947876,111.997162 
z"/>
<path fill="#CD9258" opacity="1.000000" stroke="none" 
	d="
M171.252274,126.881676 
	C173.020248,121.558731 174.835251,116.614227 176.650269,111.669716 
	C177.275726,111.559700 177.901184,111.449684 178.526642,111.339668 
	C180.331680,116.493515 182.464096,121.563248 183.818130,126.832970 
	C184.621414,129.959229 182.550415,131.608414 179.328979,130.560684 
	C176.584885,129.668182 173.970871,128.375656 171.252274,126.881676 
z"/>
<path fill="#AAD8E4" opacity="1.000000" stroke="none" 
	d="
M184.686539,224.776642 
	C190.245239,236.392471 195.523788,247.833862 200.952118,259.589844 
	C194.506760,260.021698 187.911621,260.138977 180.950806,260.012268 
	C180.585098,246.820343 180.585098,233.872375 180.585098,220.924408 
	C180.936813,220.772293 181.288513,220.620163 181.640228,220.468048 
	C182.562271,221.846100 183.484314,223.224167 184.686539,224.776642 
z"/>
<path fill="#B3842B" opacity="1.000000" stroke="none" 
	d="
M450.688782,295.684143 
	C378.365112,295.948151 305.703278,295.973969 233.041458,295.995972 
	C212.709351,296.002106 192.377213,296.008545 172.045151,295.976776 
	C170.234222,295.973938 168.423737,295.688690 166.288315,295.269348 
	C258.947205,295.001953 351.930817,294.997223 444.914429,295.016174 
	C446.726532,295.016571 448.538544,295.295532 450.688782,295.684143 
z"/>
<path fill="#6D0505" opacity="1.000000" stroke="none" 
	d="
M107.341339,262.618927 
	C107.326569,254.301880 107.311806,245.984833 107.452126,237.207733 
	C116.860580,249.033264 126.097137,261.331573 135.381332,273.593842 
	C137.272369,276.091431 139.342621,278.453278 141.279907,281.318512 
	C130.350220,281.759308 119.470894,281.759308 108.361160,281.759308 
	C108.008583,275.141998 107.674957,268.880463 107.341339,262.618927 
z"/>
<path fill="#887554" opacity="1.000000" stroke="none" 
	d="
M107.269653,263.015015 
	C107.674957,268.880463 108.008583,275.141998 108.361160,281.759308 
	C119.470894,281.759308 130.350220,281.759308 141.557922,281.516113 
	C142.244965,281.578094 142.603622,281.883331 143.057419,282.410950 
	C113.991974,282.705536 84.831406,282.777679 55.294926,282.674561 
	C57.325317,282.328278 59.731617,282.157288 62.587448,281.917908 
	C76.490402,281.934296 89.944473,281.969116 103.396721,282.144440 
	C106.215126,282.181152 107.204041,281.128174 107.139671,278.359894 
	C107.023872,273.380127 107.164474,268.394379 107.269653,263.015015 
z"/>
<path fill="#887554" opacity="1.000000" stroke="none" 
	d="
M156.460938,282.704071 
	C154.186356,282.873749 151.593964,282.893219 148.581177,282.850922 
	C150.821579,282.710724 153.482330,282.632263 156.460938,282.704071 
z"/>
<path fill="#A47F3B" opacity="1.000000" stroke="none" 
	d="
M152.886536,297.578735 
	C152.648224,297.407288 152.361954,296.976318 152.031784,296.278320 
	C152.271454,296.447266 152.555008,296.883270 152.886536,297.578735 
z"/>
<path fill="#4179A1" opacity="1.000000" stroke="none" 
	d="
M120.865219,366.807312 
	C120.733810,366.819519 120.462791,366.614655 120.041107,366.200256 
	C120.168839,366.190613 120.447220,366.390442 120.865219,366.807312 
z"/>
<path fill="#066494" opacity="1.000000" stroke="none" 
	d="
M107.241570,368.939667 
	C107.197441,368.620361 107.474724,368.538788 107.923241,368.798584 
	C107.862137,368.924713 107.684967,368.937164 107.241570,368.939667 
z"/>
<path fill="#31627D" opacity="1.000000" stroke="none" 
	d="
M189.871582,376.787933 
	C189.700455,376.855835 189.437210,376.654999 189.072144,376.192261 
	C189.196152,376.184174 189.465851,376.380463 189.871582,376.787933 
z"/>
<path fill="#2C6896" opacity="1.000000" stroke="none" 
	d="
M179.869446,370.860413 
	C179.697067,370.912628 179.445557,370.698792 179.108948,370.224731 
	C179.294250,370.154694 179.549728,370.364655 179.869446,370.860413 
z"/>
</svg>