<svg version="1.1" id="Layer_1" xmlns="http://www.w3.org/2000/svg" xmlns:xlink="http://www.w3.org/1999/xlink" x="0px" y="0px"
	 width="100%" viewBox="0 0 684 700" enable-background="new 0 0 684 700" xml:space="preserve">
<path fill="#FFFFFF" opacity="1.000000" stroke="none" 
	d="
M1.000000,667.000000 
	C1.000000,445.046173 1.000000,223.092331 1.000000,1.069251 
	C228.906387,1.069251 456.812805,1.069251 685.000000,1.069251 
	C685.000000,222.693436 685.000000,444.386993 684.531372,666.540466 
	C456.375122,667.000244 228.687561,667.000122 1.000000,667.000000 
M567.086121,52.000088 
	C566.849365,46.940063 565.545105,42.483280 560.404846,40.201248 
	C556.369080,38.409554 552.613525,38.921814 549.288757,41.788967 
	C547.800415,43.072453 546.549805,44.631527 544.931396,45.418037 
	C540.786560,38.547947 534.739380,34.008984 527.071472,32.066231 
	C512.679565,28.419825 498.594177,32.341808 488.382385,48.235687 
	C478.688568,43.857052 469.026276,39.407047 459.295380,35.112431 
	C421.682190,18.512291 382.059906,11.113641 341.187439,10.197039 
	C328.273560,9.907433 315.315338,11.204837 302.388611,11.965880 
	C280.377686,13.261745 259.065002,18.102814 238.212387,25.089510 
	C236.646759,25.614077 235.319809,26.850927 233.156418,27.664785 
	C226.496994,26.216133 219.870087,24.591600 213.171646,23.354065 
	C197.400070,20.440269 182.046539,21.751007 167.143967,28.027727 
	C151.918503,34.440456 140.666153,44.762207 134.492752,60.374031 
	C133.180130,56.853069 131.940750,53.528553 130.701370,50.204037 
	C129.336838,54.097736 128.961349,57.837635 129.024063,61.570168 
	C129.071793,64.411171 128.055176,65.783859 125.458862,67.155792 
	C122.758057,68.582932 120.746185,71.313873 118.433067,73.474693 
	C118.784729,73.818626 119.136398,74.162567 119.488060,74.506508 
	C122.224777,73.987442 124.961502,73.468384 127.228477,73.038414 
	C124.423149,79.962318 121.765419,86.521942 118.472450,93.296066 
	C106.837212,105.136246 94.669044,116.504234 83.674911,128.912445 
	C58.882576,156.893616 41.651825,189.407242 28.771046,224.318405 
	C15.953971,259.056885 9.782013,295.066254 9.127658,331.999176 
	C8.963791,341.248108 10.045714,350.553558 11.040402,359.780701 
	C12.620044,374.434021 13.845106,389.187988 16.585611,403.640442 
	C21.910049,431.719666 31.850948,458.345551 45.020603,483.675690 
	C49.423351,492.143829 55.095924,499.951752 60.405788,508.969849 
	C60.405788,551.875183 60.405788,594.780518 60.405788,637.654907 
	C67.861259,637.654907 74.745483,637.654907 81.835556,637.654907 
	C81.835556,631.335327 81.822777,625.361389 81.837769,619.387512 
	C81.902504,593.593628 81.975372,567.799683 82.634476,542.302673 
	C89.467468,548.877075 96.300461,555.451477 103.236786,562.955139 
	C103.242653,584.752075 103.249382,606.549072 103.254021,628.346008 
	C103.256271,638.901917 103.254478,638.907166 113.622688,638.929871 
	C114.066711,638.930847 114.511307,638.667725 115.667694,638.303040 
	C115.667694,617.977661 115.667694,597.539307 116.273445,577.216736 
	C118.134186,578.572876 120.082115,579.825073 121.842316,581.301086 
	C141.038086,597.397766 161.179123,612.080994 183.984039,623.928528 
	C183.984039,628.805359 183.984039,633.682190 183.984039,638.618347 
	C189.350403,638.618347 194.067856,638.618347 199.259323,638.618347 
	C199.259323,636.292786 199.259323,634.182983 199.986404,632.062561 
	C202.040436,632.705261 204.094467,633.347961 206.357132,634.774658 
	C206.633331,637.591248 207.958801,638.643616 210.952164,638.295471 
	C213.880569,637.955017 216.893921,638.345154 220.061172,639.077759 
	C249.547531,651.550415 280.553864,657.938599 312.279938,659.690247 
	C339.791229,661.209290 367.556549,661.158813 394.603363,654.791992 
	C412.939911,650.475525 430.848206,644.339722 449.865997,638.861206 
	C453.374237,638.861206 456.882477,638.861206 460.414764,638.861206 
	C460.724976,636.902222 460.949677,635.483154 461.906830,634.018250 
	C462.234528,633.963745 462.587646,633.970459 462.886292,633.846130 
	C498.433929,619.041809 529.808777,597.816650 557.765015,571.519104 
	C568.160522,561.740356 577.847900,551.208801 587.984619,541.947632 
	C587.984619,573.898315 587.984619,605.849060 587.984619,637.763794 
	C595.337891,637.763794 602.207520,637.763794 609.879883,637.763794 
	C609.879883,594.225342 609.879883,551.092041 610.467773,507.605438 
	C626.865906,480.249939 639.821655,451.434723 648.318542,420.602844 
	C653.889404,400.388397 657.609924,379.881348 658.853271,359.012817 
	C659.611938,346.279968 659.368042,333.447327 658.842896,320.689575 
	C658.332153,308.282288 657.062012,295.894775 655.737122,283.540192 
	C655.387817,280.282379 653.604248,277.178345 652.668701,273.208130 
	C660.665588,248.004715 668.662476,222.801300 677.078613,197.255066 
	C684.238281,192.209000 686.344543,185.475693 681.519348,180.179214 
	C679.199463,177.632751 675.036621,176.765305 671.730469,174.462250 
	C650.912170,150.072495 630.145203,125.638710 609.257629,101.308434 
	C595.310120,85.062126 581.190979,68.963150 567.086121,52.000088 
z"/>
<path fill="#000000" opacity="1.000000" stroke="none" 
	d="
M1.000000,667.468628 
	C228.687561,667.000122 456.375122,667.000244 684.531372,667.000183 
	C685.000000,678.270203 685.000000,689.540405 685.000000,701.000000 
	C670.312988,701.000000 655.625122,701.000000 640.225586,700.687012 
	C640.381836,699.217651 641.249817,698.061340 643.113281,695.578857 
	C640.266174,695.360291 638.557129,695.229126 636.848145,695.097900 
	C637.241760,696.635498 637.658386,698.167664 638.013428,699.714050 
	C638.106689,700.120239 638.009644,700.570190 638.000000,701.000000 
	C425.666656,701.000000 213.333328,701.000000 1.000000,701.000000 
	C1.000000,689.922974 1.000000,678.930176 1.000000,667.468628 
z"/>
<path fill="#E51C1C" opacity="1.000000" stroke="none" 
	d="
M638.333313,701.000000 
	C638.009644,700.570190 638.106689,700.120239 638.013428,699.714050 
	C637.658386,698.167664 637.241760,696.635498 636.848145,695.097900 
	C638.557129,695.229126 640.266174,695.360291 643.113281,695.578857 
	C641.249817,698.061340 640.381836,699.217651 639.756958,700.687012 
	C639.555542,701.000000 639.111084,701.000000 638.333313,701.000000 
z"/>
<path fill="#A6DAE8" opacity="1.000000" stroke="none" 
	d="
M233.881897,27.756664 
	C235.319809,26.850927 236.646759,25.614077 238.212387,25.089510 
	C259.065002,18.102814 280.377686,13.261745 302.388611,11.965880 
	C315.315338,11.204837 328.273560,9.907433 341.187439,10.197039 
	C382.059906,11.113641 421.682190,18.512291 459.295380,35.112431 
	C469.026276,39.407047 478.688568,43.857052 488.727112,48.654274 
	C488.373627,51.259945 487.237549,53.411797 487.058197,55.640640 
	C486.490021,62.701447 486.279327,69.791016 485.533325,76.928192 
	C483.027863,77.387825 480.892761,77.682877 478.815430,78.206841 
	C465.461121,81.575195 456.169342,91.380280 454.491272,103.878662 
	C453.802856,111.864746 453.570129,119.514717 452.873749,127.122253 
	C452.447937,131.774292 454.111053,133.178635 458.684875,133.163406 
	C498.623688,133.030441 538.563232,133.037720 578.502075,133.166580 
	C581.846558,133.177368 583.386963,132.198364 583.833557,128.964569 
	C592.441345,139.679855 601.531372,149.858673 608.842407,161.185699 
	C623.726562,184.245804 635.345947,208.996063 643.679382,235.227325 
	C644.459229,237.681961 646.010315,239.891602 647.156128,242.591309 
	C637.898560,271.614258 628.734192,300.275848 619.454834,328.900146 
	C615.780518,340.234406 611.850342,351.485748 607.879517,362.422180 
	C605.644165,361.692719 603.572205,361.035950 601.486694,360.989716 
	C594.211609,360.828369 586.931946,360.878174 579.680298,360.519440 
	C574.518188,354.625885 569.482605,348.902710 564.021912,343.618866 
	C562.823853,342.459686 559.478394,341.911438 558.229553,342.743774 
	C555.529236,344.543579 556.861572,347.065491 558.796082,349.049438 
	C562.625916,352.977112 566.456665,356.903900 569.804932,360.875671 
	C567.162231,360.920807 564.997253,361.011169 562.841797,360.905945 
	C554.328857,360.490234 547.657959,363.597076 542.938354,371.272766 
	C541.528076,374.665588 540.362671,377.794556 538.904297,381.022949 
	C538.411560,381.173279 538.211731,381.224182 537.553833,381.171753 
	C531.730591,381.141876 526.365417,381.215271 520.763184,381.227539 
	C520.526184,381.166412 520.065186,381.001617 520.179565,380.680176 
	C522.721130,376.585876 525.343323,372.920776 527.508240,369.002991 
	C529.001892,366.300110 530.332153,363.341705 530.934265,360.336975 
	C536.913879,330.494263 542.800842,300.632324 548.546814,270.743713 
	C550.605713,260.034027 552.545959,249.278580 553.885559,238.462921 
	C554.591064,232.767303 551.312256,230.009033 545.476257,230.008957 
	C480.314148,230.008041 415.152069,230.026505 349.592346,230.027039 
	C340.732300,231.188217 337.010925,234.315552 335.132111,242.459106 
	C333.758026,248.414948 332.859619,254.478867 331.654266,260.475555 
	C326.149323,287.862366 320.591248,315.238525 315.096283,342.627319 
	C313.409698,351.033752 313.473755,351.046600 304.869232,351.069305 
	C304.363037,351.006348 304.161194,350.976257 303.961029,350.582764 
	C294.576172,330.427979 285.189606,310.636597 275.811615,290.486328 
	C271.935211,279.722046 267.981628,269.341614 264.189484,258.902527 
	C261.691528,252.026047 257.493378,247.135208 249.666199,245.460144 
	C237.299805,245.227280 225.274033,245.227280 213.002884,245.227280 
	C213.002884,241.159836 213.224869,238.157593 212.947418,235.202240 
	C212.590485,231.400085 214.476501,230.194611 217.833267,230.101822 
	C220.812347,230.019485 223.823959,230.060760 226.759735,229.629318 
	C251.804733,225.948608 272.694092,197.778809 275.328644,174.719604 
	C275.695862,164.914795 275.795990,155.430511 275.932312,145.528091 
	C276.186493,143.653610 276.235535,142.147385 276.648621,140.748657 
	C280.765015,126.809303 281.724640,112.568642 281.003174,97.782845 
	C282.115570,93.060959 283.729584,88.726555 283.915741,84.331657 
	C284.746155,64.728912 275.359131,50.623245 258.988831,40.916931 
	C250.872269,36.104435 242.266403,32.117237 233.881897,27.756664 
z"/>
<path fill="#102535" opacity="1.000000" stroke="none" 
	d="
M199.259338,632.073120 
	C199.259323,634.182983 199.259323,636.292786 199.259323,638.618347 
	C194.067856,638.618347 189.350403,638.618347 183.984039,638.618347 
	C183.984039,633.682190 183.984039,628.805359 183.995697,623.003540 
	C184.004318,594.294250 183.996872,566.509888 184.008286,538.725586 
	C184.009033,536.901489 183.676620,534.883911 184.322495,533.289978 
	C186.176132,528.715271 183.608627,526.150330 180.274933,524.402527 
	C177.735748,523.071289 174.668976,522.153198 171.819717,522.106812 
	C157.848053,521.878967 143.870514,521.967590 129.895309,522.019226 
	C121.966560,522.048462 115.693947,526.869568 115.426826,534.774780 
	C114.950722,548.864685 115.529846,562.990234 115.667694,577.100891 
	C115.667694,597.539307 115.667694,617.977661 115.667694,638.303040 
	C114.511307,638.667725 114.066711,638.930847 113.622688,638.929871 
	C103.254478,638.907166 103.256271,638.901917 103.254021,628.346008 
	C103.249382,606.549072 103.242653,584.752075 103.460411,562.175842 
	C103.751915,560.739258 103.871628,560.082581 103.879738,559.424561 
	C103.971802,551.966064 104.065414,544.507507 104.122299,537.048645 
	C104.227562,523.249084 111.931381,515.322754 124.659241,510.995483 
	C130.074783,510.707855 135.074707,510.364258 140.381012,510.282318 
	C151.061920,510.698944 161.437576,510.805420 171.810181,511.044891 
	C174.232178,511.100800 176.643784,511.607880 179.414169,511.989990 
	C182.326004,513.206604 184.832047,514.485657 187.459793,515.423950 
	C189.219177,516.052124 191.472565,516.997498 192.945862,516.406738 
	C197.332520,514.647766 201.443085,512.200256 206.023621,509.790833 
	C206.554352,508.928314 206.868759,508.297028 206.870361,507.664978 
	C206.908859,492.362427 206.930801,477.059753 206.880402,461.757355 
	C206.877579,460.903839 206.227402,460.052490 205.423553,459.134918 
	C183.997253,459.097412 163.025894,459.125122 141.584198,459.112061 
	C133.023621,459.076385 124.933388,459.081451 116.391090,459.061401 
	C104.291153,459.031281 92.643280,459.026245 80.564804,458.994446 
	C77.528122,459.243378 74.922058,459.519043 71.848434,459.869324 
	C68.001228,459.975159 64.621574,460.006378 61.140076,459.793762 
	C60.775520,459.326508 60.512814,459.103149 60.201618,458.421173 
	C60.160133,448.325378 60.167137,438.688171 60.630951,429.030701 
	C83.518806,429.005798 105.949867,429.021088 128.380890,428.991119 
	C153.301331,428.957794 178.221710,428.883148 203.550415,428.883057 
	C205.607071,428.911255 207.255417,428.882904 209.375778,428.907227 
	C340.821014,428.971985 471.794220,428.983429 602.767456,429.000946 
	C605.099121,429.001251 607.430786,429.074615 609.850098,429.567719 
	C609.758118,436.808075 609.407532,443.595184 609.431335,450.380981 
	C609.498718,469.573853 609.719543,488.766205 609.879883,507.958740 
	C609.879883,551.092041 609.879883,594.225342 609.879883,637.763794 
	C602.207520,637.763794 595.337891,637.763794 587.984619,637.763794 
	C587.984619,605.849060 587.984619,573.898315 587.990479,541.020325 
	C587.996399,513.179993 587.996399,486.266968 587.996399,459.363525 
	C586.994629,459.184265 586.524353,459.027008 586.053833,459.026306 
	C545.428833,458.966431 504.803802,458.909546 464.178802,458.912872 
	C462.938751,458.912994 461.698730,459.548431 460.124603,459.708984 
	C453.875275,459.357086 447.960052,459.101654 442.044861,459.103424 
	C441.204620,459.103668 440.364746,460.353546 439.382172,460.595703 
	C438.101044,459.779083 436.962677,459.054199 435.823822,459.053345 
	C395.236755,459.023010 354.649658,459.060455 313.693970,458.879059 
	C311.858215,458.471497 310.391205,458.102509 308.923767,458.100555 
	C282.924500,458.065826 256.925201,458.071869 230.925919,458.089203 
	C229.808182,458.089935 228.690567,458.283325 227.474396,458.396149 
	C227.314682,459.316223 227.109665,459.948547 227.109039,460.581055 
	C227.093460,476.413818 227.084747,492.246674 227.140686,508.079224 
	C227.143799,508.961700 227.712723,509.842194 228.479065,510.812500 
	C238.927841,510.937714 248.915833,510.974030 259.212494,511.188812 
	C268.986481,514.954529 276.519501,520.524048 278.508209,531.145325 
	C279.297699,535.362122 279.516663,539.736267 279.528717,544.040100 
	C279.612244,573.843445 279.572754,603.647217 279.572754,633.450806 
	C279.572754,635.062256 279.572754,636.673706 279.572754,638.302734 
	C275.502533,638.302734 271.938232,638.302734 268.022400,638.302734 
	C268.022400,629.329773 268.018280,620.513062 268.023193,611.696350 
	C268.036774,587.387939 268.053375,563.079529 268.070343,538.771118 
	C268.077515,528.519592 261.732697,522.113464 251.361542,521.994690 
	C246.034348,521.933594 240.705704,521.988831 235.377747,522.004700 
	C227.661194,522.027649 227.549927,522.032227 227.511475,529.554749 
	C227.334442,564.185974 227.172501,598.817627 227.172729,633.449097 
	C227.172760,636.875244 226.467331,638.508850 222.814255,638.045593 
	C221.863724,637.925049 220.853043,638.278748 219.869980,638.414612 
	C216.893921,638.345154 213.880569,637.955017 210.952164,638.295471 
	C207.958801,638.643616 206.633331,637.591248 206.435577,634.022461 
	C206.514008,596.598572 206.514008,559.926941 206.514008,523.008911 
	C199.237869,525.386780 197.926910,527.473389 198.679840,534.219238 
	C198.900635,536.197266 198.956558,538.202026 198.959015,540.194763 
	C198.980179,557.344788 198.935501,574.494934 198.983795,591.644775 
	C199.021744,605.121033 199.163620,618.597046 199.259338,632.073120 
z"/>
<path fill="#A6DAE8" opacity="1.000000" stroke="none" 
	d="
M60.174137,429.050995 
	C60.167137,438.688171 60.160133,448.325378 60.114738,458.890381 
	C60.052021,468.965820 59.948044,478.114136 60.029289,487.260803 
	C60.091068,494.215546 60.388275,501.168213 60.470253,508.186768 
	C60.359779,508.251740 60.188030,508.061462 60.188038,508.061462 
	C55.095924,499.951752 49.423351,492.143829 45.020603,483.675690 
	C31.850948,458.345551 21.910049,431.719666 16.585611,403.640442 
	C13.845106,389.187988 12.620044,374.434021 11.040402,359.780701 
	C10.045714,350.553558 8.963791,341.248108 9.127658,331.999176 
	C9.782013,295.066254 15.953971,259.056885 28.771046,224.318405 
	C41.651825,189.407242 58.882576,156.893616 83.674911,128.912445 
	C94.669044,116.504234 106.837212,105.136246 118.853241,93.622131 
	C118.751442,98.746544 117.981842,103.536179 117.835724,108.344757 
	C117.188278,129.652283 119.978912,150.256714 131.812134,168.634460 
	C136.120163,175.325119 140.879379,181.834946 149.488022,184.297821 
	C155.057892,197.233627 163.976944,207.082993 175.070419,214.786270 
	C179.030258,217.535995 180.143311,220.518112 179.959015,224.702072 
	C179.660706,231.474548 179.321869,238.245255 178.581360,245.090240 
	C164.515869,245.294403 150.866699,245.306824 137.223160,245.590378 
	C124.691162,245.850830 118.508850,252.809860 118.956818,265.382172 
	C119.306366,275.192169 123.485970,283.671783 127.285309,292.138885 
	C117.832230,292.446808 108.752998,293.559875 99.785858,292.969757 
	C82.231606,291.814514 59.992924,306.805664 62.955135,331.192047 
	C65.001450,348.038239 70.275261,364.492371 73.837776,381.175659 
	C73.388481,381.260498 73.208183,381.291321 72.573212,381.194550 
	C59.491268,381.090393 46.863861,381.091888 34.237022,381.177643 
	C33.192417,381.184723 32.151688,381.762299 31.010790,382.527832 
	C30.950342,387.975555 30.988260,392.970276 31.234657,398.341827 
	C40.457081,398.718658 49.471024,398.718658 58.548306,398.718658 
	C59.039360,404.752441 59.462334,409.949707 59.866127,415.602478 
	C59.956013,420.389038 60.065075,424.720001 60.174137,429.050995 
z"/>
<path fill="#A6D9E7" opacity="1.000000" stroke="none" 
	d="
M460.458710,459.887665 
	C461.698730,459.548431 462.938751,458.912994 464.178802,458.912872 
	C504.803802,458.909546 545.428833,458.966431 586.053833,459.026306 
	C586.524353,459.027008 586.994629,459.184265 587.996399,459.363525 
	C587.996399,486.266968 587.996399,513.179993 587.927246,540.556763 
	C577.847900,551.208801 568.160522,561.740356 557.765015,571.519104 
	C529.808777,597.816650 498.433929,619.041809 462.886292,633.846130 
	C462.587646,633.970459 462.234528,633.963745 461.441162,633.578125 
	C457.820068,618.583313 466.151245,609.238525 477.348724,599.871277 
	C471.544952,596.098389 466.564301,592.860596 460.799713,589.113159 
	C460.799713,587.954956 460.799774,585.635620 460.799774,583.316284 
	C460.799683,544.157898 460.804535,504.999451 460.785004,465.841034 
	C460.783997,463.856506 460.572296,461.872131 460.458710,459.887665 
z"/>
<path fill="#272F31" opacity="1.000000" stroke="none" 
	d="
M149.284271,184.031021 
	C140.879379,181.834946 136.120163,175.325119 131.812134,168.634460 
	C119.978912,150.256714 117.188278,129.652283 117.835724,108.344757 
	C117.981842,103.536179 118.751442,98.746544 119.170868,93.514877 
	C121.765419,86.521942 124.423149,79.962318 127.228477,73.038414 
	C124.961502,73.468384 122.224777,73.987442 119.488060,74.506508 
	C119.136398,74.162567 118.784729,73.818626 118.433067,73.474693 
	C120.746185,71.313873 122.758057,68.582932 125.458862,67.155792 
	C128.055176,65.783859 129.071793,64.411171 129.024063,61.570168 
	C128.961349,57.837635 129.336838,54.097736 130.701370,50.204037 
	C131.940750,53.528553 133.180130,56.853069 134.492752,60.374031 
	C140.666153,44.762207 151.918503,34.440456 167.143967,28.027727 
	C182.046539,21.751007 197.400070,20.440269 213.171646,23.354065 
	C219.870087,24.591600 226.496994,26.216133 233.519165,27.710726 
	C242.266403,32.117237 250.872269,36.104435 258.988831,40.916931 
	C275.359131,50.623245 284.746155,64.728912 283.915741,84.331657 
	C283.729584,88.726555 282.115570,93.060959 280.717560,97.917503 
	C275.640198,102.306244 271.561127,107.501884 266.234131,109.781837 
	C258.755432,112.982712 250.427795,114.505997 242.312622,115.807617 
	C236.779495,116.695099 230.988922,115.977364 225.404022,115.977364 
	C227.108231,112.971832 228.670349,110.216873 230.232483,107.461914 
	C223.579041,108.315933 217.845657,110.371071 211.953262,111.743576 
	C206.035202,113.122070 199.924942,114.432495 193.362503,111.131844 
	C195.314835,109.889557 196.600922,109.149513 197.803406,108.292168 
	C202.416290,105.003197 202.604843,101.151367 197.710815,98.638504 
	C193.364120,96.406662 188.577423,94.776848 183.799377,93.721252 
	C180.025482,92.887497 176.955826,94.896988 175.989014,98.955704 
	C175.456619,101.190704 175.008270,103.525505 175.053421,105.804779 
	C175.277496,117.118019 175.924377,128.427490 175.936234,139.738815 
	C175.945099,148.190933 171.777954,154.487427 164.470291,158.596756 
	C160.033508,150.252075 156.010117,141.894791 151.162415,134.046707 
	C149.699753,131.678757 145.773682,129.192429 143.287155,129.477142 
	C139.453873,129.916046 137.909103,133.842773 137.972977,137.933182 
	C138.069199,144.096481 138.009933,150.262115 138.028580,156.426743 
	C138.040497,160.364090 138.497971,163.957703 142.605164,166.145966 
	C143.837662,166.802628 144.632141,168.723434 145.132523,170.229492 
	C146.646698,174.786728 147.918198,179.424576 149.284271,184.031021 
z"/>
<path fill="#A5D8E6" opacity="1.000000" stroke="none" 
	d="
M219.965576,638.746216 
	C220.853043,638.278748 221.863724,637.925049 222.814255,638.045593 
	C226.467331,638.508850 227.172760,636.875244 227.172729,633.449097 
	C227.172501,598.817627 227.334442,564.185974 227.511475,529.554749 
	C227.549927,522.032227 227.661194,522.027649 235.377747,522.004700 
	C240.705704,521.988831 246.034348,521.933594 251.361542,521.994690 
	C261.732697,522.113464 268.077515,528.519592 268.070343,538.771118 
	C268.053375,563.079529 268.036774,587.387939 268.023193,611.696350 
	C268.018280,620.513062 268.022400,629.329773 268.022400,638.302734 
	C271.938232,638.302734 275.502533,638.302734 279.572754,638.302734 
	C279.572754,636.673706 279.572754,635.062256 279.572754,633.450806 
	C279.572754,603.647217 279.612244,573.843445 279.528717,544.040100 
	C279.516663,539.736267 279.297699,535.362122 278.508209,531.145325 
	C276.519501,520.524048 268.986481,514.954529 259.190277,510.899292 
	C258.887299,510.239471 258.915161,510.047638 259.331116,509.859985 
	C269.476624,513.934021 279.234009,518.003845 289.000000,522.537720 
	C289.045990,542.829041 288.994110,562.657104 289.156464,582.483398 
	C289.245026,593.294678 289.696777,604.103027 289.657104,615.177856 
	C288.076965,629.793762 294.347351,638.459717 307.172974,638.895081 
	C321.275421,639.373657 335.404419,639.047180 349.521393,639.140869 
	C352.672302,639.161743 353.932465,637.694214 354.158356,634.655212 
	C354.879303,624.955688 348.107330,616.370300 338.327606,614.979797 
	C334.556854,614.443665 330.736847,614.254150 326.880859,613.446777 
	C326.881165,591.829041 326.920227,570.671143 327.034454,549.513672 
	C327.043976,547.748352 327.560181,545.985840 328.027466,544.497742 
	C329.727478,546.047852 331.337494,547.224670 332.740204,548.611206 
	C354.516876,570.138000 376.267822,591.690857 398.021881,613.240479 
	C402.964539,618.136658 407.896576,623.043579 412.983307,628.257080 
	C417.541351,633.995483 422.588104,638.219543 430.109955,638.336304 
	C436.391327,638.433838 442.668823,638.780945 448.948029,639.017578 
	C430.848206,644.339722 412.939911,650.475525 394.603363,654.791992 
	C367.556549,661.158813 339.791229,661.209290 312.279938,659.690247 
	C280.553864,657.938599 249.547531,651.550415 219.965576,638.746216 
z"/>
<path fill="#A5D8E6" opacity="1.000000" stroke="none" 
	d="
M115.970566,577.158813 
	C115.529846,562.990234 114.950722,548.864685 115.426826,534.774780 
	C115.693947,526.869568 121.966560,522.048462 129.895309,522.019226 
	C143.870514,521.967590 157.848053,521.878967 171.819717,522.106812 
	C174.668976,522.153198 177.735748,523.071289 180.274933,524.402527 
	C183.608627,526.150330 186.176132,528.715271 184.322495,533.289978 
	C183.676620,534.883911 184.009033,536.901489 184.008286,538.725586 
	C183.996872,566.509888 184.004318,594.294250 183.930237,622.540405 
	C161.179123,612.080994 141.038086,597.397766 121.842316,581.301086 
	C120.082115,579.825073 118.134186,578.572876 115.970566,577.158813 
z"/>
<path fill="#A7D8E6" opacity="1.000000" stroke="none" 
	d="
M610.173828,507.782104 
	C609.719543,488.766205 609.498718,469.573853 609.431335,450.380981 
	C609.407532,443.595184 609.758118,436.808075 609.913086,429.093903 
	C609.881470,418.470184 609.874512,408.774078 610.212830,398.974854 
	C611.035461,398.820068 611.512817,398.768463 612.448547,398.823090 
	C625.110413,398.929321 637.314026,398.929321 649.626709,398.929321 
	C649.626709,392.707886 649.626709,387.027710 649.626709,381.273285 
	C641.172363,381.273285 633.085327,381.273285 624.734680,381.191406 
	C624.297180,381.049133 624.123352,380.988770 624.012085,380.519836 
	C623.897522,378.806213 624.075439,377.305267 623.482117,376.229767 
	C620.808411,371.383118 621.747559,366.701294 623.401062,361.815155 
	C627.069092,350.976440 630.455139,340.042694 634.055481,329.180664 
	C640.156250,310.774933 646.333923,292.394653 652.479248,274.003693 
	C653.604248,277.178345 655.387817,280.282379 655.737122,283.540192 
	C657.062012,295.894775 658.332153,308.282288 658.842896,320.689575 
	C659.368042,333.447327 659.611938,346.279968 658.853271,359.012817 
	C657.609924,379.881348 653.889404,400.388397 648.318542,420.602844 
	C639.821655,451.434723 626.865906,480.249939 610.173828,507.782104 
z"/>
<path fill="#020203" opacity="1.000000" stroke="none" 
	d="
M449.407013,638.939392 
	C442.668823,638.780945 436.391327,638.433838 430.109955,638.336304 
	C422.588104,638.219543 417.541351,633.995483 413.167236,627.978760 
	C414.729309,625.873535 416.253448,624.354370 417.785889,622.843567 
	C424.825958,615.903198 431.868317,608.965210 438.939667,601.988037 
	C438.969482,601.949768 439.055450,601.994751 439.371735,601.718628 
	C439.808594,600.460327 440.033295,599.478210 440.034515,598.495911 
	C440.068390,571.833069 440.085876,545.170166 440.071777,518.507324 
	C440.071167,517.378662 439.741547,516.250061 439.475464,514.653748 
	C439.432037,496.465729 439.478363,478.745392 439.524719,461.025085 
	C440.364746,460.353546 441.204620,459.103668 442.044861,459.103424 
	C447.960052,459.101654 453.875275,459.357086 460.124603,459.708984 
	C460.572296,461.872131 460.783997,463.856506 460.785004,465.841034 
	C460.804535,504.999451 460.799683,544.157898 460.799774,583.316284 
	C460.799774,585.635620 460.799713,587.954956 460.799713,589.113159 
	C466.564301,592.860596 471.544952,596.098389 477.348724,599.871277 
	C466.151245,609.238525 457.820068,618.583313 461.074951,633.601074 
	C460.949677,635.483154 460.724976,636.902222 460.414764,638.861206 
	C456.882477,638.861206 453.374237,638.861206 449.407013,638.939392 
z"/>
<path fill="#030303" opacity="1.000000" stroke="none" 
	d="
M61.241920,460.037598 
	C64.621574,460.006378 68.001228,459.975159 72.268524,459.880981 
	C75.740128,459.968689 78.324081,460.119385 80.906494,460.721771 
	C81.011261,486.036530 81.106377,510.899628 81.247269,535.762512 
	C81.257408,537.552856 81.601479,539.341370 81.796143,541.366333 
	C81.801994,541.601990 82.045280,542.005798 82.045280,542.005798 
	C81.975372,567.799683 81.902504,593.593628 81.837769,619.387512 
	C81.822777,625.361389 81.835556,631.335327 81.835556,637.654907 
	C74.745483,637.654907 67.861259,637.654907 60.405788,637.654907 
	C60.405788,594.780518 60.405788,551.875183 60.296909,508.515656 
	C60.188030,508.061462 60.359779,508.251740 60.639961,507.807861 
	C61.027405,491.588531 61.134663,475.813049 61.241920,460.037598 
z"/>
<path fill="#096796" opacity="1.000000" stroke="none" 
	d="
M652.573975,273.605896 
	C646.333923,292.394653 640.156250,310.774933 634.055481,329.180664 
	C630.455139,340.042694 627.069092,350.976440 623.401062,361.815155 
	C621.747559,366.701294 620.808411,371.383118 623.482117,376.229767 
	C624.075439,377.305267 623.897522,378.806213 623.812012,380.579254 
	C623.549377,381.047241 623.150635,381.169708 622.671265,381.095703 
	C594.762085,381.078156 567.332336,381.134613 539.726318,381.123962 
	C539.550110,381.056854 539.197327,380.923523 539.197266,380.923523 
	C540.362671,377.794556 541.528076,374.665588 543.313354,371.277435 
	C544.938049,371.014648 545.942688,371.011017 547.245117,371.307831 
	C566.154846,371.714355 584.766907,371.828766 603.379028,371.887177 
	C603.947571,371.888977 604.517944,371.308044 605.403931,370.827240 
	C606.492432,368.028748 607.264526,365.401764 608.036621,362.774811 
	C611.850342,351.485748 615.780518,340.234406 619.454834,328.900146 
	C628.734192,300.275848 637.898560,271.614258 647.402222,242.309875 
	C652.955994,225.632309 658.216431,209.612488 663.723999,193.826630 
	C667.574768,197.484283 671.786743,198.725754 676.659302,197.597870 
	C668.662476,222.801300 660.665588,248.004715 652.573975,273.605896 
z"/>
<path fill="#6BBBF9" opacity="1.000000" stroke="none" 
	d="
M485.930389,76.869461 
	C486.279327,69.791016 486.490021,62.701447 487.058197,55.640640 
	C487.237549,53.411797 488.373627,51.259945 489.114075,48.713856 
	C498.594177,32.341808 512.679565,28.419825 527.071472,32.066231 
	C534.739380,34.008984 540.786560,38.547947 545.005005,46.180885 
	C543.750671,52.886238 546.107727,57.366905 550.705688,61.445999 
	C550.582764,66.857437 550.401550,71.804611 549.740906,76.837402 
	C528.151062,76.905167 507.040741,76.887314 485.930389,76.869461 
z"/>
<path fill="#A4D7E6" opacity="1.000000" stroke="none" 
	d="
M82.339874,542.154236 
	C82.045280,542.005798 81.801994,541.601990 81.934616,540.906738 
	C82.067238,513.569458 82.067238,486.927399 82.067238,460.094696 
	C86.429436,460.094696 90.218582,460.094696 94.171051,460.393829 
	C101.613846,474.870605 112.157845,485.677094 126.860703,492.187958 
	C130.603256,493.845245 134.347443,495.498810 137.613602,497.156616 
	C127.068100,497.272614 116.999870,497.386108 106.730896,497.434570 
	C106.244003,497.467438 106.045570,497.657104 105.590904,497.999176 
	C101.998077,499.455688 100.869133,501.875641 101.790489,505.265076 
	C102.706902,508.636414 105.066849,509.965576 108.413643,510.101440 
	C113.692940,510.315826 118.967216,510.653839 124.243622,510.939514 
	C111.931381,515.322754 104.227562,523.249084 104.122299,537.048645 
	C104.065414,544.507507 103.971802,551.966064 103.879738,559.424561 
	C103.871628,560.082581 103.751915,560.739258 103.408737,561.711182 
	C96.300461,555.451477 89.467468,548.877075 82.339874,542.154236 
z"/>
<path fill="#0D6997" opacity="1.000000" stroke="none" 
	d="
M567.148682,52.798229 
	C581.190979,68.963150 595.310120,85.062126 609.257629,101.308434 
	C630.145203,125.638710 650.912170,150.072495 671.403442,174.892487 
	C667.964050,177.938202 664.851624,180.553680 661.456055,183.001114 
	C628.783325,145.189911 596.385315,107.554001 564.022461,69.887886 
	C561.775757,67.273026 559.790039,64.433830 557.990845,61.526588 
	C562.887024,60.196785 565.490173,56.986053 567.148682,52.798229 
z"/>
<path fill="#9AC6D3" opacity="1.000000" stroke="none" 
	d="
M199.622864,632.067871 
	C199.163620,618.597046 199.021744,605.121033 198.983795,591.644775 
	C198.935501,574.494934 198.980179,557.344788 198.959015,540.194763 
	C198.956558,538.202026 198.900635,536.197266 198.679840,534.219238 
	C197.926910,527.473389 199.237869,525.386780 206.514008,523.008911 
	C206.514008,559.926941 206.514008,596.598572 206.331253,633.630432 
	C204.094467,633.347961 202.040436,632.705261 199.622864,632.067871 
z"/>
<path fill="#E3D40D" opacity="1.000000" stroke="none" 
	d="
M567.117432,52.399162 
	C565.490173,56.986053 562.887024,60.196785 557.621704,61.471859 
	C554.845581,61.386909 552.746521,61.184319 550.647461,60.981728 
	C546.107727,57.366905 543.750671,52.886238 545.135010,46.504639 
	C546.549805,44.631527 547.800415,43.072453 549.288757,41.788967 
	C552.613525,38.921814 556.369080,38.409554 560.404846,40.201248 
	C565.545105,42.483280 566.849365,46.940063 567.117432,52.399162 
z"/>
<path fill="#E2D30E" opacity="1.000000" stroke="none" 
	d="
M661.739197,183.169144 
	C664.851624,180.553680 667.964050,177.938202 671.392456,175.230133 
	C675.036621,176.765305 679.199463,177.632751 681.519348,180.179214 
	C686.344543,185.475693 684.238281,192.209000 676.868958,197.426468 
	C671.786743,198.725754 667.574768,197.484283 663.648560,193.436920 
	C662.796997,189.598557 662.268127,186.383835 661.739197,183.169144 
z"/>
<path fill="#D6D6D6" opacity="1.000000" stroke="none" 
	d="
M349.989960,230.039749 
	C415.152069,230.026505 480.314148,230.008041 545.476257,230.008957 
	C551.312256,230.009033 554.591064,232.767303 553.885559,238.462921 
	C552.545959,249.278580 550.605713,260.034027 548.546814,270.743713 
	C542.800842,300.632324 536.913879,330.494263 530.934265,360.336975 
	C530.332153,363.341705 529.001892,366.300110 527.508240,369.002991 
	C525.343323,372.920776 522.721130,376.585876 519.709106,380.759247 
	C452.075500,381.161926 385.026764,381.167206 317.977997,381.153168 
	C315.653870,381.152710 313.329803,380.959229 311.191772,380.548523 
	C312.246796,378.215454 313.115814,376.189575 314.073883,373.956024 
	C316.894409,374.967865 319.593140,375.936035 322.291901,376.904175 
	C322.172150,375.236786 321.701447,374.075806 320.852142,373.619507 
	C317.104675,371.606262 316.497711,368.239349 317.110107,364.651550 
	C318.719849,355.220551 320.514374,345.819000 322.370758,336.432526 
	C327.557037,310.208832 332.663361,283.967682 338.115326,257.798889 
	C340.191528,247.833130 339.975555,236.689728 349.989960,230.039749 
M426.458344,314.794617 
	C432.980133,323.690369 442.776764,324.120941 451.511200,317.958710 
	C455.729187,314.982849 459.493317,310.179535 461.397491,305.383575 
	C464.309204,298.050079 460.840118,291.202148 456.421265,286.037323 
	C457.976288,282.896545 459.186188,280.452850 460.825897,277.141144 
	C452.618774,277.051117 445.660828,278.540802 439.036285,275.240356 
	C437.204254,274.327606 435.638794,276.205627 436.861511,278.616882 
	C437.814178,280.495636 438.828033,282.343353 439.811218,284.198334 
	C423.205536,293.169189 421.197296,305.583069 426.458344,314.794617 
z"/>
<path fill="#F3BC7C" opacity="1.000000" stroke="none" 
	d="
M149.488022,184.297821 
	C147.918198,179.424576 146.646698,174.786728 145.132523,170.229492 
	C144.632141,168.723434 143.837662,166.802628 142.605164,166.145966 
	C138.497971,163.957703 138.040497,160.364090 138.028580,156.426743 
	C138.009933,150.262115 138.069199,144.096481 137.972977,137.933182 
	C137.909103,133.842773 139.453873,129.916046 143.287155,129.477142 
	C145.773682,129.192429 149.699753,131.678757 151.162415,134.046707 
	C156.010117,141.894791 160.033508,150.252075 164.470291,158.596756 
	C171.777954,154.487427 175.945099,148.190933 175.936234,139.738815 
	C175.924377,128.427490 175.277496,117.118019 175.053421,105.804779 
	C175.008270,103.525505 175.456619,101.190704 175.989014,98.955704 
	C176.955826,94.896988 180.025482,92.887497 183.799377,93.721252 
	C188.577423,94.776848 193.364120,96.406662 197.710815,98.638504 
	C202.604843,101.151367 202.416290,105.003197 197.803406,108.292168 
	C196.600922,109.149513 195.314835,109.889557 193.362503,111.131844 
	C199.924942,114.432495 206.035202,113.122070 211.953262,111.743576 
	C217.845657,110.371071 223.579041,108.315933 230.232483,107.461914 
	C228.670349,110.216873 227.108231,112.971832 225.404022,115.977364 
	C230.988922,115.977364 236.779495,116.695099 242.312622,115.807617 
	C250.427795,114.505997 258.755432,112.982712 266.234131,109.781837 
	C271.561127,107.501884 275.640198,102.306244 280.561829,98.277130 
	C281.724640,112.568642 280.765015,126.809303 276.648621,140.748657 
	C276.235535,142.147385 276.186493,143.653610 275.661804,145.847137 
	C275.257233,156.069611 275.159393,165.554871 275.061554,175.040131 
	C272.694092,197.778809 251.804733,225.948608 226.759735,229.629318 
	C223.823959,230.060760 220.812347,230.019485 217.833267,230.101822 
	C214.476501,230.194611 212.590485,231.400085 212.947418,235.202240 
	C213.224869,238.157593 213.002884,241.159836 213.002884,245.227280 
	C225.274033,245.227280 237.299805,245.227280 249.204956,245.536575 
	C238.472916,245.833359 227.858109,245.680847 217.253128,245.936020 
	C215.319839,245.982544 212.903137,247.236618 211.611237,248.719009 
	C207.432617,253.513809 203.674042,258.674622 199.702179,263.760315 
	C192.512131,257.250458 185.756134,251.133575 179.000137,245.016708 
	C179.321869,238.245255 179.660706,231.474548 179.959015,224.702072 
	C180.143311,220.518112 179.030258,217.535995 175.070419,214.786270 
	C163.976944,207.082993 155.057892,197.233627 149.488022,184.297821 
M227.820068,192.719070 
	C220.564026,190.033936 213.307968,187.348801 205.949921,184.625916 
	C204.527893,192.899918 210.625702,202.781113 218.536880,206.232620 
	C224.433624,208.805283 239.172165,207.220581 244.894943,198.994751 
	C239.385605,196.954422 233.976151,194.951065 227.820068,192.719070 
M212.029251,127.131752 
	C206.158463,128.452927 200.725876,130.481537 196.919785,136.411316 
	C202.217789,137.006393 206.982056,137.541534 212.041977,138.109879 
	C209.891159,142.930893 208.139008,147.225357 212.777802,150.820694 
	C215.845428,153.198303 218.991867,152.669388 221.960541,150.533997 
	C226.760483,147.081360 225.167328,142.847626 223.031265,138.627625 
	C225.466476,137.158051 227.681656,135.821274 230.168243,134.320709 
	C225.668503,128.108566 219.647614,126.696060 212.029251,127.131752 
M254.841965,142.303940 
	C253.300323,146.233795 254.638824,149.761093 258.118622,151.103119 
	C260.620911,152.068146 264.691315,151.841034 266.802094,150.355362 
	C271.343079,147.159180 269.476715,142.516174 267.294678,138.261414 
	C270.295044,137.384277 273.043121,136.580887 275.961700,135.727661 
	C268.464996,126.453239 252.769516,126.367615 251.271576,135.581985 
	C256.157684,138.299957 256.157684,138.299957 254.841965,142.303940 
M247.587234,164.172211 
	C245.292435,159.437332 242.997635,154.702438 240.702820,149.967560 
	C237.870773,154.531967 236.596985,158.645737 234.944595,162.601334 
	C229.050018,176.711960 231.845230,173.955139 243.475647,176.848312 
	C246.946548,177.711716 249.495163,176.562820 248.978470,172.271027 
	C248.683289,169.818985 248.237640,167.385025 247.587234,164.172211 
z"/>
<path fill="#6E0303" opacity="1.000000" stroke="none" 
	d="
M178.581360,245.090240 
	C185.756134,251.133575 192.512131,257.250458 199.702179,263.760315 
	C203.674042,258.674622 207.432617,253.513809 211.611237,248.719009 
	C212.903137,247.236618 215.319839,245.982544 217.253128,245.936020 
	C227.858109,245.680847 238.472916,245.833359 249.545563,245.769440 
	C257.493378,247.135208 261.691528,252.026047 264.189484,258.902527 
	C267.981628,269.341614 271.935211,279.722046 275.461609,290.541565 
	C266.804169,295.262634 258.505249,299.569580 249.994324,303.604767 
	C248.448761,301.359009 247.115234,299.385010 245.781693,297.411011 
	C245.395355,297.483429 245.009003,297.555817 244.622665,297.628235 
	C244.622665,315.087585 244.622665,332.546967 244.358826,350.318726 
	C234.137100,350.782013 224.168396,350.709106 214.226379,351.188843 
	C209.971634,351.394165 207.363983,349.682922 205.099976,346.509521 
	C198.827286,337.717255 192.502792,328.961761 186.169525,320.212921 
	C178.101318,309.067413 170.004410,297.942657 161.887207,286.763977 
	C153.634720,293.256439 145.816208,299.407471 137.770081,305.359680 
	C134.264908,300.831970 130.987366,296.503082 127.709831,292.174194 
	C123.485970,283.671783 119.306366,275.192169 118.956818,265.382172 
	C118.508850,252.809860 124.691162,245.850830 137.223160,245.590378 
	C150.866699,245.306824 164.515869,245.294403 178.581360,245.090240 
z"/>
<path fill="#C6920B" opacity="1.000000" stroke="none" 
	d="
M311.005707,380.855713 
	C313.329803,380.959229 315.653870,381.152710 317.977997,381.153168 
	C385.026764,381.167206 452.075500,381.161926 519.594727,381.080688 
	C520.065186,381.001617 520.526184,381.166412 521.097778,381.462036 
	C527.116882,381.596771 532.564453,381.435913 538.011963,381.275055 
	C538.211731,381.224182 538.411560,381.173279 538.904297,381.022949 
	C539.197327,380.923523 539.550110,381.056854 540.067749,381.374603 
	C541.237915,381.792938 541.890320,381.980927 542.542847,381.981506 
	C568.153809,382.004669 593.764709,382.022827 619.375610,381.982941 
	C620.634338,381.980988 621.892334,381.452850 623.150635,381.169708 
	C623.150635,381.169708 623.549377,381.047241 623.749390,380.987793 
	C624.123352,380.988770 624.297180,381.049133 625.067383,381.430298 
	C633.235168,381.751068 640.806580,381.751068 648.547607,381.751068 
	C648.547607,387.646393 648.547607,392.642761 648.547607,397.997650 
	C641.317017,397.997650 634.529541,397.906738 627.745789,398.026947 
	C622.491516,398.120026 617.241882,398.477112 611.990234,398.716858 
	C611.512817,398.768463 611.035461,398.820068 610.003784,398.942993 
	C609.449524,399.014252 609.029297,398.967316 608.730103,398.673401 
	C606.451843,398.255798 604.472778,398.024170 602.493713,398.023804 
	C476.642273,398.000946 350.790833,397.996887 224.600006,397.799500 
	C224.167297,393.351898 224.073975,389.095886 223.995056,384.433136 
	C225.179062,383.342621 226.273315,382.364624 227.535248,382.041473 
	C229.634766,381.503754 231.841843,381.386078 234.467621,381.165710 
	C260.289642,381.111816 285.647675,380.983765 311.005707,380.855713 
z"/>
<path fill="#F3BC7C" opacity="1.000000" stroke="none" 
	d="
M234.003632,381.091522 
	C231.841843,381.386078 229.634766,381.503754 227.535248,382.041473 
	C226.273315,382.364624 225.179062,383.342621 223.706146,384.309265 
	C222.962814,383.678223 222.522766,382.764282 221.738800,381.618103 
	C212.575165,381.361511 203.755478,381.337219 194.675522,381.279541 
	C194.245560,381.203766 194.075851,381.161346 193.862106,380.861023 
	C193.536880,380.426514 193.255661,380.249969 192.679321,379.911682 
	C190.009705,377.001007 187.469498,374.376984 185.287933,371.482666 
	C172.231766,354.160858 159.258179,336.776855 146.149933,319.051208 
	C143.361206,314.311981 140.679443,309.935242 137.997696,305.558502 
	C145.816208,299.407471 153.634720,293.256439 161.887207,286.763977 
	C170.004410,297.942657 178.101318,309.067413 186.169525,320.212921 
	C192.502792,328.961761 198.827286,337.717255 205.099976,346.509521 
	C207.363983,349.682922 209.971634,351.394165 214.226379,351.188843 
	C224.168396,350.709106 234.137100,350.782013 244.559662,350.673889 
	C254.070633,350.768646 263.116943,350.820648 272.620483,350.905273 
	C283.371582,350.940643 293.665466,350.943420 303.959320,350.946167 
	C304.161194,350.976257 304.363037,351.006348 305.152771,351.318207 
	C308.013275,351.810089 310.285858,352.020233 313.200287,352.289673 
	C312.703796,355.816895 312.386932,359.052032 311.773407,362.229889 
	C310.309235,369.813324 310.252747,369.813782 302.440582,369.816254 
	C281.670990,369.822845 260.901398,369.814606 240.131821,369.823273 
	C236.985657,369.824585 233.047302,369.303345 232.196228,373.148193 
	C231.665665,375.545166 233.326340,378.427185 234.003632,381.091522 
z"/>
<path fill="#FAFCFC" opacity="1.000000" stroke="none" 
	d="
M661.456055,183.001099 
	C662.268127,186.383835 662.796997,189.598557 663.401367,193.202972 
	C658.216431,209.612488 652.955994,225.632309 647.449463,241.933563 
	C646.010315,239.891602 644.459229,237.681961 643.679382,235.227325 
	C635.345947,208.996063 623.726562,184.245804 608.842407,161.185699 
	C601.531372,149.858673 592.441345,139.679855 583.796997,128.499649 
	C582.915894,120.003174 582.394226,111.988472 581.956909,103.591980 
	C580.191284,99.056145 578.884705,94.536537 576.384155,90.820335 
	C570.226990,81.669937 560.585083,78.399681 550.220398,76.751778 
	C550.401550,71.804611 550.582764,66.857437 550.705688,61.445999 
	C552.746521,61.184319 554.845581,61.386909 557.313843,61.644230 
	C559.790039,64.433830 561.775757,67.273026 564.022461,69.887886 
	C596.385315,107.554001 628.783325,145.189911 661.456055,183.001099 
z"/>
<path fill="#076696" opacity="1.000000" stroke="none" 
	d="
M581.872559,103.973770 
	C582.394226,111.988472 582.915894,120.003174 583.474121,128.482819 
	C583.386963,132.198364 581.846558,133.177368 578.502075,133.166580 
	C538.563232,133.037720 498.623688,133.030441 458.684875,133.163406 
	C454.111053,133.178635 452.447937,131.774292 452.873749,127.122253 
	C453.570129,119.514717 453.802856,111.864746 454.636292,104.179443 
	C455.378052,104.399635 455.714783,104.673058 456.514832,104.961502 
	C496.098175,104.984344 535.218140,105.003677 574.338074,104.957672 
	C575.896729,104.955841 577.454529,104.333138 579.370483,104.006783 
	C580.442993,104.000488 581.157776,103.987129 581.872559,103.973770 
z"/>
<path fill="#0779B1" opacity="1.000000" stroke="none" 
	d="
M581.956909,103.591980 
	C581.157776,103.987129 580.442993,104.000488 578.900391,104.011429 
	C539.129456,104.006393 500.186340,103.991631 461.243317,104.041206 
	C459.512329,104.043411 457.782074,104.631363 456.051483,104.946472 
	C455.714783,104.673058 455.378052,104.399635 454.896332,103.825424 
	C456.169342,91.380280 465.461121,81.575195 478.815430,78.206841 
	C480.892761,77.682877 483.027863,77.387825 485.533325,76.928192 
	C507.040741,76.887314 528.151062,76.905167 549.740906,76.837402 
	C560.585083,78.399681 570.226990,81.669937 576.384155,90.820335 
	C578.884705,94.536537 580.191284,99.056145 581.956909,103.591980 
z"/>
<path fill="#FBFCFB" opacity="1.000000" stroke="none" 
	d="
M234.467621,381.165710 
	C233.326340,378.427185 231.665665,375.545166 232.196228,373.148193 
	C233.047302,369.303345 236.985657,369.824585 240.131821,369.823273 
	C260.901398,369.814606 281.670990,369.822845 302.440582,369.816254 
	C310.252747,369.813782 310.309235,369.813324 311.773407,362.229889 
	C312.386932,359.052032 312.703796,355.816895 313.200287,352.289673 
	C310.285858,352.020233 308.013275,351.810089 305.457123,351.351074 
	C313.473755,351.046600 313.409698,351.033752 315.096283,342.627319 
	C320.591248,315.238525 326.149323,287.862366 331.654266,260.475555 
	C332.859619,254.478867 333.758026,248.414948 335.132111,242.459106 
	C337.010925,234.315552 340.732300,231.188217 349.592346,230.027039 
	C339.975555,236.689728 340.191528,247.833130 338.115326,257.798889 
	C332.663361,283.967682 327.557037,310.208832 322.370758,336.432526 
	C320.514374,345.819000 318.719849,355.220551 317.110107,364.651550 
	C316.497711,368.239349 317.104675,371.606262 320.852142,373.619507 
	C321.701447,374.075806 322.172150,375.236786 322.291901,376.904175 
	C319.593140,375.936035 316.894409,374.967865 314.073883,373.956024 
	C313.115814,376.189575 312.246796,378.215454 311.191772,380.548553 
	C285.647675,380.983765 260.289642,381.111816 234.467621,381.165710 
z"/>
<path fill="#CC9258" opacity="1.000000" stroke="none" 
	d="
M303.961029,350.582764 
	C293.665466,350.943420 283.371582,350.940643 272.495270,350.574341 
	C264.677307,334.765991 257.441833,319.321259 250.206360,303.876526 
	C258.505249,299.569580 266.804169,295.262634 275.453064,290.900452 
	C285.189606,310.636597 294.576172,330.427979 303.961029,350.582764 
z"/>
<path fill="#0D7BB0" opacity="1.000000" stroke="none" 
	d="
M546.947388,371.007385 
	C545.942688,371.011017 544.938049,371.014648 543.558350,371.013550 
	C547.657959,363.597076 554.328857,360.490234 562.841797,360.905945 
	C564.997253,361.011169 567.162231,360.920807 570.227417,360.914368 
	C573.972595,360.888184 576.813293,360.867981 579.653992,360.847748 
	C586.931946,360.878174 594.211609,360.828369 601.486694,360.989716 
	C603.572205,361.035950 605.644165,361.692719 607.879517,362.422180 
	C607.264526,365.401764 606.492432,368.028748 604.924988,370.831787 
	C585.068909,371.007721 566.008118,371.007538 546.947388,371.007385 
z"/>
<path fill="#E3D71A" opacity="1.000000" stroke="none" 
	d="
M579.680298,360.519440 
	C576.813293,360.867981 573.972595,360.888184 570.709473,360.869751 
	C566.456665,356.903900 562.625916,352.977112 558.796082,349.049438 
	C556.861572,347.065491 555.529236,344.543579 558.229553,342.743774 
	C559.478394,341.911438 562.823853,342.459686 564.021912,343.618866 
	C569.482605,348.902710 574.518188,354.625885 579.680298,360.519440 
z"/>
<path fill="#E2D4B7" opacity="1.000000" stroke="none" 
	d="
M275.328644,174.719604 
	C275.159393,165.554871 275.257233,156.069611 275.625610,146.265289 
	C275.795990,155.430511 275.695862,164.914795 275.328644,174.719604 
z"/>
<path fill="#C6A147" opacity="1.000000" stroke="none" 
	d="
M537.553833,381.171753 
	C532.564453,381.435913 527.116882,381.596771 521.334839,381.523163 
	C526.365417,381.215271 531.730591,381.141876 537.553833,381.171753 
z"/>
<path fill="#9E6703" opacity="1.000000" stroke="none" 
	d="
M222.082718,381.850372 
	C222.522766,382.764282 222.962814,383.678223 223.691757,384.716003 
	C224.073975,389.095886 224.167297,393.351898 224.892151,398.109253 
	C227.004227,398.733002 228.484726,398.962463 229.965271,398.962616 
	C356.319946,398.975586 482.674622,398.970825 609.029297,398.967316 
	C609.029297,398.967316 609.449524,399.014252 609.658569,399.046143 
	C609.874512,408.774078 609.881470,418.470184 609.825439,428.640076 
	C607.430786,429.074615 605.099121,429.001251 602.767456,429.000946 
	C471.794220,428.983429 340.821014,428.971985 209.146454,428.607056 
	C207.971237,426.789764 207.136230,425.337097 207.088120,423.858795 
	C206.911209,418.424591 207.100189,412.978729 206.934998,407.543793 
	C206.858109,405.013916 206.284653,402.499115 205.728485,399.886078 
	C205.261078,399.611206 205.094894,399.364746 204.736450,398.742767 
	C202.472672,398.293030 200.494675,398.037292 198.516510,398.035889 
	C142.686417,397.996521 86.856293,397.982849 31.026176,397.964966 
	C30.988260,392.970276 30.950342,387.975555 31.471237,382.534241 
	C40.458149,382.067230 48.887436,382.125397 57.313900,381.997528 
	C62.554108,381.918030 67.790039,381.556885 73.027893,381.322144 
	C73.208183,381.291321 73.388481,381.260498 74.012543,381.235168 
	C74.456314,381.240723 74.817352,381.322479 75.185150,381.543396 
	C76.044174,381.840973 76.535400,381.984711 77.026642,381.984772 
	C114.476448,381.989594 151.926270,381.992676 189.376007,381.934662 
	C190.591248,381.932770 191.805496,381.297882 193.008423,380.984741 
	C192.996628,381.011475 192.947067,380.980560 193.183533,381.038086 
	C193.419983,381.095642 193.906128,381.118927 193.906128,381.118927 
	C194.075851,381.161346 194.245560,381.203766 195.023636,381.496826 
	C204.448914,381.781769 213.265808,381.816071 222.082718,381.850372 
z"/>
<path fill="#A6DAE8" opacity="1.000000" stroke="none" 
	d="
M439.382202,460.595734 
	C439.478363,478.745392 439.432037,496.465729 439.326630,515.088135 
	C439.196869,544.658386 439.126160,573.326599 439.055450,601.994751 
	C439.055450,601.994751 438.969482,601.949768 438.649963,601.833313 
	C409.190002,572.696716 380.055206,543.670837 350.904877,514.660583 
	C344.087006,507.875488 336.287994,502.619141 327.037628,499.204102 
	C327.010437,492.976776 327.049408,487.195282 326.987061,481.414856 
	C326.897980,473.156372 324.208435,466.259705 316.703278,461.842468 
	C315.648224,461.221497 314.934357,460.020782 314.062561,459.088409 
	C354.649658,459.060455 395.236755,459.023010 435.823822,459.053345 
	C436.962677,459.054199 438.101044,459.779083 439.382202,460.595734 
z"/>
<path fill="#2C6896" opacity="1.000000" stroke="none" 
	d="
M313.693970,458.879059 
	C314.934357,460.020782 315.648224,461.221497 316.703278,461.842468 
	C324.208435,466.259705 326.897980,473.156372 326.987061,481.414856 
	C327.049408,487.195282 327.010437,492.976776 327.020050,499.700500 
	C327.295929,515.169434 327.568451,529.695740 327.841003,544.221985 
	C327.560181,545.985840 327.043976,547.748352 327.034454,549.513672 
	C326.920227,570.671143 326.881165,591.829041 326.428345,613.526184 
	C314.017731,614.347900 302.001221,614.630310 289.984741,614.912659 
	C289.696777,604.103027 289.245026,593.294678 289.156464,582.483398 
	C288.994110,562.657104 289.045990,542.829041 289.003387,522.063599 
	C288.999268,514.876160 289.229614,508.613281 288.861267,502.385834 
	C288.751129,500.523346 286.967377,498.759827 285.661316,496.657959 
	C274.994049,496.246277 264.615936,496.091125 254.237396,496.052399 
	C252.849899,496.047211 251.460175,496.630951 249.648041,496.964233 
	C246.808838,497.659546 244.393066,498.332642 241.627625,498.850433 
	C240.504166,498.417725 239.740753,498.106049 238.955002,497.868164 
	C229.848663,495.111511 227.968063,496.439636 227.979523,505.609833 
	C227.981384,507.099792 228.006439,508.589752 228.021912,510.240692 
	C228.023041,510.401672 228.018280,510.723602 228.018280,510.723602 
	C227.712723,509.842194 227.143799,508.961700 227.140686,508.079224 
	C227.084747,492.246674 227.093460,476.413818 227.109039,460.581055 
	C227.109665,459.948547 227.314682,459.316223 227.474396,458.396149 
	C228.690567,458.283325 229.808182,458.089935 230.925919,458.089203 
	C256.925201,458.071869 282.924500,458.065826 308.923767,458.100555 
	C310.391205,458.102509 311.858215,458.471497 313.693970,458.879059 
z"/>
<path fill="#885503" opacity="1.000000" stroke="none" 
	d="
M205.022141,399.055298 
	C205.094894,399.364746 205.261078,399.611206 205.763885,400.356506 
	C205.996033,408.564240 206.150696,416.216797 205.845444,423.850983 
	C205.777786,425.542816 204.086060,427.169678 203.142120,428.826477 
	C178.221710,428.883148 153.301331,428.957794 128.380890,428.991119 
	C105.949867,429.021088 83.518806,429.005798 60.630951,429.030701 
	C60.065075,424.720001 59.956013,420.389038 59.959694,415.130005 
	C60.072437,409.279327 60.072437,404.356689 60.072437,399.055298 
	C108.842308,399.055298 156.932220,399.055298 205.022141,399.055298 
z"/>
<path fill="#2B6694" opacity="1.000000" stroke="none" 
	d="
M205.878525,459.200134 
	C206.227402,460.052490 206.877579,460.903839 206.880402,461.757355 
	C206.930801,477.059753 206.908859,492.362427 206.870361,507.664978 
	C206.868759,508.297028 206.554352,508.928314 205.837097,509.831635 
	C205.288483,510.103333 204.973663,509.886749 204.988754,509.474762 
	C205.317276,505.052429 205.630722,501.042053 205.692780,496.695862 
	C194.212997,496.232880 182.983795,496.147858 171.756958,495.938049 
	C169.830017,495.902100 167.913040,495.334595 165.637299,494.983337 
	C150.640518,487.938995 141.089615,477.665588 143.437408,460.055725 
	C162.814972,460.016449 181.721191,460.021484 200.627136,459.951508 
	C202.378494,459.945007 204.128098,459.461914 205.878525,459.200134 
z"/>
<path fill="#0A6D9E" opacity="1.000000" stroke="none" 
	d="
M142.965988,460.079529 
	C141.089615,477.665588 150.640518,487.938995 165.635712,495.301514 
	C166.025589,496.070831 166.062912,496.492706 165.637848,496.946045 
	C161.776382,496.703827 158.381058,496.311981 154.976700,496.203003 
	C153.079834,496.142334 151.172150,496.633545 149.261887,496.732971 
	C145.540985,496.926544 141.814850,497.019470 138.090881,497.154053 
	C134.347443,495.498810 130.603256,493.845245 126.860703,492.187958 
	C112.157845,485.677094 101.613846,474.870605 94.629303,460.360016 
	C102.230537,459.713562 109.536842,459.400055 116.843155,459.086548 
	C124.933388,459.081451 133.023621,459.076385 141.675629,459.317383 
	C142.431747,459.803986 142.674606,459.975983 142.965988,460.079529 
z"/>
<path fill="#07557C" opacity="1.000000" stroke="none" 
	d="
M137.613602,497.156616 
	C141.814850,497.019470 145.540985,496.926544 149.261887,496.732971 
	C151.172150,496.633545 153.079834,496.142334 154.976700,496.203003 
	C158.381058,496.311981 161.776382,496.703827 166.096603,496.951965 
	C179.993195,496.961487 192.968674,496.996613 205.944153,497.031708 
	C205.630722,501.042053 205.317276,505.052429 204.522766,509.502808 
	C195.762634,510.022766 187.483597,510.102692 178.725235,510.103363 
	C165.522156,510.022980 152.798401,510.021820 140.074631,510.020691 
	C135.074707,510.364258 130.074783,510.707855 124.659241,510.995483 
	C118.967216,510.653839 113.692940,510.315826 108.413643,510.101440 
	C105.066849,509.965576 102.706902,508.636414 101.790489,505.265076 
	C100.869133,501.875641 101.998077,499.455688 105.780846,497.990417 
	C106.573837,497.858826 106.779472,497.718323 106.931648,497.499573 
	C116.999870,497.386108 127.068100,497.272614 137.613602,497.156616 
z"/>
<path fill="#5C7581" opacity="1.000000" stroke="none" 
	d="
M116.391090,459.061432 
	C109.536842,459.400055 102.230537,459.713562 94.465973,460.060883 
	C90.218582,460.094696 86.429436,460.094696 82.067238,460.094696 
	C82.067238,486.927399 82.067238,513.569458 81.928757,540.671143 
	C81.601479,539.341370 81.257408,537.552856 81.247269,535.762512 
	C81.106377,510.899628 81.011261,486.036530 80.936714,460.410034 
	C80.977455,459.438171 80.986435,459.229675 80.995407,459.021210 
	C92.643280,459.026245 104.291153,459.031281 116.391090,459.061432 
z"/>
<path fill="#9FCCD9" opacity="1.000000" stroke="none" 
	d="
M179.204559,510.182587 
	C187.483597,510.102692 195.762634,510.022766 204.507675,509.914795 
	C204.973663,509.886749 205.288483,510.103333 205.475006,510.062561 
	C201.443085,512.200256 197.332520,514.647766 192.945862,516.406738 
	C191.472565,516.997498 189.219177,516.052124 187.459793,515.423950 
	C184.832047,514.485657 182.326004,513.206604 179.376190,511.700073 
	C179.057663,510.945923 179.131119,510.564270 179.204559,510.182587 
z"/>
<path fill="#5785AA" opacity="1.000000" stroke="none" 
	d="
M143.437408,460.055725 
	C142.674606,459.975983 142.431747,459.803986 142.145981,459.358154 
	C163.025894,459.125122 183.997253,459.097412 205.423553,459.134888 
	C204.128098,459.461914 202.378494,459.945007 200.627136,459.951508 
	C181.721191,460.021484 162.814972,460.016449 143.437408,460.055725 
z"/>
<path fill="#737778" opacity="1.000000" stroke="none" 
	d="
M61.140076,459.793732 
	C61.134663,475.813049 61.027405,491.588531 60.750435,507.742889 
	C60.388275,501.168213 60.091068,494.215546 60.029289,487.260803 
	C59.948044,478.114136 60.052021,468.965820 60.163223,459.348999 
	C60.512814,459.103149 60.775520,459.326508 61.140076,459.793732 
z"/>
<path fill="#447088" opacity="1.000000" stroke="none" 
	d="
M178.725250,510.103363 
	C179.131119,510.564270 179.057663,510.945923 179.022186,511.617493 
	C176.643784,511.607880 174.232178,511.100800 171.810181,511.044891 
	C161.437576,510.805420 151.061920,510.698944 140.381012,510.282288 
	C152.798401,510.021820 165.522156,510.022980 178.725250,510.103363 
z"/>
<path fill="#AE8949" opacity="1.000000" stroke="none" 
	d="
M203.550415,428.883057 
	C204.086060,427.169678 205.777786,425.542816 205.845444,423.850983 
	C206.150696,416.216797 205.996033,408.564240 205.971680,400.447876 
	C206.284653,402.499115 206.858109,405.013916 206.934998,407.543793 
	C207.100189,412.978729 206.911209,418.424591 207.088120,423.858795 
	C207.136230,425.337097 207.971237,426.789764 208.674438,428.554382 
	C207.255417,428.882904 205.607071,428.911255 203.550415,428.883057 
z"/>
<path fill="#407B98" opacity="1.000000" stroke="none" 
	d="
M228.479065,510.812500 
	C228.018280,510.723602 228.023041,510.401672 228.487991,510.220581 
	C238.880524,509.868896 248.808105,509.698364 258.812988,509.593719 
	C258.890289,509.659637 258.942993,509.855835 258.942993,509.855835 
	C258.915161,510.047638 258.887299,510.239471 258.881622,510.720825 
	C248.915833,510.974030 238.927841,510.937714 228.479065,510.812500 
z"/>
<path fill="#737778" opacity="1.000000" stroke="none" 
	d="
M80.564804,458.994446 
	C80.986435,459.229675 80.977455,459.438171 80.938248,459.958374 
	C78.324081,460.119385 75.740128,459.968689 72.736084,459.806396 
	C74.922058,459.519043 77.528122,459.243378 80.564804,458.994446 
z"/>
<path fill="#06699A" opacity="1.000000" stroke="none" 
	d="
M74.817352,381.322510 
	C74.817352,381.322479 74.456314,381.240723 74.281548,381.181213 
	C70.275261,364.492371 65.001450,348.038239 62.955135,331.192047 
	C59.992924,306.805664 82.231606,291.814514 99.785858,292.969757 
	C108.752998,293.559875 117.832230,292.446808 127.285309,292.138885 
	C130.987366,296.503082 134.264908,300.831970 137.770081,305.359680 
	C140.679443,309.935242 143.361206,314.311981 146.053802,319.479950 
	C146.083755,340.231201 146.102859,360.191223 145.833801,380.471252 
	C143.396729,380.887970 141.248169,381.059845 139.098862,381.069824 
	C117.671768,381.169342 96.244545,381.242157 74.817352,381.322510 
z"/>
<path fill="#B28C49" opacity="1.000000" stroke="none" 
	d="
M204.736450,398.742767 
	C156.932220,399.055298 108.842308,399.055298 60.072437,399.055298 
	C60.072437,404.356689 60.072437,409.279327 59.978874,414.674438 
	C59.462334,409.949707 59.039360,404.752441 58.548306,398.718658 
	C49.471024,398.718658 40.457081,398.718658 31.234657,398.341797 
	C86.856293,397.982849 142.686417,397.996521 198.516510,398.035889 
	C200.494675,398.037292 202.472672,398.293030 204.736450,398.742767 
z"/>
<path fill="#A88A4E" opacity="1.000000" stroke="none" 
	d="
M72.573212,381.194519 
	C67.790039,381.556885 62.554108,381.918030 57.313900,381.997528 
	C48.887436,382.125397 40.458149,382.067230 31.569603,382.081238 
	C32.151688,381.762299 33.192417,381.184723 34.237022,381.177643 
	C46.863861,381.091888 59.491268,381.090393 72.573212,381.194519 
z"/>
<path fill="#1E4C6C" opacity="1.000000" stroke="none" 
	d="
M328.027435,544.497742 
	C327.568451,529.695740 327.295929,515.169434 327.040985,500.146790 
	C336.287994,502.619141 344.087006,507.875488 350.904877,514.660583 
	C380.055206,543.670837 409.190002,572.696716 438.620178,601.871582 
	C431.868317,608.965210 424.825958,615.903198 417.785889,622.843567 
	C416.253448,624.354370 414.729309,625.873535 413.017456,627.667236 
	C407.896576,623.043579 402.964539,618.136658 398.021881,613.240479 
	C376.267822,591.690857 354.516876,570.138000 332.740204,548.611206 
	C331.337494,547.224670 329.727478,546.047852 328.027435,544.497742 
z"/>
<path fill="#040405" opacity="1.000000" stroke="none" 
	d="
M289.657104,615.177856 
	C302.001221,614.630310 314.017731,614.347900 326.486755,613.986084 
	C330.736847,614.254150 334.556854,614.443665 338.327606,614.979797 
	C348.107330,616.370300 354.879303,624.955688 354.158356,634.655212 
	C353.932465,637.694214 352.672302,639.161743 349.521393,639.140869 
	C335.404419,639.047180 321.275421,639.373657 307.172974,638.895081 
	C294.347351,638.459717 288.076965,629.793762 289.657104,615.177856 
z"/>
<path fill="#1F4E6E" opacity="1.000000" stroke="none" 
	d="
M241.977295,499.005768 
	C244.393066,498.332642 246.808838,497.659546 250.108368,496.976074 
	C262.644897,496.960815 274.297638,496.955902 285.950378,496.950989 
	C286.967377,498.759827 288.751129,500.523346 288.861267,502.385834 
	C289.229614,508.613281 288.999268,514.876160 288.994812,521.599609 
	C279.234009,518.003845 269.476624,513.934021 259.331116,509.859985 
	C258.942993,509.855835 258.890289,509.659637 258.589478,509.401062 
	C253.190979,506.151184 248.093262,503.159851 242.922455,499.905121 
	C242.565018,499.434204 242.280655,499.226654 241.996216,499.011719 
	C241.996140,499.004303 241.977295,499.005768 241.977295,499.005768 
z"/>
<path fill="#C6A147" opacity="1.000000" stroke="none" 
	d="
M612.448547,398.823090 
	C617.241882,398.477112 622.491516,398.120026 627.745789,398.026947 
	C634.529541,397.906738 641.317017,397.997650 648.547607,397.997650 
	C648.547607,392.642761 648.547607,387.646393 648.547607,381.751068 
	C640.806580,381.751068 633.235168,381.751068 625.331055,381.512177 
	C633.085327,381.273285 641.172363,381.273285 649.626709,381.273285 
	C649.626709,387.027710 649.626709,392.707886 649.626709,398.929321 
	C637.314026,398.929321 625.110413,398.929321 612.448547,398.823090 
z"/>
<path fill="#102535" opacity="1.000000" stroke="none" 
	d="
M439.371735,601.718628 
	C439.126160,573.326599 439.196869,544.658386 439.416382,515.555847 
	C439.741547,516.250061 440.071167,517.378662 440.071777,518.507324 
	C440.085876,545.170166 440.068390,571.833069 440.034515,598.495911 
	C440.033295,599.478210 439.808594,600.460327 439.371735,601.718628 
z"/>
<path fill="#C6A147" opacity="1.000000" stroke="none" 
	d="
M622.671265,381.095703 
	C621.892334,381.452850 620.634338,381.980988 619.375610,381.982941 
	C593.764709,382.022827 568.153809,382.004669 542.542847,381.981506 
	C541.890320,381.980927 541.237915,381.792938 540.244019,381.441711 
	C567.332336,381.134613 594.762085,381.078156 622.671265,381.095703 
z"/>
<path fill="#3787B0" opacity="1.000000" stroke="none" 
	d="
M547.245117,371.307831 
	C566.008118,371.007538 585.068909,371.007721 604.608521,371.003326 
	C604.517944,371.308044 603.947571,371.888977 603.379028,371.887177 
	C584.766907,371.828766 566.154846,371.714355 547.245117,371.307831 
z"/>
<path fill="#0A6D9E" opacity="1.000000" stroke="none" 
	d="
M106.730896,497.434570 
	C106.779472,497.718323 106.573837,497.858826 106.124809,497.929871 
	C106.045570,497.657104 106.244003,497.467438 106.730896,497.434570 
z"/>
<path fill="#FEFEFE" opacity="1.000000" stroke="none" 
	d="
M426.263245,314.468140 
	C421.197296,305.583069 423.205536,293.169189 439.811218,284.198334 
	C438.828033,282.343353 437.814178,280.495636 436.861511,278.616882 
	C435.638794,276.205627 437.204254,274.327606 439.036285,275.240356 
	C445.660828,278.540802 452.618774,277.051117 460.825897,277.141144 
	C459.186188,280.452850 457.976288,282.896545 456.421265,286.037323 
	C460.840118,291.202148 464.309204,298.050079 461.397491,305.383575 
	C459.493317,310.179535 455.729187,314.982849 451.511200,317.958710 
	C442.776764,324.120941 432.980133,323.690369 426.263245,314.468140 
z"/>
<path fill="#683522" opacity="1.000000" stroke="none" 
	d="
M228.193390,192.833405 
	C233.976151,194.951065 239.385605,196.954422 244.894943,198.994751 
	C239.172165,207.220581 224.433624,208.805283 218.536880,206.232620 
	C210.625702,202.781113 204.527893,192.899918 205.949921,184.625916 
	C213.307968,187.348801 220.564026,190.033936 228.193390,192.833405 
z"/>
<path fill="#2E3333" opacity="1.000000" stroke="none" 
	d="
M212.456146,127.081429 
	C219.647614,126.696060 225.668503,128.108566 230.168243,134.320709 
	C227.681656,135.821274 225.466476,137.158051 223.031265,138.627625 
	C225.167328,142.847626 226.760483,147.081360 221.960541,150.533997 
	C218.991867,152.669388 215.845428,153.198303 212.777802,150.820694 
	C208.139008,147.225357 209.891159,142.930893 212.041977,138.109879 
	C206.982056,137.541534 202.217789,137.006393 196.919785,136.411316 
	C200.725876,130.481537 206.158463,128.452927 212.456146,127.081429 
z"/>
<path fill="#2E3233" opacity="1.000000" stroke="none" 
	d="
M254.944031,141.925507 
	C256.157684,138.299957 256.157684,138.299957 251.271576,135.581985 
	C252.769516,126.367615 268.464996,126.453239 275.961700,135.727661 
	C273.043121,136.580887 270.295044,137.384277 267.294678,138.261414 
	C269.476715,142.516174 271.343079,147.159180 266.802094,150.355362 
	C264.691315,151.841034 260.620911,152.068146 258.118622,151.103119 
	C254.638824,149.761093 253.300323,146.233795 254.944031,141.925507 
z"/>
<path fill="#CC9257" opacity="1.000000" stroke="none" 
	d="
M247.723480,164.557571 
	C248.237640,167.385025 248.683289,169.818985 248.978470,172.271027 
	C249.495163,176.562820 246.946548,177.711716 243.475647,176.848312 
	C231.845230,173.955139 229.050018,176.711960 234.944595,162.601334 
	C236.596985,158.645737 237.870773,154.531967 240.702820,149.967560 
	C242.997635,154.702438 245.292435,159.437332 247.723480,164.557571 
z"/>
<path fill="#AAD9E5" opacity="1.000000" stroke="none" 
	d="
M249.994324,303.604736 
	C257.441833,319.321259 264.677307,334.765991 272.038025,350.541718 
	C263.116943,350.820648 254.070633,350.768646 244.823486,350.361450 
	C244.622665,332.546967 244.622665,315.087585 244.622665,297.628235 
	C245.009003,297.555817 245.395355,297.483429 245.781693,297.411011 
	C247.115234,299.385010 248.448761,301.359009 249.994324,303.604736 
z"/>
<path fill="#C6A147" opacity="1.000000" stroke="none" 
	d="
M608.730103,398.673401 
	C482.674622,398.970825 356.319946,398.975586 229.965271,398.962616 
	C228.484726,398.962463 227.004227,398.733002 225.231537,398.300842 
	C350.790833,397.996887 476.642273,398.000946 602.493713,398.023804 
	C604.472778,398.024170 606.451843,398.255798 608.730103,398.673401 
z"/>
<path fill="#6E0303" opacity="1.000000" stroke="none" 
	d="
M146.121964,380.151245 
	C146.102859,360.191223 146.083755,340.231201 146.160782,319.842438 
	C159.258179,336.776855 172.231766,354.160858 185.287933,371.482666 
	C187.469498,374.376984 190.009705,377.001007 192.691498,380.138824 
	C192.998825,380.527740 192.947067,380.980560 192.947067,380.980560 
	C192.947067,380.980560 192.996628,381.011475 192.537704,381.002991 
	C178.510239,381.029327 164.941574,381.098755 151.373276,381.056458 
	C149.621918,381.050995 147.872360,380.467163 146.121964,380.151245 
z"/>
<path fill="#A88A4E" opacity="1.000000" stroke="none" 
	d="
M221.738800,381.618103 
	C213.265808,381.816071 204.448914,381.781769 195.283890,381.530182 
	C203.755478,381.337219 212.575165,381.361511 221.738800,381.618103 
z"/>
<path fill="#A88A4E" opacity="1.000000" stroke="none" 
	d="
M193.183533,381.038086 
	C192.947067,380.980560 192.998825,380.527740 192.986633,380.300598 
	C193.255661,380.249969 193.536880,380.426514 193.862106,380.861023 
	C193.906128,381.118927 193.419983,381.095642 193.183533,381.038086 
z"/>
<path fill="#4495BD" opacity="1.000000" stroke="none" 
	d="
M456.514832,104.961502 
	C457.782074,104.631363 459.512329,104.043411 461.243317,104.041206 
	C500.186340,103.991631 539.129456,104.006393 578.542664,104.004364 
	C577.454529,104.333138 575.896729,104.955841 574.338074,104.957672 
	C535.218140,105.003677 496.098175,104.984344 456.514832,104.961502 
z"/>
<path fill="#A88A4E" opacity="1.000000" stroke="none" 
	d="
M145.833801,380.471252 
	C147.872360,380.467163 149.621918,381.050995 151.373276,381.056458 
	C164.941574,381.098755 178.510239,381.029327 192.549500,380.976257 
	C191.805496,381.297882 190.591248,381.932770 189.376007,381.934662 
	C151.926270,381.992676 114.476448,381.989594 77.026642,381.984772 
	C76.535400,381.984711 76.044174,381.840973 75.185150,381.543396 
	C96.244545,381.242157 117.671768,381.169342 139.098862,381.069824 
	C141.248169,381.059845 143.396729,380.887970 145.833801,380.471252 
z"/>
<path fill="#07557C" opacity="1.000000" stroke="none" 
	d="
M242.995544,500.168518 
	C248.093262,503.159851 253.190979,506.151184 258.512207,509.335144 
	C248.808105,509.698364 238.880524,509.868896 228.486847,510.059570 
	C228.006439,508.589752 227.981384,507.099792 227.979523,505.609833 
	C227.968063,496.439636 229.848663,495.111511 238.955002,497.868164 
	C239.740753,498.106049 240.504166,498.417725 241.627625,498.850433 
	C241.977295,499.005768 241.996140,499.004303 242.078888,499.263367 
	C242.439590,499.737793 242.717560,499.953156 242.995544,500.168518 
z"/>
<path fill="#467AA0" opacity="1.000000" stroke="none" 
	d="
M285.661316,496.657959 
	C274.297638,496.955902 262.644897,496.960815 250.531815,496.953857 
	C251.460175,496.630951 252.849899,496.047211 254.237396,496.052399 
	C264.615936,496.091125 274.994049,496.246277 285.661316,496.657959 
z"/>
<path fill="#5C8CAC" opacity="1.000000" stroke="none" 
	d="
M205.692764,496.695862 
	C192.968674,496.996613 179.993195,496.961487 166.558990,496.920471 
	C166.062912,496.492706 166.025589,496.070831 165.989868,495.330811 
	C167.913040,495.334595 169.830017,495.902100 171.756958,495.938049 
	C182.983795,496.147858 194.212997,496.232880 205.692764,496.695862 
z"/>
<path fill="#2C6896" opacity="1.000000" stroke="none" 
	d="
M242.922455,499.905121 
	C242.717560,499.953156 242.439590,499.737793 242.078949,499.270752 
	C242.280655,499.226654 242.565018,499.434204 242.922455,499.905121 
z"/>
</svg>